<svg xmlns="http://www.w3.org/2000/svg" xmlns:xlink="http://www.w3.org/1999/xlink" width="575pt" height="211pt" viewBox="0 0 575 211"><g id="graph0" class="graph" transform="scale(1 1) rotate(0) translate(4 207)"><title>dependencies</title><polygon fill="#fff" stroke="transparent" points="-4 4 -4 -207 571 -207 571 4 -4 4"/><text x="262.51" y="-42.4" font-family="Times-12" font-size="14" font-weight="bold" text-anchor="start">Legend</text><polygon fill="#ffffb3" stroke="transparent" points="49.5 -10 49.5 -30 69.5 -30 69.5 -10 49.5 -10"/><text x="73.13" y="-15.4" font-family="Times-12" font-size="14" text-anchor="start">Declarations</text><polygon fill="#8dd3c7" stroke="transparent" points="162.5 -10 162.5 -30 182.5 -30 182.5 -10 162.5 -10"/><text x="186.23" y="-15.4" font-family="Times-12" font-size="14" text-anchor="start">Module</text><polygon fill="#80b1d3" stroke="transparent" points="248.5 -10 248.5 -30 268.5 -30 268.5 -10 248.5 -10"/><text x="272.28" y="-15.4" font-family="Times-12" font-size="14" text-anchor="start">Bootstrap</text><polygon fill="#fdb462" stroke="transparent" points="345.5 -10 345.5 -30 365.5 -30 365.5 -10 345.5 -10"/><text x="369.17" y="-15.4" font-family="Times-12" font-size="14" text-anchor="start">Providers</text><polygon fill="#fb8072" stroke="transparent" points="441.5 -10 441.5 -30 461.5 -30 461.5 -10 441.5 -10"/><text x="465.23" y="-15.4" font-family="Times-12" font-size="14" text-anchor="start">Exports</text><g id="clust1" class="cluster"><title>cluster_CartModule</title><polygon fill="none" stroke="#000" stroke-dasharray="1 5" points="8 -70 8 -195 559 -195 559 -70 8 -70"/></g><g id="clust2" class="cluster"><title>cluster_CartModule_declarations</title><polygon fill="none" stroke="#000" points="285 -78 285 -130 551 -130 551 -78 285 -78"/></g><g id="clust5" class="cluster"><title>cluster_CartModule_imports</title><polygon fill="none" stroke="#000" points="16 -78 16 -130 277 -130 277 -78 16 -78"/></g><g id="node1" class="node"><title>CartComponent</title><polygon fill="#ffffb3" stroke="#000" points="542.94 -122 437.06 -122 437.06 -86 542.94 -86 542.94 -122"/><text x="490" y="-99.8" font-family="Times,serif" font-size="14" text-anchor="middle">CartComponent</text></g><g id="node3" class="node"><title>CartModule</title><polygon fill="#8dd3c7" stroke="#000" points="321.65 -187 318.65 -191 297.65 -191 294.65 -187 238.35 -187 238.35 -151 321.65 -151 321.65 -187"/><text x="280" y="-164.8" font-family="Times,serif" font-size="14" text-anchor="middle">CartModule</text></g><g id="edge1" class="edge"><title>CartComponent-&gt;CartModule</title><path fill="none" stroke="#000" d="M490,-122.11C490,-141.34 490,-169 490,-169 490,-169 331.74,-169 331.74,-169"/><polygon fill="#000" stroke="#000" points="331.74 -165.5 321.74 -169 331.74 -172.5 331.74 -165.5"/></g><g id="node2" class="node"><title>SuccessComponent</title><polygon fill="#ffffb3" stroke="#000" points="418.65 -122 293.35 -122 293.35 -86 418.65 -86 418.65 -122"/><text x="356" y="-99.8" font-family="Times,serif" font-size="14" text-anchor="middle">SuccessComponent</text></g><g id="edge2" class="edge"><title>SuccessComponent-&gt;CartModule</title><path fill="none" stroke="#000" d="M307.5,-122.11C307.5,-122.11 307.5,-140.99 307.5,-140.99"/><polygon fill="#000" stroke="#000" points="304 -140.99 307.5 -150.99 311 -140.99 304 -140.99"/></g><g id="node4" class="node"><title>CartRoutingModule</title><polygon fill="#8dd3c7" stroke="#000" points="269.27 -122 266.27 -126 245.27 -126 242.27 -122 140.73 -122 140.73 -86 269.27 -86 269.27 -122"/><text x="205" y="-99.8" font-family="Times,serif" font-size="14" text-anchor="middle">CartRoutingModule</text></g><g id="edge3" class="edge"><title>CartRoutingModule-&gt;CartModule</title><path fill="none" stroke="#000" d="M253.78,-122.11C253.78,-122.11 253.78,-140.99 253.78,-140.99"/><polygon fill="#000" stroke="#000" points="250.28 -140.99 253.78 -150.99 257.28 -140.99 250.28 -140.99"/></g><g id="node5" class="node"><title>SharedModule</title><polygon fill="#8dd3c7" stroke="#000" points="122.42 -122 119.42 -126 98.42 -126 95.42 -122 23.58 -122 23.58 -86 122.42 -86 122.42 -122"/><text x="73" y="-99.8" font-family="Times,serif" font-size="14" text-anchor="middle">SharedModule</text></g><g id="edge4" class="edge"><title>SharedModule-&gt;CartModule</title><path fill="none" stroke="#000" d="M73,-122.11C73,-141.34 73,-169 73,-169 73,-169 228.11,-169 228.11,-169"/><polygon fill="#000" stroke="#000" points="228.11 -172.5 238.11 -169 228.11 -165.5 228.11 -172.5"/></g></g></svg>