<svg xmlns="http://www.w3.org/2000/svg" xmlns:xlink="http://www.w3.org/1999/xlink" width="944pt" height="284pt" viewBox="0 0 944 284"><g id="graph0" class="graph" transform="scale(1 1) rotate(0) translate(4 280)"><title>dependencies</title><polygon fill="#fff" stroke="transparent" points="-4 4 -4 -280 940 -280 940 4 -4 4"/><text x="447.01" y="-42.4" font-family="Times-12" font-size="14" font-weight="bold" text-anchor="start">Legend</text><polygon fill="#ffffb3" stroke="transparent" points="234 -10 234 -30 254 -30 254 -10 234 -10"/><text x="257.63" y="-15.4" font-family="Times-12" font-size="14" text-anchor="start">Declarations</text><polygon fill="#8dd3c7" stroke="transparent" points="347 -10 347 -30 367 -30 367 -10 347 -10"/><text x="370.73" y="-15.4" font-family="Times-12" font-size="14" text-anchor="start">Module</text><polygon fill="#80b1d3" stroke="transparent" points="433 -10 433 -30 453 -30 453 -10 433 -10"/><text x="456.78" y="-15.4" font-family="Times-12" font-size="14" text-anchor="start">Bootstrap</text><polygon fill="#fdb462" stroke="transparent" points="530 -10 530 -30 550 -30 550 -10 530 -10"/><text x="553.67" y="-15.4" font-family="Times-12" font-size="14" text-anchor="start">Providers</text><polygon fill="#fb8072" stroke="transparent" points="626 -10 626 -30 646 -30 646 -10 626 -10"/><text x="649.73" y="-15.4" font-family="Times-12" font-size="14" text-anchor="start">Exports</text><g id="clust1" class="cluster"><title>cluster_CustomerModule</title><polygon fill="none" stroke="#000" stroke-dasharray="1 5" points="8 -70 8 -268 928 -268 928 -70 8 -70"/></g><g id="clust2" class="cluster"><title>cluster_CustomerModule_declarations</title><polygon fill="none" stroke="#000" points="316 -78 316 -130 920 -130 920 -78 316 -78"/></g><g id="clust8" class="cluster"><title>cluster_CustomerModule_exports</title><polygon fill="none" stroke="#000" points="227 -208 227 -260 704 -260 704 -208 227 -208"/></g><g id="clust7" class="cluster"><title>cluster_CustomerModule_imports</title><polygon fill="none" stroke="#000" points="16 -78 16 -130 308 -130 308 -78 16 -78"/></g><g id="node1" class="node"><title>LoginComponent</title><polygon fill="#ffffb3" stroke="#000" points="912.28 -122 797.72 -122 797.72 -86 912.28 -86 912.28 -122"/><text x="855" y="-99.8" font-family="Times,serif" font-size="14" text-anchor="middle">LoginComponent</text></g><g id="node5" class="node"><title>CustomerModule</title><polygon fill="#8dd3c7" stroke="#000" points="550.99 -187 547.99 -191 526.99 -191 523.99 -187 437.01 -187 437.01 -151 550.99 -151 550.99 -187"/><text x="494" y="-164.8" font-family="Times,serif" font-size="14" text-anchor="middle">CustomerModule</text></g><g id="edge1" class="edge"><title>LoginComponent-&gt;CustomerModule</title><path fill="none" stroke="#000" d="M855,-122.11C855,-141.34 855,-169 855,-169 855,-169 561.2,-169 561.2,-169"/><polygon fill="#000" stroke="#000" points="561.2 -165.5 551.2 -169 561.2 -172.5 561.2 -165.5"/></g><g id="node2" class="node"><title>ProfileComponent</title><polygon fill="#ffffb3" stroke="#000" points="779.93 -122 660.07 -122 660.07 -86 779.93 -86 779.93 -122"/><text x="720" y="-99.8" font-family="Times,serif" font-size="14" text-anchor="middle">ProfileComponent</text></g><g id="edge2" class="edge"><title>ProfileComponent-&gt;CustomerModule</title><path fill="none" stroke="#000" d="M678.21,-122.03C678.21,-138.4 678.21,-160 678.21,-160 678.21,-160 561.02,-160 561.02,-160"/><polygon fill="#000" stroke="#000" points="561.02 -156.5 551.02 -160 561.02 -163.5 561.02 -156.5"/></g><g id="node3" class="node"><title>RegisterComponent</title><polygon fill="#ffffb3" stroke="#000" points="641.98 -122 514.02 -122 514.02 -86 641.98 -86 641.98 -122"/><text x="578" y="-99.8" font-family="Times,serif" font-size="14" text-anchor="middle">RegisterComponent</text></g><g id="edge3" class="edge"><title>RegisterComponent-&gt;CustomerModule</title><path fill="none" stroke="#000" d="M532.5,-122.11C532.5,-122.11 532.5,-140.99 532.5,-140.99"/><polygon fill="#000" stroke="#000" points="529 -140.99 532.5 -150.99 536 -140.99 529 -140.99"/></g><g id="node4" class="node"><title>SelectionScreenComponent</title><polygon fill="#ffffb3" stroke="#000" points="495.52 -122 324.48 -122 324.48 -86 495.52 -86 495.52 -122"/><text x="410" y="-99.8" font-family="Times,serif" font-size="14" text-anchor="middle">SelectionScreenComponent</text></g><g id="edge4" class="edge"><title>SelectionScreenComponent-&gt;CustomerModule</title><path fill="none" stroke="#000" d="M466.38,-122.11C466.38,-122.11 466.38,-140.99 466.38,-140.99"/><polygon fill="#000" stroke="#000" points="462.88 -140.99 466.38 -150.99 469.88 -140.99 462.88 -140.99"/></g><g id="node8" class="node"><title>LoginComponent</title><polygon fill="#fb8072" stroke="#000" points="696.28 -252 577.72 -252 577.72 -216 696.28 -216 696.28 -252"/><text x="637" y="-229.8" font-family="Times,serif" font-size="14" text-anchor="middle">LoginComponent</text></g><g id="edge7" class="edge"><title>CustomerModule-&gt;LoginComponent</title><path fill="none" stroke="#000" stroke-dasharray="5 2" d="M551.28,-178C580.49,-178 609.93,-178 609.93,-178 609.93,-178 609.93,-205.97 609.93,-205.97"/><polygon fill="#000" stroke="#000" points="606.43 -205.97 609.93 -215.97 613.43 -205.97 606.43 -205.97"/></g><g id="node9" class="node"><title>RegisterComponent</title><polygon fill="#fb8072" stroke="#000" points="559.99 -252 428.01 -252 428.01 -216 559.99 -216 559.99 -252"/><text x="494" y="-229.8" font-family="Times,serif" font-size="14" text-anchor="middle">RegisterComponent</text></g><g id="edge8" class="edge"><title>CustomerModule-&gt;RegisterComponent</title><path fill="none" stroke="#000" stroke-dasharray="5 2" d="M494,-187.11C494,-187.11 494,-205.99 494,-205.99"/><polygon fill="#000" stroke="#000" points="490.5 -205.99 494 -215.99 497.5 -205.99 490.5 -205.99"/></g><g id="node10" class="node"><title>SelectionScreenComponent</title><polygon fill="#fb8072" stroke="#000" points="410.52 -252 235.48 -252 235.48 -216 410.52 -216 410.52 -252"/><text x="323" y="-229.8" font-family="Times,serif" font-size="14" text-anchor="middle">SelectionScreenComponent</text></g><g id="edge9" class="edge"><title>CustomerModule-&gt;SelectionScreenComponent</title><path fill="none" stroke="#000" stroke-dasharray="5 2" d="M436.98,-178C403.38,-178 367.38,-178 367.38,-178 367.38,-178 367.38,-205.97 367.38,-205.97"/><polygon fill="#000" stroke="#000" points="363.88 -205.97 367.38 -215.97 370.88 -205.97 363.88 -205.97"/></g><g id="node6" class="node"><title>CustomerRoutingModule</title><polygon fill="#8dd3c7" stroke="#000" points="299.61 -122 296.61 -126 275.61 -126 272.61 -122 140.39 -122 140.39 -86 299.61 -86 299.61 -122"/><text x="220" y="-99.8" font-family="Times,serif" font-size="14" text-anchor="middle">CustomerRoutingModule</text></g><g id="edge5" class="edge"><title>CustomerRoutingModule-&gt;CustomerModule</title><path fill="none" stroke="#000" d="M267.52,-122.03C267.52,-138.4 267.52,-160 267.52,-160 267.52,-160 426.85,-160 426.85,-160"/><polygon fill="#000" stroke="#000" points="426.85 -163.5 436.85 -160 426.85 -156.5 426.85 -163.5"/></g><g id="node7" class="node"><title>SharedModule</title><polygon fill="#8dd3c7" stroke="#000" points="122.42 -122 119.42 -126 98.42 -126 95.42 -122 23.58 -122 23.58 -86 122.42 -86 122.42 -122"/><text x="73" y="-99.8" font-family="Times,serif" font-size="14" text-anchor="middle">SharedModule</text></g><g id="edge6" class="edge"><title>SharedModule-&gt;CustomerModule</title><path fill="none" stroke="#000" d="M73,-122.11C73,-141.34 73,-169 73,-169 73,-169 426.78,-169 426.78,-169"/><polygon fill="#000" stroke="#000" points="426.78 -172.5 436.78 -169 426.78 -165.5 426.78 -172.5"/></g></g></svg>