<svg xmlns="http://www.w3.org/2000/svg" width="23" height="22" fill="none" viewBox="0 0 23 22"><path stroke="#000" d="M7.22044 17.6929C8.13367 17.6929 8.87398 18.4332 8.87398 19.3464C8.87398 20.2596 8.13367 21 7.22044 21C6.30721 21 5.56689 20.2596 5.56689 19.3464C5.56689 18.4332 6.30721 17.6929 7.22044 17.6929Z"/><path stroke="#000" d="M17.2204 17.6929C18.1771 17.6929 18.9527 18.4331 18.9527 19.3464C18.9527 20.2596 18.1771 21 17.2204 21C16.2638 21 15.4882 20.2596 15.4882 19.3464C15.4882 18.4331 16.2638 17.6929 17.2204 17.6929Z"/><path stroke="#000" stroke-linecap="round" d="M1 1L1.29228 1.10182C2.74868 1.60915 3.47689 1.86283 3.8934 2.46674C4.30991 3.07066 4.30991 3.87283 4.30991 5.47717V8.49455C4.30991 11.7558 4.38068 12.832 5.35012 13.8452C6.31957 14.8583 7.87988 14.8583 11.0005 14.8583H12.1894M16.9342 14.8583C18.6808 14.8583 19.5541 14.8583 20.1715 14.3598C20.7888 13.8614 20.9651 13.0139 21.3177 11.3189L21.877 8.63064C22.2653 6.70261 22.4595 5.73861 21.9628 5.09881C21.4661 4.45902 19.7689 4.45902 17.8835 4.45902H11.0968M4.30991 4.45902H6.5947"/></svg>