<svg xmlns="http://www.w3.org/2000/svg" width="25" height="40" fill="none" viewBox="0 0 25 40"><path fill="#067A46" d="M12.7672 11.2134C15.7615 11.2134 18.1871 8.70226 18.1871 5.60986C18.1871 2.51116 15.7615 0 12.7672 0C9.77044 0 7.33979 2.51116 7.33979 5.60986C7.33979 8.70226 9.77044 11.2134 12.7672 11.2134Z"/><path fill="#067A46" d="M22.3841 15.9678C22.1149 15.1501 20.5775 12.6704 16.4056 12.6477L8.23933 12.6691C4.18952 12.4426 2.57286 14.8355 2.31998 15.8961C2.31998 15.8961 -0.41512 24.6286 0.05415 26.6516C0.34477 27.9072 2.52379 29.4433 4.84373 30.5857L1.75384 40H23.5416L20.536 30.256C22.6068 29.1602 24.426 27.7927 24.6889 26.6516C25.1645 24.6047 22.3841 15.9678 22.3841 15.9678ZM9.11371 25.591C8.73502 25.7596 8.31607 25.8565 7.877 25.8565C6.17354 25.8565 4.79466 24.4549 4.79466 22.7276C4.79466 21.0002 6.17479 19.6 7.877 19.6C9.54901 19.6 10.9229 20.9537 10.9681 22.642C11.4991 22.2608 12.0426 22.0822 12.4502 22.0079C12.4502 22.0105 12.4502 22.013 12.4502 22.0168C13.0629 21.8998 13.5384 22.0168 13.5384 22.0168C15.5942 22.4722 20.1372 24.4877 20.1372 24.4877C20.1372 24.4877 17.699 27.5071 13.2705 27.4882C13.1547 27.4882 13.0415 27.4857 12.9345 27.4807C12.5269 27.4706 12.1596 27.4442 11.8299 27.4039C9.73898 27.1573 9.14013 26.3773 9.11371 25.591Z"/></svg>