<svg width="200" height="200" viewBox="0 0 200 200" fill="none" xmlns="http://www.w3.org/2000/svg">
<path fill-rule="evenodd" clip-rule="evenodd" d="M71.2561 5.00021C63.2163 4.97625 55.0586 6.97236 47.6402 11.2078C25.0327 24.1157 17.2707 53.202 30.367 75.7122L57.9637 123.078L58.0307 123.281C58.1129 123.421 58.2031 123.557 58.3006 123.686C58.3631 123.802 58.4308 123.914 58.5035 124.024L85.8977 171.188C93.5819 184.382 104.8 191.774 116.531 194.128C128.261 196.483 140.438 193.93 150.605 188.123C160.772 182.317 169.04 173.204 172.871 161.944C176.702 150.683 175.821 137.349 168.148 124.158L140.349 76.455C140.307 76.3634 140.261 76.2734 140.213 76.1851C140.15 76.0696 140.082 75.957 140.01 75.8477L112.617 28.684C103.803 13.5468 87.7187 5.04933 71.2561 5.00021ZM71.2561 13.6368C84.7393 13.6774 97.9027 20.6618 105.127 33.0691L130.565 76.7918L63.5639 115.589L37.8567 71.394C27.1275 52.9504 33.4492 29.2653 51.9585 18.6973C58.0322 15.2295 64.6711 13.6169 71.2561 13.6368ZM134.951 84.2813L160.725 128.476C167.299 139.776 167.765 150.187 164.707 159.177C161.648 168.167 154.807 175.767 146.286 180.633C137.765 185.5 127.634 187.517 118.218 185.626C108.8 183.736 99.9716 178.107 93.3873 166.801L67.9498 123.011L134.951 84.2813Z" fill="black"/>
<path fill-rule="evenodd" clip-rule="evenodd" d="M127.729 98.7036C126.979 98.7056 126.244 98.9025 125.594 99.2749C124.944 99.6473 124.401 100.182 124.021 100.828C123.64 101.473 123.434 102.206 123.422 102.955C123.41 103.704 123.594 104.443 123.954 105.1C129.821 116.162 137.74 126.17 141.69 134.755C143.665 139.048 144.613 142.842 144.306 146.148C144 149.453 142.613 152.546 138.762 156.084C138.334 156.465 137.986 156.927 137.738 157.444C137.49 157.96 137.348 158.521 137.319 159.094C137.29 159.666 137.375 160.238 137.569 160.777C137.764 161.316 138.064 161.811 138.451 162.233C138.839 162.655 139.307 162.996 139.827 163.235C140.348 163.475 140.911 163.608 141.484 163.628C142.056 163.647 142.627 163.553 143.163 163.35C143.699 163.147 144.189 162.839 144.604 162.444C149.667 157.794 152.399 152.41 152.906 146.945C153.412 141.48 151.867 136.212 149.536 131.146C144.873 121.012 136.921 111.116 131.584 101.053C131.221 100.344 130.668 99.7491 129.988 99.3345C129.307 98.9198 128.525 98.7015 127.729 98.7036Z" fill="black"/>
</svg>
