<svg width="24" height="24" viewBox="0 0 24 24" fill="none" xmlns="http://www.w3.org/2000/svg">
<path d="M8.14432 18.489C9.04639 18.489 9.77765 19.2203 9.77765 20.1223C9.77765 21.0244 9.04639 21.7557 8.14432 21.7557C7.24225 21.7557 6.51099 21.0244 6.51099 20.1223C6.51099 19.2203 7.24225 18.489 8.14432 18.489Z" stroke="black" stroke-width="2"/>
<path d="M18.0223 18.489C18.9673 18.489 19.7334 19.2202 19.7334 20.1223C19.7334 21.0244 18.9673 21.7557 18.0223 21.7557C17.0773 21.7557 16.3112 21.0244 16.3112 20.1223C16.3112 19.2202 17.0773 18.489 18.0223 18.489Z" stroke="black" stroke-width="2"/>
<path d="M2 2L2.28871 2.10058C3.72731 2.60171 4.44661 2.85228 4.85804 3.44881C5.26946 4.04535 5.26946 4.83772 5.26946 6.42245V9.40295C5.26946 12.6243 5.33936 13.6874 6.29696 14.6882C7.25456 15.6889 8.79579 15.6889 11.8783 15.6889H13.0526M17.7394 15.6889C19.4647 15.6889 20.3274 15.6889 20.9371 15.1965C21.5469 14.7042 21.7211 13.8671 22.0694 12.1927L22.6218 9.53738C23.0054 7.63291 23.1972 6.68069 22.7066 6.04871C22.2159 5.41675 20.5395 5.41675 18.6771 5.41675H11.9733M5.26946 5.41675H7.52632" stroke="black" stroke-width="2" stroke-linecap="round"/>
</svg>
