<svg width="200" height="200" viewBox="0 0 200 200" fill="none" xmlns="http://www.w3.org/2000/svg">
<path d="M179.554 107.329C177.167 106.008 174.582 104.84 171.84 103.829C183.756 90.6696 191.717 74.5525 194.951 56.9386C195.236 55.3805 194.206 53.8879 192.65 53.6008L22.6422 22.3801L9.93689 20.0472C9.18952 19.91 8.41682 20.0746 7.79189 20.5074C7.16697 20.9381 6.7384 21.601 6.60117 22.3484C1.98182 47.5036 7.4351 72.9522 21.9561 94.0053C36.477 115.058 58.3281 129.199 83.4833 133.819C86.9309 134.452 90.4229 134.897 93.9064 135.153V148.257C93.9064 157.198 99.347 165.502 109.225 171.641C118.679 177.515 131.191 180.751 144.453 180.751C157.716 180.751 170.227 177.517 179.681 171.641C189.559 165.504 195 157.198 195 148.257V128.484C194.998 120.351 189.513 112.837 179.554 107.329ZM189.266 128.484C189.266 128.809 189.251 129.134 189.224 129.459C189.215 129.562 189.198 129.666 189.186 129.769C189.16 129.991 189.137 130.211 189.099 130.43C189.078 130.553 189.051 130.677 189.025 130.8C188.985 131 188.945 131.201 188.896 131.399C188.865 131.53 188.825 131.659 188.789 131.788C188.734 131.98 188.679 132.172 188.616 132.364C188.571 132.497 188.523 132.628 188.474 132.761C188.405 132.949 188.333 133.137 188.255 133.325C188.2 133.458 188.141 133.589 188.082 133.722C187.997 133.907 187.908 134.093 187.816 134.279C187.75 134.41 187.683 134.541 187.611 134.669C187.512 134.855 187.406 135.041 187.296 135.225C187.22 135.351 187.146 135.48 187.066 135.607C186.948 135.795 186.825 135.981 186.699 136.166C186.616 136.289 186.534 136.411 186.447 136.532C186.31 136.724 186.165 136.912 186.019 137.102C185.93 137.216 185.846 137.33 185.753 137.444C185.59 137.644 185.417 137.845 185.244 138.043C185.158 138.142 185.075 138.242 184.986 138.341C184.777 138.573 184.556 138.801 184.332 139.031C184.269 139.095 184.212 139.16 184.148 139.223C183.561 139.81 182.924 140.387 182.24 140.948C182.143 141.028 182.039 141.107 181.94 141.187C181.693 141.385 181.446 141.582 181.186 141.776C181.055 141.873 180.92 141.97 180.787 142.067C180.606 142.2 180.42 142.333 180.232 142.464L160.197 128.868L127.593 106.742C132.926 105.583 138.654 104.979 144.451 104.979C168.743 104.979 189.266 115.745 189.266 128.484ZM121.54 148.61C117.413 147.297 113.655 145.622 110.429 143.629C103.905 139.599 100.13 134.621 99.6827 129.508C99.6531 129.168 99.6384 128.826 99.6384 128.484C99.6384 123.273 103.09 118.172 109.405 113.99L147.305 139.711L162.424 149.972C162.339 149.991 162.255 150.01 162.173 150.029C161.643 150.151 161.109 150.267 160.57 150.379C160.414 150.411 160.258 150.445 160.099 150.476C159.466 150.603 158.828 150.723 158.187 150.833C158.085 150.85 157.984 150.867 157.883 150.884C157.319 150.979 156.753 151.067 156.183 151.15C156.016 151.173 155.85 151.198 155.683 151.221C155.028 151.312 154.37 151.397 153.707 151.473C153.626 151.481 153.544 151.49 153.462 151.498C152.866 151.563 152.267 151.623 151.665 151.673C151.492 151.688 151.319 151.703 151.144 151.718C150.47 151.772 149.795 151.821 149.117 151.859C149.07 151.861 149.022 151.863 148.973 151.865C148.334 151.899 147.694 151.924 147.05 151.946C146.873 151.952 146.695 151.956 146.518 151.96C145.83 151.977 145.141 151.99 144.449 151.99C136.312 151.99 128.416 150.799 121.54 148.61ZM39.0126 85.7251L96.708 45.9328L84.0428 114.902C65.3838 110.762 49.7102 100.073 39.0126 85.7251ZM24.4832 28.547L93.4525 41.2122L35.7571 81.0044C26.1447 65.9071 21.7238 47.4593 24.4832 28.547ZM149.503 99.391C148.137 99.315 146.761 99.2749 145.376 99.2601L107.066 43.7118L176.037 56.377C172.277 73.2879 162.945 88.438 149.503 99.391ZM102.345 46.9673L138.54 99.448C131.997 99.885 125.651 101.038 119.919 102.856C119.902 102.862 119.887 102.868 119.87 102.875C119.801 102.898 119.735 102.927 119.668 102.955C119.61 102.98 119.551 103.001 119.496 103.031C119.482 103.037 119.467 103.043 119.452 103.05C119.408 103.073 119.366 103.103 119.323 103.13C119.266 103.164 119.209 103.195 119.157 103.233C119.102 103.271 119.049 103.316 118.996 103.358C118.948 103.398 118.897 103.436 118.85 103.478C118.8 103.525 118.753 103.575 118.705 103.626C118.663 103.67 118.62 103.713 118.58 103.759C118.536 103.814 118.496 103.871 118.456 103.928C118.422 103.977 118.384 104.023 118.352 104.074C118.314 104.135 118.283 104.2 118.249 104.266C118.221 104.316 118.192 104.365 118.169 104.418C118.135 104.492 118.109 104.57 118.082 104.648C118.065 104.694 118.046 104.739 118.031 104.785C117.96 105.034 117.919 105.296 117.917 105.564L117.903 107.521L113.249 109.675L111.073 108.197C110.152 107.572 108.949 107.536 107.995 108.108C103.774 110.629 100.434 113.54 98.0676 116.707C95.2724 116.606 92.4644 116.346 89.6755 115.941L102.345 46.9673ZM171.903 150.371C171.899 150.354 171.893 150.337 171.888 150.318C171.88 150.282 171.869 150.248 171.859 150.212C171.853 150.189 171.848 150.166 171.84 150.143C171.815 150.067 171.785 149.993 171.753 149.921C171.747 149.908 171.743 149.893 171.736 149.881C171.688 149.771 171.631 149.665 171.57 149.564C171.557 149.543 171.542 149.522 171.527 149.499C171.473 149.414 171.413 149.332 171.352 149.256C171.337 149.237 171.325 149.22 171.308 149.201C171.23 149.108 171.145 149.019 171.057 148.939C171.046 148.929 171.033 148.92 171.023 148.912C170.943 148.84 170.858 148.775 170.77 148.713C170.757 148.705 170.744 148.692 170.732 148.684L158.009 140.051L118.787 113.429L121.96 111.961C122.528 111.699 122.982 111.265 123.271 110.737L133.701 117.816L177.405 147.476L177.392 147.831L171.903 150.371ZM165.787 101.922C163.064 101.2 160.224 100.622 157.304 100.189C169.553 88.7589 178.066 73.8537 181.676 57.4158L188.751 58.7142C185.223 75.0423 177.331 89.899 165.787 101.922ZM84.5178 128.182C36.6417 119.388 4.53428 74.0036 11.7652 26.2119L18.842 27.5103C15.6773 48.8147 20.9997 69.5848 32.3475 86.2445C32.415 86.3922 32.4932 86.5358 32.5882 86.673C32.6811 86.8082 32.7866 86.9285 32.8964 87.0404C44.9472 104.302 63.5217 117.02 85.8162 121.113C88.8585 121.673 91.9388 122.059 95.0169 122.277C94.2843 124.291 93.9064 126.368 93.9064 128.481V129.4C90.767 129.159 87.6213 128.752 84.5178 128.182ZM189.266 142.156V148.257C189.266 155.142 184.788 161.718 176.654 166.773C168.095 172.091 156.658 175.019 144.451 175.019C132.244 175.019 120.805 172.091 112.249 166.773C104.116 161.718 99.6363 155.144 99.6363 148.257V142.16C99.6616 142.19 99.6911 142.217 99.7165 142.247C99.9487 142.502 100.183 142.753 100.428 143.005C100.445 143.021 100.462 143.038 100.479 143.055C100.709 143.29 100.945 143.52 101.186 143.75C101.26 143.822 101.336 143.891 101.412 143.963C101.627 144.166 101.847 144.366 102.07 144.565C102.123 144.611 102.174 144.658 102.225 144.704C102.493 144.941 102.769 145.173 103.05 145.403C103.13 145.468 103.213 145.534 103.293 145.599C103.517 145.781 103.745 145.958 103.975 146.138C104.057 146.201 104.137 146.262 104.22 146.326C104.517 146.549 104.819 146.773 105.128 146.993C105.195 147.041 105.267 147.09 105.334 147.136C105.59 147.316 105.847 147.493 106.111 147.668C106.208 147.734 106.308 147.799 106.407 147.865C106.724 148.074 107.045 148.278 107.374 148.483C107.387 148.492 107.399 148.5 107.412 148.509C109.19 149.606 111.109 150.618 113.146 151.534C121.975 155.507 133.027 157.724 144.449 157.724C152.024 157.724 159.47 156.759 166.228 154.92C166.258 155.877 166.762 156.753 167.573 157.262C168.036 157.551 168.561 157.697 169.091 157.697C169.501 157.697 169.912 157.61 170.295 157.431L181.389 152.298C182.366 151.846 183.008 150.884 183.051 149.805L183.141 147.432C183.361 147.282 183.578 147.13 183.794 146.976C183.84 146.944 183.887 146.91 183.931 146.879C184.25 146.651 184.562 146.418 184.866 146.184C184.908 146.152 184.949 146.119 184.991 146.087C185.255 145.884 185.512 145.677 185.766 145.47C185.825 145.422 185.884 145.373 185.943 145.325C186.519 144.848 187.068 144.362 187.592 143.868C187.645 143.817 187.697 143.767 187.75 143.716C187.976 143.501 188.196 143.281 188.411 143.062C188.445 143.026 188.481 142.992 188.516 142.956C188.763 142.703 189.004 142.445 189.238 142.188C189.247 142.177 189.257 142.166 189.266 142.156Z" fill="black"/>
</svg>
