<svg xmlns="http://www.w3.org/2000/svg" width="41" height="41" fill="none" viewBox="0 0 41 41"><path stroke="#067A46" stroke-linecap="round" stroke-linejoin="round" stroke-width="2" d="M33.7351 20.0735H39.5119M33.7351 20.0735C33.7351 23.7605 32.2264 27.0983 29.787 29.5144M33.7351 20.0735C33.7351 16.3866 32.2264 13.0488 29.787 10.6326M39.5119 20.0735V16.2588M39.5119 20.0735V23.8882M29.787 29.5144C27.3479 31.9306 23.9781 33.425 20.2559 33.425M29.787 29.5144L34.6979 34.3787M29.787 10.6326C27.3479 8.21647 23.9781 6.72206 20.2559 6.72206M29.787 10.6326L34.6979 5.76839M20.2559 33.425V39.1471M20.2559 33.425C16.5338 33.425 13.164 31.9306 10.7247 29.5144M20.2559 39.1471H24.1071M20.2559 39.1471H16.4047M10.7247 29.5144C8.28548 27.0983 6.77678 23.7605 6.77678 20.0735M10.7247 29.5144L5.81398 34.3787M6.77678 20.0735C6.77678 12.6997 12.8116 6.72206 20.2559 6.72206M6.77678 20.0735H1M20.2559 6.72206V1M1 20.0735V16.2588M1 20.0735V23.8882M20.2559 1H24.1071M20.2559 1H16.4047M34.6979 5.76839L31.8095 2.90735M34.6979 5.76839L37.5863 8.62942M5.81398 5.76839L8.70237 2.90735M5.81398 5.76839L2.92559 8.62942M5.81398 5.76839L10.628 10.5368M5.81398 34.3787L8.70237 37.2397M5.81398 34.3787L2.92559 31.5177M34.6979 34.3787L31.8095 37.2397M34.6979 34.3787L37.5863 31.5177"/></svg>