<svg width="42" height="42" viewBox="0 0 42 42" fill="none" xmlns="http://www.w3.org/2000/svg">
<path d="M35 21H41M35 21C35 24.866 33.433 28.366 30.8994 30.8994M35 21C35 17.134 33.433 13.634 30.8994 11.1005M41 21V17M41 21V25M30.8994 30.8994C28.366 33.433 24.866 35 21 35M30.8994 30.8994L36 36M30.8994 11.1005C28.366 8.567 24.866 7 21 7M30.8994 11.1005L36 6M21 35V41M21 35C17.134 35 13.634 33.433 11.1005 30.8994M21 41H25M21 41H17M11.1005 30.8994C8.567 28.366 7 24.866 7 21M11.1005 30.8994L6 36M7 21C7 13.268 13.268 7 21 7M7 21H1M21 7V1M1 21V17M1 21V25M21 1H25M21 1H17M36 6L33 3M36 6L39 9M6 6L9 3M6 6L3 9M6 6L11 11M6 36L9 39M6 36L3 33M36 36L33 39M36 36L39 33" stroke="#067A46" stroke-width="2" stroke-linecap="round" stroke-linejoin="round"/>
</svg>
