<svg width="200" height="200" viewBox="0 0 200 200" fill="none" xmlns="http://www.w3.org/2000/svg">
<path d="M145.874 155.386C143.243 154.143 140.391 153.436 137.483 153.305C134.576 153.175 131.672 153.624 128.941 154.626L107.875 162.297C106.565 162.786 105.404 163.604 104.503 164.672L81.371 153.89C80.3556 153.424 79.2579 153.163 78.1411 153.122C77.0244 153.081 75.9106 153.261 74.8638 153.653C73.8512 154.027 72.9239 154.6 72.1367 155.338C71.3494 156.076 70.7181 156.965 70.2802 157.951C69.4137 159.916 69.3511 162.143 70.1057 164.154C70.8603 166.164 72.3721 167.8 74.3175 168.71L109.728 185.334C112.502 186.633 115.506 187.372 118.567 187.506C121.628 187.641 124.685 187.169 127.563 186.118L136.184 182.983L162.118 195L174.396 168.662L145.874 155.386ZM160.289 189.965L136.374 178.803L126.304 182.484C123.894 183.367 121.333 183.763 118.769 183.649C116.205 183.534 113.688 182.913 111.366 181.819L75.98 165.266C75.4476 165.025 74.9681 164.681 74.5688 164.255C74.1695 163.828 73.8584 163.327 73.6532 162.78C73.448 162.232 73.3528 161.65 73.3731 161.066C73.3934 160.482 73.5287 159.908 73.7713 159.376C73.9851 158.84 74.306 158.353 74.7143 157.944C75.1226 157.536 75.6098 157.215 76.1462 157.001C77.3142 156.578 78.6016 156.629 79.7324 157.144L102.674 167.855C102.27 169.425 102.353 171.082 102.912 172.605C103.264 173.641 103.823 174.596 104.553 175.413C105.284 176.229 106.171 176.889 107.163 177.354C108.135 177.822 109.191 178.088 110.268 178.137C111.346 178.186 112.422 178.017 113.432 177.639L136.588 169.208C137.034 169.017 137.391 168.661 137.583 168.215C137.775 167.768 137.789 167.265 137.622 166.809C137.455 166.352 137.119 165.977 136.683 165.761C136.248 165.545 135.746 165.504 135.282 165.646L112.15 174.077C111.423 174.345 110.638 174.416 109.875 174.282C109.111 174.149 108.397 173.816 107.804 173.317C107.516 173.092 107.26 172.828 107.044 172.533C106.668 171.973 106.426 171.334 106.334 170.666C106.242 169.997 106.304 169.317 106.515 168.676C106.725 168.035 107.079 167.45 107.549 166.966C108.02 166.482 108.594 166.112 109.229 165.884L130.294 158.213C132.56 157.388 134.965 157.018 137.374 157.124C139.782 157.229 142.146 157.809 144.33 158.83L169.409 170.538L160.289 189.965Z" fill="black"/>
<path d="M104.218 125.653C104.057 125.424 103.844 125.238 103.596 125.11C103.348 124.982 103.072 124.915 102.793 124.916C102.511 124.919 102.234 124.987 101.983 125.115C101.731 125.242 101.513 125.427 101.344 125.653C101.344 125.771 99.3258 128.621 97.3309 132.041C94.5285 136.791 93.151 140.282 93.151 142.42C93.0862 143.724 93.2873 145.029 93.742 146.254C94.1967 147.479 94.8956 148.598 95.7962 149.545C96.6968 150.491 97.7804 151.245 98.9812 151.76C100.182 152.275 101.475 152.54 102.781 152.54C104.088 152.54 105.381 152.275 106.581 151.76C107.782 151.245 108.866 150.491 109.766 149.545C110.667 148.598 111.366 147.479 111.821 146.254C112.275 145.029 112.476 143.724 112.412 142.42C112.412 140.282 111.058 136.886 108.232 132.041C106.261 128.621 104.313 125.771 104.218 125.653ZM102.793 148.571C101.162 148.571 99.5973 147.922 98.4438 146.769C97.2902 145.615 96.6422 144.051 96.6422 142.42C96.6422 141.755 96.9984 139.546 100.347 133.799C101.202 132.302 102.081 130.901 102.722 129.809C103.411 130.901 104.289 132.302 105.097 133.799C108.422 139.546 108.778 141.755 108.778 142.42C108.779 144.022 108.153 145.562 107.036 146.711C105.918 147.86 104.396 148.527 102.793 148.571Z" fill="black"/>
<path d="M99.0408 89.9342L80.0414 100.74C79.874 100.832 79.7267 100.956 79.6081 101.105C79.4896 101.255 79.4023 101.426 79.3513 101.61C79.3004 101.794 79.2869 101.986 79.3116 102.175C79.3363 102.364 79.3987 102.547 79.4952 102.711L81.8701 107.129C80.9599 108.39 80.4029 109.872 80.2568 111.421C80.1107 112.97 80.3807 114.53 81.0389 115.94C83.8651 120.927 92.7472 121.022 101.249 116.177C109.752 111.332 114.216 103.637 111.39 98.6739C110.511 97.3902 109.307 96.3623 107.901 95.6948C106.495 95.0274 104.938 94.7442 103.387 94.874L101.012 90.5042C100.92 90.3371 100.796 90.1898 100.647 90.0707C100.499 89.9516 100.328 89.863 100.145 89.8101C99.9615 89.7571 99.7698 89.7408 99.5803 89.7621C99.3909 89.7834 99.2075 89.8419 99.0408 89.9342ZM102.769 97.8189C103.928 97.6208 105.118 97.7366 106.216 98.1543C107.315 98.5719 108.281 99.2762 109.015 100.194C109.404 101.228 109.516 102.346 109.341 103.437C109.166 104.528 108.71 105.555 108.018 106.416C105.904 109.421 103.151 111.921 99.9561 113.736C96.7615 115.551 93.2047 116.636 89.5411 116.913C88.4446 117.064 87.3277 116.924 86.3024 116.507C85.2771 116.09 84.3792 115.411 83.6988 114.538C83.3017 113.435 83.2068 112.245 83.4239 111.093C83.6411 109.94 84.1623 108.867 84.9338 107.984C85.0672 107.753 85.1374 107.49 85.1374 107.224C85.1374 106.957 85.0672 106.695 84.9338 106.464L82.7251 102.569L99.1595 93.2116L101.368 97.1065C101.513 97.3435 101.72 97.5357 101.968 97.6615C102.215 97.7874 102.493 97.8419 102.769 97.8189Z" fill="black"/>
<path d="M74.1753 100.716L102.104 84.8754C102.433 84.6816 102.674 84.3679 102.776 84.0001C102.877 83.6324 102.833 83.2395 102.651 82.9042L95.5258 70.3172L68.2855 9.23434C67.8926 8.33626 67.3186 7.52891 66.5993 6.86282C65.8801 6.19673 65.0312 5.68622 64.1057 5.36323C63.1575 5.0483 62.1537 4.9363 61.1595 5.0345C60.1653 5.13269 59.2028 5.43889 58.3346 5.93321L28.6719 22.7714C27.7973 23.2559 27.0345 23.9191 26.4331 24.7178C25.8317 25.5165 25.4051 26.4329 25.1811 27.4073C24.9571 28.3817 24.9407 29.3924 25.133 30.3735C25.3252 31.3547 25.7218 32.2844 26.297 33.1022L65.0319 87.5828L72.1566 100.194C72.2523 100.363 72.3812 100.511 72.5356 100.63C72.6899 100.749 72.8666 100.835 73.055 100.884C73.2434 100.932 73.4397 100.943 73.6322 100.914C73.8247 100.885 74.0094 100.818 74.1753 100.716ZM63.0844 8.09438C63.6544 8.28318 64.1767 8.59325 64.6154 9.00323C65.0541 9.41321 65.3987 9.91337 65.6256 10.4693L65.8156 10.8968L63.2269 12.3692L60.852 8.07063C61.5882 7.89713 62.3563 7.91348 63.0844 8.11813V8.09438ZM59.3558 8.61687L61.8732 13.0342L58.0734 15.1954L55.556 10.778L59.3558 8.61687ZM54.2973 11.4905L56.9809 15.9079L53.181 18.069L50.6636 13.6517L54.2973 11.4905ZM49.2387 14.3642L51.7561 18.8053L47.9562 20.9664L45.4388 16.5253L49.2387 14.3642ZM44.1564 17.2616L46.7925 21.6314L42.9927 23.7926L40.4752 19.3515L44.1564 17.2616ZM39.0978 20.1352L41.6152 24.5525L37.9816 26.7137L35.4404 22.2964L39.0978 20.1352ZM34.0392 23.0089L36.5566 27.4499L32.7805 29.6111L30.2394 25.17L34.0392 23.0089ZM28.6482 31.4161C28.0827 30.6075 27.8161 29.6274 27.8941 28.6438C27.9721 27.6602 28.3898 26.7344 29.0757 26.025L31.4506 30.3236L28.8619 31.796L28.6482 31.4161ZM29.7644 32.9835L66.4806 12.1317L92.2247 70.3409L66.6943 84.8992L29.7644 32.9835ZM93.5546 72.9533L99.3257 83.0705L74.009 97.4862L68.2618 87.3453L93.5546 72.9533Z" fill="black"/>
<path d="M76.9061 42.2221C74.0124 36.8779 69.7293 32.4143 64.509 29.3026C59.6404 26.5952 55.0094 26.2152 51.3757 28.2814C47.7421 30.3476 45.6997 34.5274 45.5334 40.156C45.5582 46.223 47.1976 52.1741 50.2833 57.3978C53.177 62.742 57.4601 67.2057 62.6803 70.3174C67.4302 73.0248 72.18 73.4048 75.8136 71.3386C79.4472 69.2724 81.4897 65.0926 81.6559 59.464C81.6312 53.397 79.9918 47.4459 76.9061 42.2221ZM75.1486 70.0324C68.5226 73.8085 57.9543 67.8 51.5895 56.6379C45.2247 45.4758 45.4622 33.3162 52.0882 29.5401C58.7142 25.764 69.2826 31.7725 75.6474 42.9346C82.0122 54.0967 81.7747 66.2563 75.1486 70.0324Z" fill="black"/>
</svg>
