<svg width="24" height="24" viewBox="0 0 24 24" fill="none" xmlns="http://www.w3.org/2000/svg">
<path d="M23 12.7141V14.3112C23 18.4071 23 20.4551 21.7698 21.7275C20.5397 23 18.5598 23 14.6 23H10.4C6.4402 23 4.46031 23 3.23015 21.7275C2 20.4551 2 18.4071 2 14.3112V12.7141C2 10.3113 2 9.10984 2.54516 8.11388C3.09032 7.11792 4.0863 6.49979 6.07823 5.26354L8.17823 3.96021C10.2839 2.6534 11.3367 2 12.5 2C13.6633 2 14.7161 2.6534 16.8218 3.96021L18.9218 5.26353C20.9138 6.49979 21.9097 7.11792 22.4548 8.11388" stroke="black" stroke-width="2" stroke-linecap="round"/>
<path d="M16.8425 20.2305H10.0665" stroke="black" stroke-width="2" stroke-linecap="round"/>
</svg>
