<svg xmlns="http://www.w3.org/2000/svg" width="200" height="200" fill="none" viewBox="0 0 200 200"><path fill="#D2F895" d="M88.5 174L40 145.5L107 30.5L154.5 58.5L88.5 174Z"/><path fill="#067A46" fill-rule="evenodd" d="M85.7079 176.355L64.4807 164.1L47.5877 193.362C45.4512 197.071 39.8272 193.826 41.9573 190.125L58.8568 160.853L37.6232 148.593C36.0695 147.692 35.5375 145.701 36.4389 144.148L103.065 28.7481C103.967 27.1943 105.958 26.6623 107.511 27.5638L128.732 39.8145L141.673 17.4009L130.776 11.1098C127.071 8.96703 130.326 3.33249 134.037 5.47948L161.461 21.3128C165.166 23.4556 161.91 29.0901 158.199 26.9431L147.31 20.6562L134.369 43.0698L155.598 55.3269C157.152 56.2284 157.684 58.2191 156.783 59.7729L90.156 175.172C89.2525 176.726 87.2617 177.256 85.7079 176.355ZM104.775 56.1397C108.485 58.2698 105.242 63.9022 101.539 61.77L94.0214 57.4296L87.1392 69.3489L104.978 79.6469C108.687 81.7833 105.443 87.4073 101.742 85.2772L83.8924 74.9708L77.0102 86.8901L84.5172 91.2242C88.2265 93.3606 84.9817 98.9846 81.2809 96.8545L73.7633 92.5141L66.8853 104.429L84.7326 114.733C88.4376 116.876 85.1822 122.511 81.4709 120.364L63.6321 110.064L56.7541 121.979L64.2612 126.313C67.9704 128.449 64.7256 134.073 61.0249 131.943L53.5072 127.603L43.7032 144.585L86.147 169.097L149.52 59.3317L107.072 34.8239L97.2683 51.8056L104.775 56.1397Z" clip-rule="evenodd"/></svg>