<svg width="24" height="24" viewBox="0 0 24 24" fill="none" xmlns="http://www.w3.org/2000/svg">
<path fill-rule="evenodd" clip-rule="evenodd" d="M12.3333 10.1667C11.3213 10.1667 10.5 9.34533 10.5 8.33333C10.5 7.32133 11.3213 6.5 12.3333 6.5C13.3453 6.5 14.1667 7.32133 14.1667 8.33333C14.1667 9.34533 13.3453 10.1667 12.3333 10.1667ZM12.3333 5.58333C10.8144 5.58333 9.58333 6.81442 9.58333 8.33333C9.58333 9.85225 10.8144 11.0833 12.3333 11.0833C13.8523 11.0833 15.0833 9.85225 15.0833 8.33333C15.0833 6.81442 13.8523 5.58333 12.3333 5.58333ZM5.91667 7.9685C5.91667 4.74458 8.91508 1.91667 12.3333 1.91667C15.7516 1.91667 18.75 4.74458 18.75 7.9685C18.75 11.1356 16.4006 14.8829 12.3333 21.2849C8.21842 14.8013 5.91667 11.1356 5.91667 7.9685ZM12.3333 1C8.48517 1 5 4.11942 5 7.9685C5 11.8167 8.17992 16.411 12.3333 23C16.4868 16.411 19.6667 11.8167 19.6667 7.9685C19.6667 4.11942 16.1824 1 12.3333 1Z" fill="#067A46"/>
</svg>
