<svg width="200" height="200" viewBox="0 0 200 200" fill="none" xmlns="http://www.w3.org/2000/svg">
<path d="M188.741 171.601L184.352 165.749C184.48 165.316 184.514 164.86 184.449 164.413C184.385 163.966 184.224 163.538 183.978 163.159L166.587 137.072V111.178C166.587 110.396 166.298 109.641 165.776 109.06L128.599 67.7344C128.327 67.4049 127.991 67.1338 127.611 66.9377C127.231 66.7415 126.816 66.6242 126.39 66.5929C125.963 66.5616 125.535 66.6169 125.131 66.7554C124.727 66.894 124.355 67.113 124.037 67.3992C123.72 67.6854 123.463 68.0329 123.284 68.4207C123.104 68.8086 123.005 69.2288 122.992 69.656C122.979 70.0832 123.053 70.5085 123.209 70.9065C123.365 71.3044 123.6 71.6667 123.9 71.9714L139.98 89.8473L98.9115 130.9C98.609 131.192 98.3678 131.542 98.2018 131.928C98.0359 132.314 97.9485 132.73 97.9448 133.15C97.9412 133.571 98.0213 133.988 98.1805 134.377C98.3398 134.766 98.5749 135.12 98.8722 135.417C99.1696 135.714 99.5231 135.949 99.9123 136.109C100.301 136.268 100.718 136.348 101.139 136.344C101.559 136.341 101.975 136.253 102.361 136.087C102.748 135.921 103.097 135.68 103.389 135.378L144.208 94.5593L159.05 111.064L114.064 156.05L55.1258 103.037L106.04 52.1227L115.435 62.5727C116.002 63.1777 116.783 63.5363 117.612 63.5715C118.44 63.6067 119.249 63.3157 119.865 62.761C120.481 62.2063 120.855 61.4321 120.907 60.6047C120.958 59.7772 120.683 58.9626 120.141 58.3357L87.1916 21.7099L89.5381 19.3634C90.1318 18.7695 90.4653 17.9642 90.4653 17.1245C90.4653 16.2848 90.1318 15.4795 89.5381 14.8857L80.5796 5.92716C79.9857 5.3335 79.1804 5 78.3407 5C77.5011 5 76.6957 5.3335 76.1019 5.92716L46.9938 35.0353C46.3996 35.629 46.0656 36.4345 46.0653 37.2746C46.0652 37.6905 46.1469 38.1024 46.306 38.4867C46.465 38.8711 46.6982 39.2203 46.9922 39.5145C47.2862 39.8087 47.6353 40.0422 48.0195 40.2015C48.4037 40.3608 48.8156 40.4429 49.2315 40.443C50.0715 40.4433 50.8773 40.1099 51.4715 39.5161L78.3407 12.6469L82.8184 17.1277L20.1182 79.8279L15.6437 75.3407L42.5161 48.4715C43.0929 47.8742 43.4121 47.0743 43.4049 46.244C43.3977 45.4137 43.0647 44.6195 42.4775 44.0324C41.8904 43.4452 41.0962 43.1122 40.2659 43.105C39.4356 43.0978 38.6357 43.417 38.0384 43.9938L8.92716 73.1019C8.3335 73.6957 8 74.5011 8 75.3407C8 76.1804 8.3335 76.9857 8.92716 77.5796L17.8857 86.5349C18.4795 87.1286 19.2848 87.4621 20.1245 87.4621C20.9642 87.4621 21.7695 87.1286 22.3634 86.5349L82.7076 26.1939L101.799 47.4106L50.4106 98.7932L35.2518 85.1543C34.6269 84.5924 33.8044 84.3018 32.9653 84.3463C32.1262 84.3909 31.3391 84.7669 30.7772 85.3918C30.2154 86.0166 29.9247 86.8391 29.9693 87.6782C30.0138 88.5174 30.3899 89.3044 31.0147 89.8663L112.06 162.776C112.641 163.298 113.396 163.587 114.178 163.587H140.072L152.52 171.883C150.182 172.499 147.775 172.818 145.357 172.833H130.29C120.701 172.813 111.374 169.704 103.69 163.967C103.22 163.614 102.66 163.399 102.074 163.346C101.489 163.293 100.9 163.405 100.374 163.668C99.8478 163.931 99.4054 164.335 99.0963 164.835C98.7871 165.335 98.6233 165.912 98.6233 166.5V176C98.6292 181.037 100.633 185.867 104.195 189.429C107.757 192.99 112.586 194.994 117.623 195H177.043C179.759 195 182.421 194.243 184.731 192.816C187.041 191.388 188.908 189.345 190.122 186.915C191.337 184.486 191.851 181.767 191.607 179.062C191.363 176.357 190.37 173.774 188.741 171.601ZM177.268 164.514L167.511 174.271L146.009 159.935L162.932 143.013L177.268 164.514ZM160.253 136.733L139.733 157.253H121.822L160.253 118.822V136.733ZM184.459 184.078C183.777 185.461 182.72 186.624 181.409 187.435C180.097 188.246 178.585 188.673 177.043 188.667H117.623C114.264 188.667 111.042 187.332 108.667 184.957C106.291 182.581 104.957 179.359 104.957 176V172.371C112.665 176.805 121.398 179.148 130.29 179.167H145.354C150.091 179.133 154.774 178.155 159.129 176.291L166.159 180.978C166.768 181.384 167.499 181.567 168.228 181.495C168.957 181.422 169.638 181.1 170.155 180.582L180.102 170.636L183.674 175.386C184.608 176.616 185.176 178.084 185.315 179.622C185.454 181.161 185.157 182.707 184.459 184.084V184.078Z" fill="black"/>
<path d="M116.407 86.5379L107.449 77.5794C106.855 76.9857 106.05 76.6522 105.21 76.6522C104.37 76.6522 103.565 76.9857 102.971 77.5794L98.4934 82.0571L94.0157 77.5794C93.4219 76.9857 92.6166 76.6522 91.7769 76.6522C90.9372 76.6522 90.1319 76.9857 89.538 77.5794L80.5795 86.5379C79.9858 87.1318 79.6523 87.9371 79.6523 88.7768C79.6523 89.6164 79.9858 90.4218 80.5795 91.0156L85.0572 95.4933L80.5795 99.971C79.9858 100.565 79.6523 101.37 79.6523 102.21C79.6523 103.049 79.9858 103.855 80.5795 104.449L89.538 113.407C90.1319 114.001 90.9372 114.334 91.7769 114.334C92.6166 114.334 93.4219 114.001 94.0157 113.407L98.4934 108.929L102.971 113.407C103.565 114.001 104.37 114.334 105.21 114.334C106.05 114.334 106.855 114.001 107.449 113.407L116.407 104.449C117.001 103.855 117.334 103.049 117.334 102.21C117.334 101.37 117.001 100.565 116.407 99.971L111.93 95.4933L116.407 91.0156C117.001 90.4218 117.334 89.6164 117.334 88.7768C117.334 87.9371 117.001 87.1318 116.407 86.5379ZM105.216 97.7321L109.691 102.216L105.216 106.691L100.732 102.216C100.138 101.622 99.3331 101.289 98.4934 101.289C97.6537 101.289 96.8484 101.622 96.2546 102.216L91.7769 106.694L87.2992 102.216L91.7769 97.7384C92.3705 97.1446 92.704 96.3393 92.704 95.4996C92.704 94.6599 92.3705 93.8546 91.7769 93.2608L87.2992 88.7831L91.78 84.3022L96.2577 88.7799C96.8516 89.3736 97.6569 89.7071 98.4966 89.7071C99.3363 89.7071 100.142 89.3736 100.735 88.7799L105.216 84.2991L109.697 88.7799L105.216 93.2544C104.623 93.8483 104.289 94.6536 104.289 95.4933C104.289 96.333 104.623 97.1383 105.216 97.7321Z" fill="black"/>
<path d="M125.366 135.799L138.802 122.363C139.379 121.766 139.698 120.966 139.691 120.136C139.684 119.305 139.351 118.511 138.763 117.924C138.176 117.337 137.382 117.004 136.552 116.997C135.722 116.989 134.922 117.309 134.324 117.885L120.888 131.322C120.586 131.614 120.344 131.963 120.178 132.349C120.013 132.736 119.925 133.151 119.922 133.572C119.918 133.992 119.998 134.409 120.157 134.798C120.316 135.188 120.552 135.541 120.849 135.839C121.146 136.136 121.5 136.371 121.889 136.53C122.278 136.689 122.695 136.77 123.116 136.766C123.536 136.762 123.952 136.675 124.338 136.509C124.724 136.343 125.074 136.102 125.366 135.799Z" fill="black"/>
<path d="M58.1881 77.5795L80.5797 55.1879C81.1565 54.5907 81.4757 53.7907 81.4685 52.9605C81.4613 52.1302 81.1282 51.3359 80.5411 50.7488C79.954 50.1617 79.1597 49.8286 78.3294 49.8214C77.4991 49.8142 76.6992 50.1334 76.102 50.7102L53.7104 73.1018C53.408 73.3939 53.1667 73.7433 53.0007 74.1297C52.8348 74.516 52.7474 74.9316 52.7438 75.352C52.7401 75.7725 52.8202 76.1895 52.9795 76.5787C53.1387 76.9678 53.3738 77.3214 53.6712 77.6187C53.9685 77.9161 54.322 78.1512 54.7112 78.3104C55.1004 78.4696 55.5174 78.5498 55.9378 78.5461C56.3583 78.5425 56.7738 78.4551 57.1602 78.2891C57.5465 78.1232 57.896 77.8819 58.1881 77.5795Z" fill="black"/>
</svg>
