<svg width="200" height="200" viewBox="0 0 200 200" fill="none" xmlns="http://www.w3.org/2000/svg">
<path d="M71.5 110.5V58L80 48H192V118H83.5L71.5 110.5Z" fill="#D2F895"/>
<ellipse cx="113.5" cy="83.5" rx="8.5" ry="7.5" fill="#D2F895"/>
<path d="M191.833 44.6667H84.1667C79.969 44.6716 75.9446 46.3413 72.9763 49.3096C70.008 52.2778 68.3383 56.3022 68.3334 60.5V63.6667H52.5C52.0842 63.6665 51.6723 63.7484 51.2881 63.9075C50.9038 64.0666 50.5547 64.2998 50.2606 64.5939C49.9666 64.888 49.7333 65.2371 49.5742 65.6214C49.4151 66.0056 49.3333 66.4174 49.3334 66.8333V98.5C49.3333 98.9159 49.4151 99.3277 49.5742 99.712C49.7333 100.096 49.9666 100.445 50.2606 100.739C50.5547 101.033 50.9038 101.267 51.2881 101.426C51.6723 101.585 52.0842 101.667 52.5 101.667H68.3334V104.833C68.3383 109.031 70.008 113.055 72.9763 116.024C75.9446 118.992 79.969 120.662 84.1667 120.667H191.833C192.249 120.667 192.661 120.585 193.045 120.426C193.43 120.267 193.779 120.033 194.073 119.739C194.367 119.445 194.6 119.096 194.759 118.712C194.918 118.328 195 117.916 195 117.5V47.8333C195 47.4174 194.918 47.0056 194.759 46.6214C194.6 46.2371 194.367 45.888 194.073 45.5939C193.779 45.2998 193.43 45.0666 193.045 44.9075C192.661 44.7484 192.249 44.6665 191.833 44.6667ZM68.3334 95.3333H55.6667V70H68.3334V95.3333ZM188.667 114.333H84.1667C81.648 114.331 79.2332 113.329 77.4522 111.548C75.6712 109.767 74.6695 107.352 74.6667 104.833V60.5C74.6695 57.9813 75.6712 55.5665 77.4522 53.7855C79.2332 52.0045 81.648 51.0027 84.1667 51H188.667V114.333Z" fill="#067A46"/>
<g filter="url(#filter0_d_69_107)">
<path d="M30.3333 89H24V95.3333H30.3333V89Z" fill="#E4FABF"/>
</g>
<g filter="url(#filter1_d_69_107)">
<path d="M36.6667 101.667H30.3334V108H36.6667V101.667Z" fill="#E4FABF"/>
</g>
<g filter="url(#filter2_d_69_107)">
<path d="M24 108H17.6666V114.333H24V108Z" fill="#E4FABF"/>
</g>
<g filter="url(#filter3_d_69_107)">
<path d="M43 95.3333H36.6666V101.667H43V95.3333Z" fill="#E4FABF"/>
</g>
<g filter="url(#filter4_d_69_107)">
<path d="M43 76.3333H36.6666V82.6667H43V76.3333Z" fill="#E4FABF"/>
</g>
<g filter="url(#filter5_d_69_107)">
<path d="M30.3333 133.333H24V139.667H30.3333V133.333Z" fill="#E4FABF"/>
</g>
<g filter="url(#filter6_d_69_107)">
<path d="M36.6667 146H30.3334V152.333H36.6667V146Z" fill="#E4FABF"/>
</g>
<g filter="url(#filter7_d_69_107)">
<path d="M24 152.333H17.6666V158.667H24V152.333Z" fill="#E4FABF"/>
</g>
<g filter="url(#filter8_d_69_107)">
<path d="M11.3333 161.833H5V168.167H11.3333V161.833Z" fill="#E4FABF"/>
</g>
<g filter="url(#filter9_d_69_107)">
<path d="M24 120.667H17.6666V127H24V120.667Z" fill="#E4FABF"/>
</g>
<g filter="url(#filter10_d_69_107)">
<path d="M11.3333 130.167H5V136.5H11.3333V130.167Z" fill="#E4FABF"/>
</g>
<g filter="url(#filter11_d_69_107)">
<path d="M43 139.667H36.6666V146H43V139.667Z" fill="#E4FABF"/>
</g>
<g filter="url(#filter12_d_69_107)">
<path d="M43 120.667H36.6666V127H43V120.667Z" fill="#E4FABF"/>
</g>
<g filter="url(#filter13_d_69_107)">
<path d="M112.667 95.3333C115.172 95.3333 117.621 94.5905 119.704 93.1986C121.787 91.8068 123.41 89.8285 124.369 87.514C125.328 85.1995 125.579 82.6526 125.09 80.1955C124.601 77.7384 123.395 75.4815 121.623 73.71C119.852 71.9385 117.595 70.7321 115.138 70.2434C112.681 69.7546 110.134 70.0055 107.819 70.9642C105.505 71.9229 103.527 73.5464 102.135 75.6295C100.743 77.7125 100 80.1614 100 82.6667C100.004 86.025 101.339 89.2447 103.714 91.6194C106.089 93.9941 109.308 95.3298 112.667 95.3333ZM112.667 76.3333C113.919 76.3333 115.144 76.7048 116.185 77.4007C117.227 78.0966 118.039 79.0857 118.518 80.243C118.997 81.4003 119.123 82.6737 118.878 83.9022C118.634 85.1308 118.031 86.2593 117.145 87.145C116.259 88.0307 115.131 88.6339 113.902 88.8783C112.674 89.1227 111.4 88.9973 110.243 88.5179C109.086 88.0386 108.097 87.2268 107.401 86.1853C106.705 85.1438 106.333 83.9193 106.333 82.6667C106.335 80.9876 107.003 79.3778 108.19 78.1905C109.378 77.0031 110.988 76.3353 112.667 76.3333Z" fill="#067A46"/>
</g>
<g filter="url(#filter14_d_69_107)">
<path d="M138 63.6667H131.667V101.667H138V63.6667Z" fill="#067A46"/>
</g>
<g filter="url(#filter15_d_69_107)">
<path d="M150.667 70H144.333V95.3333H150.667V70Z" fill="#067A46"/>
</g>
<g filter="url(#filter16_d_69_107)">
<path d="M166.5 63.6667H176V73.1667C176 74.0065 176.334 74.812 176.928 75.4059C177.521 75.9997 178.327 76.3333 179.167 76.3333C180.007 76.3333 180.812 75.9997 181.406 75.4059C182 74.812 182.333 74.0065 182.333 73.1667V60.5C182.333 60.0841 182.252 59.6723 182.093 59.288C181.933 58.9038 181.7 58.5547 181.406 58.2606C181.112 57.9665 180.763 57.7333 180.379 57.5742C179.994 57.4151 179.583 57.3332 179.167 57.3333H166.5C165.66 57.3333 164.855 57.667 164.261 58.2608C163.667 58.8547 163.333 59.6602 163.333 60.5C163.333 61.3399 163.667 62.1453 164.261 62.7392C164.855 63.333 165.66 63.6667 166.5 63.6667Z" fill="#067A46"/>
</g>
<g filter="url(#filter17_d_69_107)">
<path d="M179.167 82.6667C178.751 82.6666 178.339 82.7484 177.955 82.9075C177.57 83.0666 177.221 83.2998 176.927 83.5939C176.633 83.888 176.4 84.2371 176.241 84.6214C176.082 85.0056 176 85.4175 176 85.8333V92.1667C176 93.0065 176.334 93.812 176.927 94.4058C177.521 94.9997 178.327 95.3333 179.167 95.3333C180.007 95.3333 180.812 94.9997 181.406 94.4058C182 93.812 182.333 93.0065 182.333 92.1667V85.8333C182.333 85.4175 182.252 85.0056 182.093 84.6214C181.933 84.2371 181.7 83.888 181.406 83.5939C181.112 83.2998 180.763 83.0666 180.379 82.9075C179.994 82.7484 179.583 82.6666 179.167 82.6667Z" fill="#067A46"/>
</g>
<g filter="url(#filter18_d_69_107)">
<path d="M81 85.8333V101.667C81.0019 103.346 81.6698 104.956 82.8571 106.143C84.0444 107.33 85.6542 107.998 87.3333 108H96.8333C97.6732 108 98.4786 107.666 99.0725 107.073C99.6664 106.479 100 105.673 100 104.833C100 103.993 99.6664 103.188 99.0725 102.594C98.4786 102 97.6732 101.667 96.8333 101.667H87.3333V85.8333C87.3333 84.9935 86.9997 84.188 86.4058 83.5942C85.812 83.0003 85.0065 82.6667 84.1667 82.6667C83.3268 82.6667 82.5214 83.0003 81.9275 83.5942C81.3336 84.188 81 84.9935 81 85.8333Z" fill="#067A46"/>
</g>
<g filter="url(#filter19_d_69_107)">
<path d="M115.833 101.667H109.5C108.66 101.667 107.855 102 107.261 102.594C106.667 103.188 106.333 103.993 106.333 104.833C106.333 105.673 106.667 106.479 107.261 107.073C107.855 107.666 108.66 108 109.5 108H115.833C116.673 108 117.479 107.666 118.073 107.073C118.666 106.479 119 105.673 119 104.833C119 103.993 118.666 103.188 118.073 102.594C117.479 102 116.673 101.667 115.833 101.667Z" fill="#067A46"/>
</g>
<g filter="url(#filter20_d_69_107)">
<path d="M55.6666 54.1667C55.6666 55.0065 56.0003 55.812 56.5941 56.4058C57.188 56.9997 57.9934 57.3333 58.8333 57.3333C59.6731 57.3333 60.4786 56.9997 61.0725 56.4058C61.6663 55.812 62 55.0065 62 54.1667C62.0049 49.9689 63.6746 45.9445 66.6429 42.9763C69.6111 40.008 73.6355 38.3383 77.8333 38.3333C78.6731 38.3333 79.4786 37.9997 80.0725 37.4058C80.6663 36.812 81 36.0065 81 35.1667C81 34.3268 80.6663 33.5214 80.0725 32.9275C79.4786 32.3336 78.6731 32 77.8333 32C71.9564 32.0069 66.3222 34.3445 62.1667 38.5C58.0111 42.6556 55.6735 48.2898 55.6666 54.1667Z" fill="#067A46"/>
</g>
<g filter="url(#filter21_d_69_107)">
<path d="M191.833 127H172.833C171.993 127 171.188 127.334 170.594 127.927C170 128.521 169.667 129.327 169.667 130.167C169.667 131.007 170 131.812 170.594 132.406C171.188 133 171.993 133.333 172.833 133.333H191.833C192.673 133.333 193.479 133 194.072 132.406C194.666 131.812 195 131.007 195 130.167C195 129.327 194.666 128.521 194.072 127.927C193.479 127.334 192.673 127 191.833 127Z" fill="#067A46"/>
</g>
<defs>
<filter id="filter0_d_69_107" x="20" y="89" width="14.3334" height="14.3333" filterUnits="userSpaceOnUse" color-interpolation-filters="sRGB">
<feFlood flood-opacity="0" result="BackgroundImageFix"/>
<feColorMatrix in="SourceAlpha" type="matrix" values="0 0 0 0 0 0 0 0 0 0 0 0 0 0 0 0 0 0 127 0" result="hardAlpha"/>
<feOffset dy="4"/>
<feGaussianBlur stdDeviation="2"/>
<feComposite in2="hardAlpha" operator="out"/>
<feColorMatrix type="matrix" values="0 0 0 0 0 0 0 0 0 0 0 0 0 0 0 0 0 0 0.25 0"/>
<feBlend mode="normal" in2="BackgroundImageFix" result="effect1_dropShadow_69_107"/>
<feBlend mode="normal" in="SourceGraphic" in2="effect1_dropShadow_69_107" result="shape"/>
</filter>
<filter id="filter1_d_69_107" x="26.3334" y="101.667" width="14.3334" height="14.3333" filterUnits="userSpaceOnUse" color-interpolation-filters="sRGB">
<feFlood flood-opacity="0" result="BackgroundImageFix"/>
<feColorMatrix in="SourceAlpha" type="matrix" values="0 0 0 0 0 0 0 0 0 0 0 0 0 0 0 0 0 0 127 0" result="hardAlpha"/>
<feOffset dy="4"/>
<feGaussianBlur stdDeviation="2"/>
<feComposite in2="hardAlpha" operator="out"/>
<feColorMatrix type="matrix" values="0 0 0 0 0 0 0 0 0 0 0 0 0 0 0 0 0 0 0.25 0"/>
<feBlend mode="normal" in2="BackgroundImageFix" result="effect1_dropShadow_69_107"/>
<feBlend mode="normal" in="SourceGraphic" in2="effect1_dropShadow_69_107" result="shape"/>
</filter>
<filter id="filter2_d_69_107" x="13.6666" y="108" width="14.3334" height="14.3333" filterUnits="userSpaceOnUse" color-interpolation-filters="sRGB">
<feFlood flood-opacity="0" result="BackgroundImageFix"/>
<feColorMatrix in="SourceAlpha" type="matrix" values="0 0 0 0 0 0 0 0 0 0 0 0 0 0 0 0 0 0 127 0" result="hardAlpha"/>
<feOffset dy="4"/>
<feGaussianBlur stdDeviation="2"/>
<feComposite in2="hardAlpha" operator="out"/>
<feColorMatrix type="matrix" values="0 0 0 0 0 0 0 0 0 0 0 0 0 0 0 0 0 0 0.25 0"/>
<feBlend mode="normal" in2="BackgroundImageFix" result="effect1_dropShadow_69_107"/>
<feBlend mode="normal" in="SourceGraphic" in2="effect1_dropShadow_69_107" result="shape"/>
</filter>
<filter id="filter3_d_69_107" x="32.6666" y="95.3333" width="14.3334" height="14.3333" filterUnits="userSpaceOnUse" color-interpolation-filters="sRGB">
<feFlood flood-opacity="0" result="BackgroundImageFix"/>
<feColorMatrix in="SourceAlpha" type="matrix" values="0 0 0 0 0 0 0 0 0 0 0 0 0 0 0 0 0 0 127 0" result="hardAlpha"/>
<feOffset dy="4"/>
<feGaussianBlur stdDeviation="2"/>
<feComposite in2="hardAlpha" operator="out"/>
<feColorMatrix type="matrix" values="0 0 0 0 0 0 0 0 0 0 0 0 0 0 0 0 0 0 0.25 0"/>
<feBlend mode="normal" in2="BackgroundImageFix" result="effect1_dropShadow_69_107"/>
<feBlend mode="normal" in="SourceGraphic" in2="effect1_dropShadow_69_107" result="shape"/>
</filter>
<filter id="filter4_d_69_107" x="32.6666" y="76.3333" width="14.3334" height="14.3333" filterUnits="userSpaceOnUse" color-interpolation-filters="sRGB">
<feFlood flood-opacity="0" result="BackgroundImageFix"/>
<feColorMatrix in="SourceAlpha" type="matrix" values="0 0 0 0 0 0 0 0 0 0 0 0 0 0 0 0 0 0 127 0" result="hardAlpha"/>
<feOffset dy="4"/>
<feGaussianBlur stdDeviation="2"/>
<feComposite in2="hardAlpha" operator="out"/>
<feColorMatrix type="matrix" values="0 0 0 0 0 0 0 0 0 0 0 0 0 0 0 0 0 0 0.25 0"/>
<feBlend mode="normal" in2="BackgroundImageFix" result="effect1_dropShadow_69_107"/>
<feBlend mode="normal" in="SourceGraphic" in2="effect1_dropShadow_69_107" result="shape"/>
</filter>
<filter id="filter5_d_69_107" x="20" y="133.333" width="14.3334" height="14.3333" filterUnits="userSpaceOnUse" color-interpolation-filters="sRGB">
<feFlood flood-opacity="0" result="BackgroundImageFix"/>
<feColorMatrix in="SourceAlpha" type="matrix" values="0 0 0 0 0 0 0 0 0 0 0 0 0 0 0 0 0 0 127 0" result="hardAlpha"/>
<feOffset dy="4"/>
<feGaussianBlur stdDeviation="2"/>
<feComposite in2="hardAlpha" operator="out"/>
<feColorMatrix type="matrix" values="0 0 0 0 0 0 0 0 0 0 0 0 0 0 0 0 0 0 0.25 0"/>
<feBlend mode="normal" in2="BackgroundImageFix" result="effect1_dropShadow_69_107"/>
<feBlend mode="normal" in="SourceGraphic" in2="effect1_dropShadow_69_107" result="shape"/>
</filter>
<filter id="filter6_d_69_107" x="26.3334" y="146" width="14.3334" height="14.3333" filterUnits="userSpaceOnUse" color-interpolation-filters="sRGB">
<feFlood flood-opacity="0" result="BackgroundImageFix"/>
<feColorMatrix in="SourceAlpha" type="matrix" values="0 0 0 0 0 0 0 0 0 0 0 0 0 0 0 0 0 0 127 0" result="hardAlpha"/>
<feOffset dy="4"/>
<feGaussianBlur stdDeviation="2"/>
<feComposite in2="hardAlpha" operator="out"/>
<feColorMatrix type="matrix" values="0 0 0 0 0 0 0 0 0 0 0 0 0 0 0 0 0 0 0.25 0"/>
<feBlend mode="normal" in2="BackgroundImageFix" result="effect1_dropShadow_69_107"/>
<feBlend mode="normal" in="SourceGraphic" in2="effect1_dropShadow_69_107" result="shape"/>
</filter>
<filter id="filter7_d_69_107" x="13.6666" y="152.333" width="14.3334" height="14.3333" filterUnits="userSpaceOnUse" color-interpolation-filters="sRGB">
<feFlood flood-opacity="0" result="BackgroundImageFix"/>
<feColorMatrix in="SourceAlpha" type="matrix" values="0 0 0 0 0 0 0 0 0 0 0 0 0 0 0 0 0 0 127 0" result="hardAlpha"/>
<feOffset dy="4"/>
<feGaussianBlur stdDeviation="2"/>
<feComposite in2="hardAlpha" operator="out"/>
<feColorMatrix type="matrix" values="0 0 0 0 0 0 0 0 0 0 0 0 0 0 0 0 0 0 0.25 0"/>
<feBlend mode="normal" in2="BackgroundImageFix" result="effect1_dropShadow_69_107"/>
<feBlend mode="normal" in="SourceGraphic" in2="effect1_dropShadow_69_107" result="shape"/>
</filter>
<filter id="filter8_d_69_107" x="1" y="161.833" width="14.3334" height="14.3333" filterUnits="userSpaceOnUse" color-interpolation-filters="sRGB">
<feFlood flood-opacity="0" result="BackgroundImageFix"/>
<feColorMatrix in="SourceAlpha" type="matrix" values="0 0 0 0 0 0 0 0 0 0 0 0 0 0 0 0 0 0 127 0" result="hardAlpha"/>
<feOffset dy="4"/>
<feGaussianBlur stdDeviation="2"/>
<feComposite in2="hardAlpha" operator="out"/>
<feColorMatrix type="matrix" values="0 0 0 0 0 0 0 0 0 0 0 0 0 0 0 0 0 0 0.25 0"/>
<feBlend mode="normal" in2="BackgroundImageFix" result="effect1_dropShadow_69_107"/>
<feBlend mode="normal" in="SourceGraphic" in2="effect1_dropShadow_69_107" result="shape"/>
</filter>
<filter id="filter9_d_69_107" x="13.6666" y="120.667" width="14.3334" height="14.3333" filterUnits="userSpaceOnUse" color-interpolation-filters="sRGB">
<feFlood flood-opacity="0" result="BackgroundImageFix"/>
<feColorMatrix in="SourceAlpha" type="matrix" values="0 0 0 0 0 0 0 0 0 0 0 0 0 0 0 0 0 0 127 0" result="hardAlpha"/>
<feOffset dy="4"/>
<feGaussianBlur stdDeviation="2"/>
<feComposite in2="hardAlpha" operator="out"/>
<feColorMatrix type="matrix" values="0 0 0 0 0 0 0 0 0 0 0 0 0 0 0 0 0 0 0.25 0"/>
<feBlend mode="normal" in2="BackgroundImageFix" result="effect1_dropShadow_69_107"/>
<feBlend mode="normal" in="SourceGraphic" in2="effect1_dropShadow_69_107" result="shape"/>
</filter>
<filter id="filter10_d_69_107" x="1" y="130.167" width="14.3334" height="14.3333" filterUnits="userSpaceOnUse" color-interpolation-filters="sRGB">
<feFlood flood-opacity="0" result="BackgroundImageFix"/>
<feColorMatrix in="SourceAlpha" type="matrix" values="0 0 0 0 0 0 0 0 0 0 0 0 0 0 0 0 0 0 127 0" result="hardAlpha"/>
<feOffset dy="4"/>
<feGaussianBlur stdDeviation="2"/>
<feComposite in2="hardAlpha" operator="out"/>
<feColorMatrix type="matrix" values="0 0 0 0 0 0 0 0 0 0 0 0 0 0 0 0 0 0 0.25 0"/>
<feBlend mode="normal" in2="BackgroundImageFix" result="effect1_dropShadow_69_107"/>
<feBlend mode="normal" in="SourceGraphic" in2="effect1_dropShadow_69_107" result="shape"/>
</filter>
<filter id="filter11_d_69_107" x="32.6666" y="139.667" width="14.3334" height="14.3333" filterUnits="userSpaceOnUse" color-interpolation-filters="sRGB">
<feFlood flood-opacity="0" result="BackgroundImageFix"/>
<feColorMatrix in="SourceAlpha" type="matrix" values="0 0 0 0 0 0 0 0 0 0 0 0 0 0 0 0 0 0 127 0" result="hardAlpha"/>
<feOffset dy="4"/>
<feGaussianBlur stdDeviation="2"/>
<feComposite in2="hardAlpha" operator="out"/>
<feColorMatrix type="matrix" values="0 0 0 0 0 0 0 0 0 0 0 0 0 0 0 0 0 0 0.25 0"/>
<feBlend mode="normal" in2="BackgroundImageFix" result="effect1_dropShadow_69_107"/>
<feBlend mode="normal" in="SourceGraphic" in2="effect1_dropShadow_69_107" result="shape"/>
</filter>
<filter id="filter12_d_69_107" x="32.6666" y="120.667" width="14.3334" height="14.3333" filterUnits="userSpaceOnUse" color-interpolation-filters="sRGB">
<feFlood flood-opacity="0" result="BackgroundImageFix"/>
<feColorMatrix in="SourceAlpha" type="matrix" values="0 0 0 0 0 0 0 0 0 0 0 0 0 0 0 0 0 0 127 0" result="hardAlpha"/>
<feOffset dy="4"/>
<feGaussianBlur stdDeviation="2"/>
<feComposite in2="hardAlpha" operator="out"/>
<feColorMatrix type="matrix" values="0 0 0 0 0 0 0 0 0 0 0 0 0 0 0 0 0 0 0.25 0"/>
<feBlend mode="normal" in2="BackgroundImageFix" result="effect1_dropShadow_69_107"/>
<feBlend mode="normal" in="SourceGraphic" in2="effect1_dropShadow_69_107" result="shape"/>
</filter>
<filter id="filter13_d_69_107" x="96" y="70" width="33.3334" height="33.3333" filterUnits="userSpaceOnUse" color-interpolation-filters="sRGB">
<feFlood flood-opacity="0" result="BackgroundImageFix"/>
<feColorMatrix in="SourceAlpha" type="matrix" values="0 0 0 0 0 0 0 0 0 0 0 0 0 0 0 0 0 0 127 0" result="hardAlpha"/>
<feOffset dy="4"/>
<feGaussianBlur stdDeviation="2"/>
<feComposite in2="hardAlpha" operator="out"/>
<feColorMatrix type="matrix" values="0 0 0 0 0 0 0 0 0 0 0 0 0 0 0 0 0 0 0.25 0"/>
<feBlend mode="normal" in2="BackgroundImageFix" result="effect1_dropShadow_69_107"/>
<feBlend mode="normal" in="SourceGraphic" in2="effect1_dropShadow_69_107" result="shape"/>
</filter>
<filter id="filter14_d_69_107" x="127.667" y="63.6667" width="14.3334" height="46" filterUnits="userSpaceOnUse" color-interpolation-filters="sRGB">
<feFlood flood-opacity="0" result="BackgroundImageFix"/>
<feColorMatrix in="SourceAlpha" type="matrix" values="0 0 0 0 0 0 0 0 0 0 0 0 0 0 0 0 0 0 127 0" result="hardAlpha"/>
<feOffset dy="4"/>
<feGaussianBlur stdDeviation="2"/>
<feComposite in2="hardAlpha" operator="out"/>
<feColorMatrix type="matrix" values="0 0 0 0 0 0 0 0 0 0 0 0 0 0 0 0 0 0 0.25 0"/>
<feBlend mode="normal" in2="BackgroundImageFix" result="effect1_dropShadow_69_107"/>
<feBlend mode="normal" in="SourceGraphic" in2="effect1_dropShadow_69_107" result="shape"/>
</filter>
<filter id="filter15_d_69_107" x="140.333" y="70" width="14.3334" height="33.3333" filterUnits="userSpaceOnUse" color-interpolation-filters="sRGB">
<feFlood flood-opacity="0" result="BackgroundImageFix"/>
<feColorMatrix in="SourceAlpha" type="matrix" values="0 0 0 0 0 0 0 0 0 0 0 0 0 0 0 0 0 0 127 0" result="hardAlpha"/>
<feOffset dy="4"/>
<feGaussianBlur stdDeviation="2"/>
<feComposite in2="hardAlpha" operator="out"/>
<feColorMatrix type="matrix" values="0 0 0 0 0 0 0 0 0 0 0 0 0 0 0 0 0 0 0.25 0"/>
<feBlend mode="normal" in2="BackgroundImageFix" result="effect1_dropShadow_69_107"/>
<feBlend mode="normal" in="SourceGraphic" in2="effect1_dropShadow_69_107" result="shape"/>
</filter>
<filter id="filter16_d_69_107" x="159.333" y="57.3333" width="27" height="27" filterUnits="userSpaceOnUse" color-interpolation-filters="sRGB">
<feFlood flood-opacity="0" result="BackgroundImageFix"/>
<feColorMatrix in="SourceAlpha" type="matrix" values="0 0 0 0 0 0 0 0 0 0 0 0 0 0 0 0 0 0 127 0" result="hardAlpha"/>
<feOffset dy="4"/>
<feGaussianBlur stdDeviation="2"/>
<feComposite in2="hardAlpha" operator="out"/>
<feColorMatrix type="matrix" values="0 0 0 0 0 0 0 0 0 0 0 0 0 0 0 0 0 0 0.25 0"/>
<feBlend mode="normal" in2="BackgroundImageFix" result="effect1_dropShadow_69_107"/>
<feBlend mode="normal" in="SourceGraphic" in2="effect1_dropShadow_69_107" result="shape"/>
</filter>
<filter id="filter17_d_69_107" x="172" y="82.6667" width="14.3334" height="20.6667" filterUnits="userSpaceOnUse" color-interpolation-filters="sRGB">
<feFlood flood-opacity="0" result="BackgroundImageFix"/>
<feColorMatrix in="SourceAlpha" type="matrix" values="0 0 0 0 0 0 0 0 0 0 0 0 0 0 0 0 0 0 127 0" result="hardAlpha"/>
<feOffset dy="4"/>
<feGaussianBlur stdDeviation="2"/>
<feComposite in2="hardAlpha" operator="out"/>
<feColorMatrix type="matrix" values="0 0 0 0 0 0 0 0 0 0 0 0 0 0 0 0 0 0 0.25 0"/>
<feBlend mode="normal" in2="BackgroundImageFix" result="effect1_dropShadow_69_107"/>
<feBlend mode="normal" in="SourceGraphic" in2="effect1_dropShadow_69_107" result="shape"/>
</filter>
<filter id="filter18_d_69_107" x="77" y="82.6667" width="27" height="33.3333" filterUnits="userSpaceOnUse" color-interpolation-filters="sRGB">
<feFlood flood-opacity="0" result="BackgroundImageFix"/>
<feColorMatrix in="SourceAlpha" type="matrix" values="0 0 0 0 0 0 0 0 0 0 0 0 0 0 0 0 0 0 127 0" result="hardAlpha"/>
<feOffset dy="4"/>
<feGaussianBlur stdDeviation="2"/>
<feComposite in2="hardAlpha" operator="out"/>
<feColorMatrix type="matrix" values="0 0 0 0 0 0 0 0 0 0 0 0 0 0 0 0 0 0 0.25 0"/>
<feBlend mode="normal" in2="BackgroundImageFix" result="effect1_dropShadow_69_107"/>
<feBlend mode="normal" in="SourceGraphic" in2="effect1_dropShadow_69_107" result="shape"/>
</filter>
<filter id="filter19_d_69_107" x="102.333" y="101.667" width="20.6666" height="14.3333" filterUnits="userSpaceOnUse" color-interpolation-filters="sRGB">
<feFlood flood-opacity="0" result="BackgroundImageFix"/>
<feColorMatrix in="SourceAlpha" type="matrix" values="0 0 0 0 0 0 0 0 0 0 0 0 0 0 0 0 0 0 127 0" result="hardAlpha"/>
<feOffset dy="4"/>
<feGaussianBlur stdDeviation="2"/>
<feComposite in2="hardAlpha" operator="out"/>
<feColorMatrix type="matrix" values="0 0 0 0 0 0 0 0 0 0 0 0 0 0 0 0 0 0 0.25 0"/>
<feBlend mode="normal" in2="BackgroundImageFix" result="effect1_dropShadow_69_107"/>
<feBlend mode="normal" in="SourceGraphic" in2="effect1_dropShadow_69_107" result="shape"/>
</filter>
<filter id="filter20_d_69_107" x="51.6666" y="32" width="33.3334" height="33.3333" filterUnits="userSpaceOnUse" color-interpolation-filters="sRGB">
<feFlood flood-opacity="0" result="BackgroundImageFix"/>
<feColorMatrix in="SourceAlpha" type="matrix" values="0 0 0 0 0 0 0 0 0 0 0 0 0 0 0 0 0 0 127 0" result="hardAlpha"/>
<feOffset dy="4"/>
<feGaussianBlur stdDeviation="2"/>
<feComposite in2="hardAlpha" operator="out"/>
<feColorMatrix type="matrix" values="0 0 0 0 0 0 0 0 0 0 0 0 0 0 0 0 0 0 0.25 0"/>
<feBlend mode="normal" in2="BackgroundImageFix" result="effect1_dropShadow_69_107"/>
<feBlend mode="normal" in="SourceGraphic" in2="effect1_dropShadow_69_107" result="shape"/>
</filter>
<filter id="filter21_d_69_107" x="165.667" y="127" width="33.3334" height="14.3333" filterUnits="userSpaceOnUse" color-interpolation-filters="sRGB">
<feFlood flood-opacity="0" result="BackgroundImageFix"/>
<feColorMatrix in="SourceAlpha" type="matrix" values="0 0 0 0 0 0 0 0 0 0 0 0 0 0 0 0 0 0 127 0" result="hardAlpha"/>
<feOffset dy="4"/>
<feGaussianBlur stdDeviation="2"/>
<feComposite in2="hardAlpha" operator="out"/>
<feColorMatrix type="matrix" values="0 0 0 0 0 0 0 0 0 0 0 0 0 0 0 0 0 0 0.25 0"/>
<feBlend mode="normal" in2="BackgroundImageFix" result="effect1_dropShadow_69_107"/>
<feBlend mode="normal" in="SourceGraphic" in2="effect1_dropShadow_69_107" result="shape"/>
</filter>
</defs>
</svg>
