<svg xmlns="http://www.w3.org/2000/svg" width="24" height="24" fill="none" viewBox="0 0 24 24"><path stroke="#000" stroke-linecap="round" stroke-linejoin="round" stroke-width="2" d="M12.2245 11.4028C12.1185 11.3922 11.9913 11.3922 11.8747 11.4028C9.35168 11.318 7.34814 9.25089 7.34814 6.70672C7.34814 4.10954 9.44709 2 12.0549 2C14.6521 2 16.7616 4.10954 16.7616 6.70672C16.751 9.25089 14.7475 11.318 12.2245 11.4028Z"/><path stroke="#000" stroke-linecap="round" stroke-linejoin="round" stroke-width="2" d="M6.92403 15.3146C4.35866 17.0319 4.35866 19.8305 6.92403 21.5372C9.83923 23.4877 14.6202 23.4877 17.5354 21.5372C20.1008 19.8199 20.1008 17.0213 17.5354 15.3146C14.6308 13.3746 9.84983 13.3746 6.92403 15.3146Z"/></svg>