<svg width="200" height="200" viewBox="0 0 200 200" fill="none" xmlns="http://www.w3.org/2000/svg">
<path d="M101.871 95.0237C100.988 94.9354 99.9276 94.9354 98.9559 95.0237C77.9308 94.317 61.2346 77.0908 61.2346 55.8894C61.2346 34.2463 78.7258 16.6667 100.458 16.6667C122.101 16.6667 139.68 34.2463 139.68 55.8894C139.592 77.0908 122.896 94.317 101.871 95.0237Z" fill="#067A46"/>
<path d="M57.7003 127.621C36.3222 141.932 36.3222 165.254 57.7003 179.476C81.9937 195.731 121.835 195.731 146.128 179.476C167.506 165.165 167.506 141.844 146.128 127.621C121.923 111.455 82.082 111.455 57.7003 127.621Z" fill="#067A46"/>
</svg>
