<svg width="50" height="50" viewBox="0 0 50 50" fill="none" xmlns="http://www.w3.org/2000/svg">
<path fill-rule="evenodd" clip-rule="evenodd" d="M25 0C38.7978 0 50 11.2022 50 25C50 38.7978 38.7978 50 25 50C11.2022 50 0 38.7978 0 25C0 11.2022 11.2022 0 25 0ZM25 2.17391C37.5978 2.17391 47.8261 12.4022 47.8261 25C47.8261 37.5978 37.5978 47.8261 25 47.8261C12.4022 47.8261 2.17391 37.5978 2.17391 25C2.17391 12.4022 12.4022 2.17391 25 2.17391ZM10.8696 23.913H39.1304V26.087H10.8696V23.913Z" fill="black"/>
</svg>
