<svg width="200" height="200" viewBox="0 0 200 200" fill="none" xmlns="http://www.w3.org/2000/svg">
<path d="M108.01 78.2999C107.069 71.7428 103.824 65.9203 98.3648 60.993C91.9871 55.2381 92.08 51.6957 92.2932 44.6636C95.082 42.4216 96.6759 39.7193 96.6759 36.7469V14.3797C96.6759 5.26389 71.5199 5 68.6509 5C65.7819 5 40.6259 5.26389 40.6259 14.3797V36.7448C40.6259 39.7151 42.2198 42.4194 45.0086 44.6614C45.2218 51.6936 45.3147 55.236 38.937 60.9909C33.4777 65.9182 30.2308 71.7407 29.2913 78.2978C29.2723 78.4308 29.2618 78.5638 29.2618 78.6968L29 173.306C29 187.712 49.5263 194.65 68.5981 194.998C68.615 194.998 68.634 194.998 68.6509 194.998C68.6678 194.998 68.6868 194.998 68.7037 194.998C87.7754 194.65 108.302 187.712 108.302 173.298L108.04 78.6989C108.04 78.5638 108.029 78.4308 108.01 78.2999ZM49.5453 40.9058C49.4651 40.8467 49.3807 40.7897 49.2941 40.739C47.3814 39.4153 46.3576 37.9946 46.3576 36.7448V20.5568C47.4659 21.0022 48.4792 21.2957 49.1062 21.4772C54.1982 22.9487 61.1375 23.7593 68.6488 23.7593C76.0968 23.7593 83.2513 22.917 88.2779 21.4519C88.888 21.2746 89.8654 20.9874 90.94 20.5568V36.7448C90.94 37.9756 89.9478 39.3731 88.0879 40.6799C87.9359 40.7622 87.7923 40.8593 87.6593 40.967C83.986 43.3547 77.3867 45.3666 68.6467 45.3666C59.837 45.3666 53.1997 43.3209 49.5453 40.9058ZM68.6509 10.7338C80.8362 10.7338 88.3476 12.9061 90.5093 14.3628C89.933 14.7449 88.8036 15.3297 86.6734 15.9503C82.1472 17.2719 75.5774 18.0277 68.6509 18.0277C61.7645 18.0277 55.2221 17.2782 50.7001 15.9693C48.6312 15.3698 47.4237 14.7723 46.7946 14.3607C48.9542 12.904 56.4656 10.7338 68.6509 10.7338ZM42.7771 65.2469C49.767 58.941 50.7888 53.8173 50.8057 47.978C55.5852 49.9456 61.7497 51.0982 68.6509 51.0982C75.5521 51.0982 81.7166 49.9456 86.4961 47.978C86.513 53.8152 87.5348 58.9389 94.5247 65.2469C98.9707 69.2601 101.519 73.7336 102.308 78.9206L102.336 88.562C101.434 88.4628 100.508 88.334 99.5533 88.201C95.3586 87.6141 90.6022 86.947 86.2913 89.0243C83.0064 90.6077 78.8919 89.8392 74.5367 89.0286C74.1039 88.9483 73.669 88.866 73.2341 88.7879C70.7789 88.3424 68.596 88.9124 66.6707 89.417C64.0993 90.0904 62.0684 90.6224 59.2839 89.094C54.0821 86.2398 47.7298 87.7471 44.4069 88.8977C41.2993 89.9743 38.3037 89.8962 34.9681 89.2798L34.9977 78.9206C35.783 73.7336 38.3311 69.2601 42.7771 65.2469ZM68.6509 189.266C52.199 188.954 34.7338 183.26 34.7338 173.315L34.9491 95.0938C38.4873 95.6532 42.2578 95.706 46.2794 94.3127C50.4067 92.8813 54.1412 92.8117 56.5226 94.1163C58.8511 95.3936 60.977 95.8052 62.877 95.8052C64.8847 95.8052 66.6432 95.345 68.1189 94.9587C69.6642 94.5533 70.9984 94.2029 72.2039 94.4246C72.6303 94.5027 73.0568 94.5808 73.4811 94.661C78.552 95.6068 83.7981 96.5842 88.7761 94.1881C91.5227 92.8644 95.0356 93.3563 98.7553 93.8778C99.9354 94.0424 101.137 94.2092 102.348 94.3253L102.566 173.308C102.568 183.26 85.1028 188.954 68.6509 189.266ZM48.1034 148.697C51.1181 148.697 53.5691 146.244 53.5691 143.231C53.5691 140.217 51.116 137.766 48.1034 137.766C45.0909 137.766 42.6378 140.219 42.6378 143.231C42.6378 146.244 45.0888 148.697 48.1034 148.697ZM48.1034 142.963C48.2554 142.963 48.3694 143.077 48.3694 143.229C48.3694 143.381 48.2554 143.495 48.1034 143.495C47.9514 143.495 47.8374 143.381 47.8374 143.229C47.8374 143.079 47.9514 142.963 48.1034 142.963ZM68.9992 146.917C73.1391 146.917 76.5084 143.548 76.5084 139.408C76.5084 135.268 73.1391 131.899 68.9992 131.899C64.8593 131.899 61.49 135.268 61.49 139.408C61.49 143.55 64.8572 146.917 68.9992 146.917ZM68.9992 137.633C69.9788 137.633 70.7747 138.431 70.7747 139.41C70.7747 140.39 69.9788 141.186 68.9992 141.186C68.0197 141.186 67.2238 140.388 67.2238 139.41C67.2217 138.429 68.0197 137.633 68.9992 137.633ZM87.5812 147.92C93.1546 147.92 97.6892 143.385 97.6892 137.812C97.6892 132.239 93.1546 127.702 87.5812 127.702C82.0079 127.702 77.4732 132.237 77.4732 137.812C77.4732 143.385 82.0079 147.92 87.5812 147.92ZM87.5812 133.434C89.9942 133.434 91.9576 135.397 91.9576 137.81C91.9576 140.223 89.9942 142.186 87.5812 142.186C85.1682 142.186 83.2049 140.223 83.2049 137.81C83.2049 135.397 85.1682 133.434 87.5812 133.434ZM89.3292 155.425C84.3808 155.425 80.3549 159.451 80.3549 164.399C80.3549 169.348 84.3808 173.374 89.3292 173.374C94.2777 173.374 98.3036 169.348 98.3036 164.399C98.3036 159.453 94.2777 155.425 89.3292 155.425ZM89.3292 167.642C87.5411 167.642 86.0866 166.188 86.0866 164.399C86.0866 162.611 87.5411 161.159 89.3292 161.159C91.1173 161.159 92.5719 162.613 92.5719 164.399C92.5719 166.188 91.1173 167.642 89.3292 167.642ZM68.2076 166.918C63.5969 166.918 59.8454 170.669 59.8454 175.282C59.8454 179.893 63.5969 183.646 68.2076 183.646C72.8182 183.646 76.5697 179.895 76.5697 175.282C76.5718 170.669 72.8203 166.918 68.2076 166.918ZM68.2076 177.911C66.7572 177.911 65.5771 176.73 65.5771 175.28C65.5771 173.83 66.7572 172.65 68.2076 172.65C69.6579 172.65 70.838 173.83 70.838 175.28C70.838 176.73 69.6579 177.911 68.2076 177.911ZM49.1062 149.607C43.5329 149.607 38.9982 154.142 38.9982 159.715C38.9982 165.288 43.5329 169.823 49.1062 169.823C54.6796 169.823 59.2142 165.288 59.2142 159.715C59.2142 154.142 54.6817 149.607 49.1062 149.607ZM49.1062 164.091C46.6932 164.091 44.7299 162.128 44.7299 159.715C44.7299 157.302 46.6932 155.339 49.1062 155.339C51.5192 155.339 53.4826 157.302 53.4826 159.715C53.4826 162.128 51.5192 164.091 49.1062 164.091ZM65.1992 156.417C65.1992 159.432 67.6502 161.883 70.6649 161.883C73.6796 161.883 76.1306 159.43 76.1306 156.417C76.1306 153.403 73.6774 150.952 70.6649 150.952C67.6523 150.952 65.1992 153.403 65.1992 156.417ZM70.933 156.417C70.933 156.569 70.819 156.683 70.667 156.683C70.515 156.683 70.401 156.569 70.401 156.417C70.401 156.265 70.515 156.151 70.667 156.151C70.819 156.151 70.933 156.265 70.933 156.417ZM53.9576 124.417C50.9429 124.417 48.4919 126.87 48.4919 129.883C48.4919 132.897 50.9429 135.348 53.9576 135.348C56.9722 135.348 59.4232 132.895 59.4232 129.883C59.4253 126.868 56.9722 124.417 53.9576 124.417ZM53.9576 130.149C53.8056 130.149 53.6916 130.035 53.6916 129.883C53.6916 129.731 53.8056 129.617 53.9576 129.617C54.1096 129.617 54.2236 129.731 54.2236 129.883C54.2236 130.035 54.1096 130.149 53.9576 130.149ZM170.204 64.3539C170.204 54.9362 167.609 46.0463 162.895 39.3203C157.966 32.2861 151.311 28.4101 144.157 28.4101C137.002 28.4101 130.348 32.284 125.419 39.3203C120.707 46.0442 118.11 54.9362 118.11 64.3539C118.11 78.0613 123.698 90.4789 132.461 96.5146C134.127 120.82 131.739 145.568 129.43 169.517C129.214 171.742 129.001 173.967 128.788 176.194C128.309 181.236 129.955 186.239 133.306 189.925C136.24 193.151 140.184 195 144.125 195C148.259 195 152.365 193.013 155.386 189.547C158.633 185.823 160.115 180.913 159.45 176.074C155.833 149.761 154.666 122.971 155.975 96.428C164.664 90.3628 170.204 77.9832 170.204 64.3539ZM151.704 92.3726C150.891 92.8644 150.374 93.7258 150.323 94.6737C148.879 122.053 150.038 149.702 153.769 176.855C154.208 180.051 153.222 183.304 151.064 185.779C149.16 187.962 146.566 189.266 144.125 189.266C141.795 189.266 139.396 188.101 137.549 186.066C135.282 183.573 134.169 180.172 134.496 176.735C134.708 174.51 134.923 172.287 135.136 170.064C137.515 145.408 139.975 119.914 138.077 94.661C138.007 93.73 137.488 92.8919 136.688 92.4148C128.885 87.7577 123.844 76.7419 123.844 64.3497C123.844 47.693 132.957 34.1397 144.157 34.1397C155.356 34.1397 164.47 47.6909 164.47 64.3497C164.47 76.6891 159.46 87.688 151.704 92.3726ZM157.182 80.9113C153.798 85.8302 149.173 88.5409 144.157 88.5409C136.903 88.5409 130.443 82.6973 127.699 73.6554C127.238 72.1397 128.093 70.5394 129.609 70.0792C131.125 69.6211 132.725 70.4761 133.185 71.9898C135.18 78.5617 139.489 82.8071 144.159 82.8071C147.231 82.8071 150.18 80.981 152.462 77.6623C153.359 76.3577 155.143 76.0283 156.448 76.9256C157.75 77.8207 158.08 79.6067 157.182 80.9113Z" fill="black"/>
</svg>
