<svg xmlns="http://www.w3.org/2000/svg" width="200" height="200" fill="none" viewBox="0 0 200 200"><rect width="88" height="69" x="56" y="102" fill="#D2F895"/><path fill="#067A46" d="M127.763 34.207H71.7349C68.4209 34.207 65.6814 31.5116 65.6814 28.1535V11.0535C65.6814 7.73954 68.3768 5 71.7349 5H127.763C131.077 5 133.816 7.69535 133.816 11.0535V28.1977C133.772 31.5116 131.077 34.207 127.763 34.207ZM71.7349 9.33023C70.807 9.33023 70.0116 10.0814 70.0116 11.0535V28.1977C70.0116 29.1256 70.7628 29.9209 71.7349 29.9209H127.763C128.691 29.9209 129.486 29.1698 129.486 28.1977V11.0535C129.486 10.1256 128.735 9.33023 127.763 9.33023H71.7349Z"/><path fill="#067A46" d="M123.167 45.1206H76.3302C73.7674 45.1206 71.6907 43.0439 71.6907 40.4811V32.0857C71.6907 30.8927 72.6628 29.9206 73.8558 29.9206C75.0488 29.9206 76.0209 30.8927 76.0209 32.0857V40.4811C76.0209 40.6578 76.1535 40.8345 76.3744 40.8345H123.167C123.344 40.8345 123.521 40.702 123.521 40.4811V32.0857C123.521 30.8927 124.493 29.9206 125.686 29.9206C126.879 29.9206 127.851 30.8927 127.851 32.0857V40.4811C127.851 43.0439 125.73 45.1206 123.167 45.1206Z"/><path fill="#067A46" d="M138.456 195.214H61.0419C56.6233 195.214 53 191.59 53 187.172V84.3065C53 80.7274 54.1047 77.2809 56.2256 74.3204C68.0674 57.7507 74.5628 42.5065 74.6512 42.3297C75.093 41.2251 76.3744 40.6949 77.4791 41.1809C78.5837 41.6228 79.114 42.9042 78.6279 44.0088C78.3628 44.6274 71.9116 59.8716 59.7605 76.8391C58.1698 79.0484 57.3302 81.6112 57.3302 84.3065V187.172C57.3302 189.204 59.0093 190.883 61.0419 190.883H138.456C140.488 190.883 142.167 189.204 142.167 187.172V84.3065C142.167 81.6112 141.328 79.0484 139.737 76.8391C127.586 59.8716 121.135 44.6716 120.87 44.0088C120.428 42.9042 120.914 41.6228 122.019 41.1809C123.123 40.7391 124.405 41.2251 124.847 42.3297C124.891 42.4623 131.386 57.7507 143.272 74.3204C145.393 77.2809 146.498 80.7274 146.498 84.3065V187.172C146.498 191.59 142.874 195.214 138.456 195.214Z"/><path fill="#067A46" d="M81.4998 20.5093C80.3068 20.5093 79.3347 19.5372 79.3347 18.3442V7.16512C79.3347 5.97209 80.3068 5 81.4998 5C82.6929 5 83.665 5.97209 83.665 7.16512V18.3442C83.665 19.5372 82.6929 20.5093 81.4998 20.5093Z"/><path fill="#067A46" d="M93.651 20.5093C92.4579 20.5093 91.4858 19.5372 91.4858 18.3442V7.16512C91.4858 5.97209 92.4579 5 93.651 5C94.844 5 95.8161 5.97209 95.8161 7.16512V18.3442C95.8161 19.5372 94.844 20.5093 93.651 20.5093Z"/><path fill="#067A46" d="M105.847 20.5093C104.653 20.5093 103.681 19.5372 103.681 18.3442V7.16512C103.681 5.97209 104.653 5 105.847 5C107.04 5 108.012 5.97209 108.012 7.16512V18.3442C108.012 19.5372 107.04 20.5093 105.847 20.5093Z"/><path fill="#067A46" d="M117.998 20.5093C116.805 20.5093 115.833 19.5372 115.833 18.3442V7.16512C115.833 5.97209 116.805 5 117.998 5C119.191 5 120.163 5.97209 120.163 7.16512V18.3442C120.163 19.5372 119.191 20.5093 117.998 20.5093Z"/><path fill="#067A46" d="M144.333 173.569H55.1651C53.9721 173.569 53 172.597 53 171.404C53 170.211 53.9721 169.239 55.1651 169.239H144.333C145.526 169.239 146.498 170.211 146.498 171.404C146.498 172.597 145.526 173.569 144.333 173.569Z"/><path fill="#067A46" d="M144.333 102.739H55.1651C53.9721 102.739 53 101.767 53 100.574C53 99.3812 53.9721 98.4091 55.1651 98.4091H144.333C145.526 98.4091 146.498 99.3812 146.498 100.574C146.498 101.767 145.526 102.739 144.333 102.739Z"/><g filter="url(#filter0_d_69_74)"><path fill="#067A46" d="M104.83 157.574H94.7116C92.7674 157.574 91.1767 155.984 91.1767 154.039V144.584H81.7209C79.7767 144.584 78.186 142.993 78.186 141.049V130.93C78.186 128.986 79.7767 127.395 81.7209 127.395H91.1767V117.939C91.1767 115.995 92.7674 114.404 94.7116 114.404H104.83C106.774 114.404 108.365 115.995 108.365 117.939V127.395H117.821C119.765 127.395 121.356 128.986 121.356 130.93V141.093C121.356 143.037 119.765 144.628 117.821 144.628H108.365V154.084C108.321 155.984 106.73 157.574 104.83 157.574ZM95.507 153.244H104.035V142.418C104.035 141.225 105.007 140.253 106.2 140.253H116.981V131.725H106.156C104.963 131.725 103.991 130.753 103.991 129.56V118.735H95.4628V129.604C95.4628 130.797 94.4907 131.77 93.2977 131.77H82.5163V140.297H93.3419C94.5349 140.297 95.507 141.27 95.507 142.463V153.244Z"/></g><path fill="#067A46" d="M93 129.5L80.5 130.5V141.5L92 143L94.5 155.5L106 153.5L108 143L119 141L118 130.5L107 129L106 117.5L93 117V129.5Z"/><defs><filter id="filter0_d_69_74" width="51.17" height="51.17" x="74.186" y="114.404" color-interpolation-filters="sRGB" filterUnits="userSpaceOnUse"><feFlood flood-opacity="0" result="BackgroundImageFix"/><feColorMatrix in="SourceAlpha" result="hardAlpha" type="matrix" values="0 0 0 0 0 0 0 0 0 0 0 0 0 0 0 0 0 0 127 0"/><feOffset dy="4"/><feGaussianBlur stdDeviation="2"/><feComposite in2="hardAlpha" operator="out"/><feColorMatrix type="matrix" values="0 0 0 0 0 0 0 0 0 0 0 0 0 0 0 0 0 0 0.25 0"/><feBlend in2="BackgroundImageFix" mode="normal" result="effect1_dropShadow_69_74"/><feBlend in="SourceGraphic" in2="effect1_dropShadow_69_74" mode="normal" result="shape"/></filter></defs></svg>