<svg width="200" height="200" viewBox="0 0 200 200" fill="none" xmlns="http://www.w3.org/2000/svg">
<path d="M127.763 34.207H71.7349C68.4209 34.207 65.6814 31.5116 65.6814 28.1535V11.0535C65.6814 7.73954 68.3768 5 71.7349 5H127.763C131.077 5 133.816 7.69535 133.816 11.0535V28.1977C133.772 31.5116 131.077 34.207 127.763 34.207ZM71.7349 9.33023C70.807 9.33023 70.0116 10.0814 70.0116 11.0535V28.1977C70.0116 29.1256 70.7628 29.9209 71.7349 29.9209H127.763C128.691 29.9209 129.486 29.1698 129.486 28.1977V11.0535C129.486 10.1256 128.735 9.33023 127.763 9.33023H71.7349Z" fill="black"/>
<path d="M123.167 45.1205H76.3302C73.7674 45.1205 71.6907 43.0438 71.6907 40.481V32.0856C71.6907 30.8926 72.6628 29.9205 73.8558 29.9205C75.0488 29.9205 76.0209 30.8926 76.0209 32.0856V40.481C76.0209 40.6577 76.1535 40.8345 76.3744 40.8345H123.167C123.344 40.8345 123.521 40.7019 123.521 40.481V32.0856C123.521 30.8926 124.493 29.9205 125.686 29.9205C126.879 29.9205 127.851 30.8926 127.851 32.0856V40.481C127.851 43.0438 125.73 45.1205 123.167 45.1205Z" fill="black"/>
<path d="M138.456 195H61.0419C56.6233 195 53 191.377 53 186.958V84.0932C53 80.5142 54.1047 77.0677 56.2256 74.1072C68.0674 57.5374 74.5628 42.2932 74.6512 42.1165C75.093 41.0118 76.3744 40.4816 77.4791 40.9677C78.5837 41.4095 79.114 42.6909 78.6279 43.7956C78.3628 44.4142 71.9116 59.6584 59.7605 76.6258C58.1698 78.8351 57.3302 81.3979 57.3302 84.0932V186.958C57.3302 188.991 59.0093 190.67 61.0419 190.67H138.456C140.488 190.67 142.167 188.991 142.167 186.958V84.0932C142.167 81.3979 141.328 78.8351 139.737 76.6258C127.586 59.6584 121.135 44.4584 120.87 43.7956C120.428 42.6909 120.914 41.4095 122.019 40.9677C123.123 40.5258 124.405 41.0118 124.847 42.1165C124.891 42.2491 131.386 57.5374 143.272 74.1072C145.393 77.0677 146.498 80.5142 146.498 84.0932V186.958C146.498 191.377 142.874 195 138.456 195Z" fill="black"/>
<path d="M81.4998 20.5093C80.3068 20.5093 79.3347 19.5372 79.3347 18.3442V7.16512C79.3347 5.97209 80.3068 5 81.4998 5C82.6929 5 83.665 5.97209 83.665 7.16512V18.3442C83.665 19.5372 82.6929 20.5093 81.4998 20.5093Z" fill="black"/>
<path d="M93.651 20.5093C92.4579 20.5093 91.4858 19.5372 91.4858 18.3442V7.16512C91.4858 5.97209 92.4579 5 93.651 5C94.844 5 95.8161 5.97209 95.8161 7.16512V18.3442C95.8161 19.5372 94.844 20.5093 93.651 20.5093Z" fill="black"/>
<path d="M105.847 20.5093C104.653 20.5093 103.681 19.5372 103.681 18.3442V7.16512C103.681 5.97209 104.653 5 105.847 5C107.04 5 108.012 5.97209 108.012 7.16512V18.3442C108.012 19.5372 107.04 20.5093 105.847 20.5093Z" fill="black"/>
<path d="M117.998 20.5093C116.805 20.5093 115.833 19.5372 115.833 18.3442V7.16512C115.833 5.97209 116.805 5 117.998 5C119.191 5 120.163 5.97209 120.163 7.16512V18.3442C120.163 19.5372 119.191 20.5093 117.998 20.5093Z" fill="black"/>
<path d="M144.333 173.569H55.1651C53.9721 173.569 53 172.597 53 171.404C53 170.211 53.9721 169.239 55.1651 169.239H144.333C145.526 169.239 146.498 170.211 146.498 171.404C146.498 172.597 145.526 173.569 144.333 173.569Z" fill="black"/>
<path d="M144.333 102.739H55.1651C53.9721 102.739 53 101.767 53 100.574C53 99.3811 53.9721 98.4091 55.1651 98.4091H144.333C145.526 98.4091 146.498 99.3811 146.498 100.574C146.498 101.767 145.526 102.739 144.333 102.739Z" fill="black"/>
<path d="M104.83 157.574H94.7116C92.7674 157.574 91.1767 155.983 91.1767 154.039V144.583H81.7209C79.7767 144.583 78.186 142.993 78.186 141.049V130.93C78.186 128.986 79.7767 127.395 81.7209 127.395H91.1767V117.939C91.1767 115.995 92.7674 114.404 94.7116 114.404H104.83C106.774 114.404 108.365 115.995 108.365 117.939V127.395H117.821C119.765 127.395 121.356 128.986 121.356 130.93V141.093C121.356 143.037 119.765 144.628 117.821 144.628H108.365V154.083C108.321 155.983 106.73 157.574 104.83 157.574ZM95.507 153.244H104.035V142.418C104.035 141.225 105.007 140.253 106.2 140.253H116.981V131.725H106.156C104.963 131.725 103.991 130.753 103.991 129.56V118.735H95.4628V129.604C95.4628 130.797 94.4907 131.77 93.2977 131.77H82.5163V140.297H93.3419C94.5349 140.297 95.507 141.27 95.507 142.463V153.244Z" fill="black"/>
</svg>
