<svg width="200" height="200" viewBox="0 0 200 200" fill="none" xmlns="http://www.w3.org/2000/svg">
<path d="M127.763 34.207H71.735C68.4211 34.207 65.6815 31.5116 65.6815 28.1535V11.0535C65.6815 7.73954 68.3769 5 71.735 5H127.763C131.077 5 133.816 7.69535 133.816 11.0535V28.1977C133.772 31.5116 131.077 34.207 127.763 34.207ZM71.735 9.33023C70.8071 9.33023 70.0118 10.0814 70.0118 11.0535V28.1977C70.0118 29.1256 70.7629 29.9209 71.735 29.9209H127.763C128.691 29.9209 129.486 29.1698 129.486 28.1977V11.0535C129.486 10.1256 128.735 9.33023 127.763 9.33023H71.735Z" fill="black"/>
<path d="M123.167 45.1205H76.3301C73.7673 45.1205 71.6906 43.0438 71.6906 40.481V32.0856C71.6906 30.8926 72.6626 29.9205 73.8557 29.9205C75.0487 29.9205 76.0208 30.8926 76.0208 32.0856V40.481C76.0208 40.6577 76.1533 40.8345 76.3743 40.8345H123.167C123.344 40.8345 123.521 40.7019 123.521 40.481V32.0856C123.521 30.8926 124.493 29.9205 125.686 29.9205C126.879 29.9205 127.851 30.8926 127.851 32.0856V40.481C127.851 43.0438 125.73 45.1205 123.167 45.1205Z" fill="black"/>
<path d="M138.456 195H61.0419C56.6233 195 53 191.377 53 186.958V84.0932C53 80.5142 54.1047 77.0677 56.2256 74.1072C68.0674 57.5374 74.5628 42.2932 74.6512 42.1165C75.093 41.0118 76.3744 40.4816 77.4791 40.9677C78.5837 41.4095 79.114 42.6909 78.6279 43.7956C78.3628 44.4142 71.9116 59.6584 59.7605 76.6258C58.1698 78.8351 57.3302 81.3979 57.3302 84.0932V186.958C57.3302 188.991 59.0093 190.67 61.0419 190.67H138.456C140.488 190.67 142.167 188.991 142.167 186.958V84.0932C142.167 81.3979 141.328 78.8351 139.737 76.6258C127.586 59.6584 121.135 44.4584 120.87 43.7956C120.428 42.6909 120.914 41.4095 122.019 40.9677C123.123 40.5258 124.405 41.0118 124.847 42.1165C124.891 42.2491 131.386 57.5374 143.272 74.1072C145.393 77.0677 146.498 80.5142 146.498 84.0932V186.958C146.498 191.377 142.874 195 138.456 195Z" fill="black"/>
<path d="M81.5 20.5093C80.3069 20.5093 79.3348 19.5372 79.3348 18.3442V7.16512C79.3348 5.97209 80.3069 5 81.5 5C82.693 5 83.6651 5.97209 83.6651 7.16512V18.3442C83.6651 19.5372 82.693 20.5093 81.5 20.5093Z" fill="black"/>
<path d="M93.6511 20.5093C92.4581 20.5093 91.486 19.5372 91.486 18.3442V7.16512C91.486 5.97209 92.4581 5 93.6511 5C94.8441 5 95.8162 5.97209 95.8162 7.16512V18.3442C95.8162 19.5372 94.8441 20.5093 93.6511 20.5093Z" fill="black"/>
<path d="M105.847 20.5093C104.653 20.5093 103.681 19.5372 103.681 18.3442V7.16512C103.681 5.97209 104.653 5 105.847 5C107.04 5 108.012 5.97209 108.012 7.16512V18.3442C108.012 19.5372 107.04 20.5093 105.847 20.5093Z" fill="black"/>
<path d="M117.998 20.5093C116.805 20.5093 115.833 19.5372 115.833 18.3442V7.16512C115.833 5.97209 116.805 5 117.998 5C119.191 5 120.163 5.97209 120.163 7.16512V18.3442C120.163 19.5372 119.191 20.5093 117.998 20.5093Z" fill="black"/>
<path d="M144.333 173.569H55.1651C53.9721 173.569 53 172.597 53 171.404C53 170.211 53.9721 169.239 55.1651 169.239H144.333C145.526 169.239 146.498 170.211 146.498 171.404C146.498 172.597 145.526 173.569 144.333 173.569Z" fill="black"/>
<path d="M144.333 102.739H55.1651C53.9721 102.739 53 101.767 53 100.574C53 99.3811 53.9721 98.4091 55.1651 98.4091H144.333C145.526 98.4091 146.498 99.3811 146.498 100.574C146.498 101.767 145.526 102.739 144.333 102.739Z" fill="black"/>
<path d="M104.83 157.574H94.7117C92.7676 157.574 91.1769 155.983 91.1769 154.039V144.583H81.721C79.7769 144.583 78.1862 142.993 78.1862 141.049V130.93C78.1862 128.986 79.7769 127.395 81.721 127.395H91.1769V117.939C91.1769 115.995 92.7676 114.404 94.7117 114.404H104.83C106.775 114.404 108.365 115.995 108.365 117.939V127.395H117.821C119.765 127.395 121.356 128.986 121.356 130.93V141.093C121.356 143.037 119.765 144.628 117.821 144.628H108.365V154.083C108.321 155.983 106.73 157.574 104.83 157.574ZM95.5071 153.244H104.035V142.418C104.035 141.225 105.007 140.253 106.2 140.253H116.982V131.725H106.156C104.963 131.725 103.991 130.753 103.991 129.56V118.735H95.4629V129.604C95.4629 130.797 94.4908 131.77 93.2978 131.77H82.5164V140.297H93.342C94.535 140.297 95.5071 141.27 95.5071 142.463V153.244Z" fill="black"/>
</svg>
