<svg xmlns="http://www.w3.org/2000/svg" width="33" height="40" fill="none" viewBox="0 0 33 40"><path fill="#067A46" d="M32.2808 15.7544C31.632 9.39126 27.3928 1.84654 19.62 0.316414C18.5545 0.10661 17.451 0 16.342 0C10.7637 0 5.4293 2.64544 2.42008 6.90369C2.34407 7.01099 2.27014 7.11896 2.19689 7.22899C-1.14193 12.2322 -0.619544 19.1871 3.38607 23.062C3.68458 23.3504 4.00174 23.6251 4.31821 23.8991C5.07068 24.5497 5.7817 25.1648 6.24466 25.9678C7.00405 27.284 7.01234 29.1121 6.26677 30.8589C5.5751 32.4785 4.39145 33.8528 3.24649 35.1827C3.15667 35.2873 3.1387 35.4349 3.20089 35.5572C3.26308 35.6802 3.39644 35.7534 3.53187 35.7452C6.15138 35.5825 8.65964 34.1774 10.4133 31.8901C12.1664 29.6028 12.8573 26.835 12.3087 24.2962C12.2804 24.1643 12.1767 24.0618 12.0427 24.0338C11.9128 24.0044 11.7725 24.0563 11.6917 24.1657C11.3227 24.6632 10.7727 24.7677 10.3767 24.7677C9.74517 24.7677 9.05074 24.4957 8.60782 24.0748C6.41879 21.9965 6.2647 18.7354 6.36766 16.9763C6.49203 14.8468 7.22793 13.2176 8.00735 11.4927C8.03085 11.4401 8.05503 11.3875 8.07922 11.3342C8.44198 13.0741 9.90202 14.6869 11.3634 15.7264C11.7393 15.9943 12.1291 16.2546 12.5215 16.5171C14.1716 17.6187 15.8776 18.7586 16.5624 20.5177C17.5809 23.1337 16.0193 26.0026 14.1806 28.7137C14.1087 28.8189 14.1129 28.9535 14.173 29.0649C14.2331 29.1763 14.3609 29.246 14.4888 29.246C15.3359 29.246 16.181 28.933 16.8353 28.3993C16.7835 31.4384 13.5622 33.8405 11.0553 35.4233L5.09487 39.1868C4.97257 39.264 4.91176 39.4075 4.94285 39.5476C4.97326 39.6877 5.08865 39.7929 5.23237 39.8134C6.12236 39.9371 7.03583 40 7.94724 40C14.5427 40 21.5706 36.7081 27.2304 30.9675C30.921 27.2218 32.8564 21.3924 32.2808 15.7544Z"/></svg>