<?xml version="1.0" encoding="UTF-8" standalone="no"?>
<!DOCTYPE svg PUBLIC "-//W3C//DTD SVG 1.1//EN"
 "http://www.w3.org/Graphics/SVG/1.1/DTD/svg11.dtd">
<!-- Generated by graphviz version 2.47.0 (20210316.0004)
 -->
<!-- Title: dependencies Pages: 1 -->
<svg width="1183pt" height="284pt"
 viewBox="0.00 0.00 1183.00 284.00" xmlns="http://www.w3.org/2000/svg" xmlns:xlink="http://www.w3.org/1999/xlink">
<g id="graph0" class="graph" transform="scale(1 1) rotate(0) translate(4 280)">
<title>dependencies</title>
<polygon fill="white" stroke="transparent" points="-4,4 -4,-280 1179,-280 1179,4 -4,4"/>
<text text-anchor="start" x="566.51" y="-42.4" font-family="Times-12" font-weight="bold" font-size="14.00">Legend</text>
<polygon fill="#ffffb3" stroke="transparent" points="353.5,-10 353.5,-30 373.5,-30 373.5,-10 353.5,-10"/>
<text text-anchor="start" x="377.13" y="-15.4" font-family="Times-12" font-size="14.00"> &#160;Declarations</text>
<polygon fill="#8dd3c7" stroke="transparent" points="466.5,-10 466.5,-30 486.5,-30 486.5,-10 466.5,-10"/>
<text text-anchor="start" x="490.23" y="-15.4" font-family="Times-12" font-size="14.00"> &#160;Module</text>
<polygon fill="#80b1d3" stroke="transparent" points="552.5,-10 552.5,-30 572.5,-30 572.5,-10 552.5,-10"/>
<text text-anchor="start" x="576.28" y="-15.4" font-family="Times-12" font-size="14.00"> &#160;Bootstrap</text>
<polygon fill="#fdb462" stroke="transparent" points="649.5,-10 649.5,-30 669.5,-30 669.5,-10 649.5,-10"/>
<text text-anchor="start" x="673.17" y="-15.4" font-family="Times-12" font-size="14.00"> &#160;Providers</text>
<polygon fill="#fb8072" stroke="transparent" points="745.5,-10 745.5,-30 765.5,-30 765.5,-10 745.5,-10"/>
<text text-anchor="start" x="769.23" y="-15.4" font-family="Times-12" font-size="14.00"> &#160;Exports</text>
<g id="clust1" class="cluster">
<title>cluster_SharedModule</title>
<polygon fill="none" stroke="black" stroke-dasharray="1,5" points="8,-70 8,-268 1167,-268 1167,-70 8,-70"/>
</g>
<g id="clust11" class="cluster">
<title>cluster_SharedModule_exports</title>
<polygon fill="none" stroke="black" points="16,-208 16,-260 1159,-260 1159,-208 16,-208"/>
</g>
<g id="clust2" class="cluster">
<title>cluster_SharedModule_declarations</title>
<polygon fill="none" stroke="black" points="27,-78 27,-130 1148,-130 1148,-78 27,-78"/>
</g>
<!-- AddToCartModalComponent -->
<g id="node1" class="node">
<title>AddToCartModalComponent</title>
<polygon fill="#ffffb3" stroke="black" points="1139.64,-122 958.36,-122 958.36,-86 1139.64,-86 1139.64,-122"/>
<text text-anchor="middle" x="1049" y="-99.8" font-family="Times,serif" font-size="14.00">AddToCartModalComponent</text>
</g>
<!-- SharedModule -->
<g id="node8" class="node">
<title>SharedModule</title>
<polygon fill="#8dd3c7" stroke="black" points="618.42,-187 615.42,-191 594.42,-191 591.42,-187 519.58,-187 519.58,-151 618.42,-151 618.42,-187"/>
<text text-anchor="middle" x="569" y="-164.8" font-family="Times,serif" font-size="14.00">SharedModule</text>
</g>
<!-- AddToCartModalComponent&#45;&gt;SharedModule -->
<g id="edge1" class="edge">
<title>AddToCartModalComponent&#45;&gt;SharedModule</title>
<path fill="none" stroke="black" d="M961.8,-122.22C961.8,-140.83 961.8,-167 961.8,-167 961.8,-167 628.35,-167 628.35,-167"/>
<polygon fill="black" stroke="black" points="628.35,-163.5 618.35,-167 628.35,-170.5 628.35,-163.5"/>
</g>
<!-- BottomMenuComponent -->
<g id="node2" class="node">
<title>BottomMenuComponent</title>
<polygon fill="#ffffb3" stroke="black" points="940,-122 784,-122 784,-86 940,-86 940,-122"/>
<text text-anchor="middle" x="862" y="-99.8" font-family="Times,serif" font-size="14.00">BottomMenuComponent</text>
</g>
<!-- BottomMenuComponent&#45;&gt;SharedModule -->
<g id="edge2" class="edge">
<title>BottomMenuComponent&#45;&gt;SharedModule</title>
<path fill="none" stroke="black" d="M889.42,-122.03C889.42,-139.06 889.42,-162 889.42,-162 889.42,-162 628.36,-162 628.36,-162"/>
<polygon fill="black" stroke="black" points="628.36,-158.5 618.36,-162 628.36,-165.5 628.36,-158.5"/>
</g>
<!-- FooterComponent -->
<g id="node3" class="node">
<title>FooterComponent</title>
<polygon fill="#ffffb3" stroke="black" points="765.88,-122 648.12,-122 648.12,-86 765.88,-86 765.88,-122"/>
<text text-anchor="middle" x="707" y="-99.8" font-family="Times,serif" font-size="14.00">FooterComponent</text>
</g>
<!-- FooterComponent&#45;&gt;SharedModule -->
<g id="edge3" class="edge">
<title>FooterComponent&#45;&gt;SharedModule</title>
<path fill="none" stroke="black" d="M727.06,-122.24C727.06,-137.57 727.06,-157 727.06,-157 727.06,-157 628.58,-157 628.58,-157"/>
<polygon fill="black" stroke="black" points="628.58,-153.5 618.58,-157 628.58,-160.5 628.58,-153.5"/>
</g>
<!-- HeaderComponent -->
<g id="node4" class="node">
<title>HeaderComponent</title>
<polygon fill="#ffffb3" stroke="black" points="629.74,-122 508.26,-122 508.26,-86 629.74,-86 629.74,-122"/>
<text text-anchor="middle" x="569" y="-99.8" font-family="Times,serif" font-size="14.00">HeaderComponent</text>
</g>
<!-- HeaderComponent&#45;&gt;SharedModule -->
<g id="edge4" class="edge">
<title>HeaderComponent&#45;&gt;SharedModule</title>
<path fill="none" stroke="black" d="M569,-122.11C569,-122.11 569,-140.99 569,-140.99"/>
<polygon fill="black" stroke="black" points="565.5,-140.99 569,-150.99 572.5,-140.99 565.5,-140.99"/>
</g>
<!-- SidebarComponent -->
<g id="node5" class="node">
<title>SidebarComponent</title>
<polygon fill="#ffffb3" stroke="black" points="490.1,-122 365.9,-122 365.9,-86 490.1,-86 490.1,-122"/>
<text text-anchor="middle" x="428" y="-99.8" font-family="Times,serif" font-size="14.00">SidebarComponent</text>
</g>
<!-- SidebarComponent&#45;&gt;SharedModule -->
<g id="edge5" class="edge">
<title>SidebarComponent&#45;&gt;SharedModule</title>
<path fill="none" stroke="black" d="M447.85,-122.24C447.85,-137.57 447.85,-157 447.85,-157 447.85,-157 509.72,-157 509.72,-157"/>
<polygon fill="black" stroke="black" points="509.72,-160.5 519.72,-157 509.72,-153.5 509.72,-160.5"/>
</g>
<!-- TakaCurrencyPipe -->
<g id="node6" class="node">
<title>TakaCurrencyPipe</title>
<polygon fill="#ffffb3" stroke="black" points="347.46,-122 226.54,-122 226.54,-86 347.46,-86 347.46,-122"/>
<text text-anchor="middle" x="287" y="-99.8" font-family="Times,serif" font-size="14.00">TakaCurrencyPipe</text>
</g>
<!-- TakaCurrencyPipe&#45;&gt;SharedModule -->
<g id="edge6" class="edge">
<title>TakaCurrencyPipe&#45;&gt;SharedModule</title>
<path fill="none" stroke="black" d="M304.33,-122.03C304.33,-139.06 304.33,-162 304.33,-162 304.33,-162 509.53,-162 509.53,-162"/>
<polygon fill="black" stroke="black" points="509.53,-165.5 519.53,-162 509.53,-158.5 509.53,-165.5"/>
</g>
<!-- WelcomeScreenComponent -->
<g id="node7" class="node">
<title>WelcomeScreenComponent</title>
<polygon fill="#ffffb3" stroke="black" points="208.56,-122 35.44,-122 35.44,-86 208.56,-86 208.56,-122"/>
<text text-anchor="middle" x="122" y="-99.8" font-family="Times,serif" font-size="14.00">WelcomeScreenComponent</text>
</g>
<!-- WelcomeScreenComponent&#45;&gt;SharedModule -->
<g id="edge7" class="edge">
<title>WelcomeScreenComponent&#45;&gt;SharedModule</title>
<path fill="none" stroke="black" d="M204.4,-122.22C204.4,-140.83 204.4,-167 204.4,-167 204.4,-167 509.45,-167 509.45,-167"/>
<polygon fill="black" stroke="black" points="509.45,-170.5 519.45,-167 509.45,-163.5 509.45,-170.5"/>
</g>
<!-- AddToCartModalComponent  -->
<g id="node9" class="node">
<title>AddToCartModalComponent </title>
<polygon fill="#fb8072" stroke="black" points="1150.64,-252 965.36,-252 965.36,-216 1150.64,-216 1150.64,-252"/>
<text text-anchor="middle" x="1058" y="-229.8" font-family="Times,serif" font-size="14.00">AddToCartModalComponent </text>
</g>
<!-- SharedModule&#45;&gt;AddToCartModalComponent  -->
<g id="edge8" class="edge">
<title>SharedModule&#45;&gt;AddToCartModalComponent </title>
<path fill="none" stroke="black" stroke-dasharray="5,2" d="M618.48,-172C741.74,-172 1052.62,-172 1052.62,-172 1052.62,-172 1052.62,-205.73 1052.62,-205.73"/>
<polygon fill="black" stroke="black" points="1049.13,-205.73 1052.62,-215.73 1056.13,-205.73 1049.13,-205.73"/>
</g>
<!-- BottomMenuComponent  -->
<g id="node10" class="node">
<title>BottomMenuComponent </title>
<polygon fill="#fb8072" stroke="black" points="947.5,-252 788.5,-252 788.5,-216 947.5,-216 947.5,-252"/>
<text text-anchor="middle" x="868" y="-229.8" font-family="Times,serif" font-size="14.00">BottomMenuComponent </text>
</g>
<!-- SharedModule&#45;&gt;BottomMenuComponent  -->
<g id="edge9" class="edge">
<title>SharedModule&#45;&gt;BottomMenuComponent </title>
<path fill="none" stroke="black" stroke-dasharray="5,2" d="M618.49,-177C696.39,-177 838.83,-177 838.83,-177 838.83,-177 838.83,-205.96 838.83,-205.96"/>
<polygon fill="black" stroke="black" points="835.33,-205.96 838.83,-215.96 842.33,-205.96 835.33,-205.96"/>
</g>
<!-- FooterComponent  -->
<g id="node11" class="node">
<title>FooterComponent </title>
<polygon fill="#fb8072" stroke="black" points="770.88,-252 649.12,-252 649.12,-216 770.88,-216 770.88,-252"/>
<text text-anchor="middle" x="710" y="-229.8" font-family="Times,serif" font-size="14.00">FooterComponent </text>
</g>
<!-- SharedModule&#45;&gt;FooterComponent  -->
<g id="edge10" class="edge">
<title>SharedModule&#45;&gt;FooterComponent </title>
<path fill="none" stroke="black" stroke-dasharray="5,2" d="M618.51,-182C651.26,-182 688.19,-182 688.19,-182 688.19,-182 688.19,-205.81 688.19,-205.81"/>
<polygon fill="black" stroke="black" points="684.69,-205.81 688.19,-215.81 691.69,-205.81 684.69,-205.81"/>
</g>
<!-- HeaderComponent  -->
<g id="node12" class="node">
<title>HeaderComponent </title>
<polygon fill="#fb8072" stroke="black" points="631.74,-252 506.26,-252 506.26,-216 631.74,-216 631.74,-252"/>
<text text-anchor="middle" x="569" y="-229.8" font-family="Times,serif" font-size="14.00">HeaderComponent </text>
</g>
<!-- SharedModule&#45;&gt;HeaderComponent  -->
<g id="edge11" class="edge">
<title>SharedModule&#45;&gt;HeaderComponent </title>
<path fill="none" stroke="black" stroke-dasharray="5,2" d="M569,-187.11C569,-187.11 569,-205.99 569,-205.99"/>
<polygon fill="black" stroke="black" points="565.5,-205.99 569,-215.99 572.5,-205.99 565.5,-205.99"/>
</g>
<!-- SidebarComponent  -->
<g id="node13" class="node">
<title>SidebarComponent </title>
<polygon fill="#fb8072" stroke="black" points="488.6,-252 361.4,-252 361.4,-216 488.6,-216 488.6,-252"/>
<text text-anchor="middle" x="425" y="-229.8" font-family="Times,serif" font-size="14.00">SidebarComponent </text>
</g>
<!-- SharedModule&#45;&gt;SidebarComponent  -->
<g id="edge12" class="edge">
<title>SharedModule&#45;&gt;SidebarComponent </title>
<path fill="none" stroke="black" stroke-dasharray="5,2" d="M519.48,-182C471.81,-182 406.9,-182 406.9,-182 406.9,-182 406.9,-205.81 406.9,-205.81"/>
<polygon fill="black" stroke="black" points="403.4,-205.81 406.9,-215.81 410.4,-205.81 403.4,-205.81"/>
</g>
<!-- TakaCurrencyPipe  -->
<g id="node14" class="node">
<title>TakaCurrencyPipe </title>
<polygon fill="#fb8072" stroke="black" points="343.46,-252 218.54,-252 218.54,-216 343.46,-216 343.46,-252"/>
<text text-anchor="middle" x="281" y="-229.8" font-family="Times,serif" font-size="14.00">TakaCurrencyPipe </text>
</g>
<!-- SharedModule&#45;&gt;TakaCurrencyPipe  -->
<g id="edge13" class="edge">
<title>SharedModule&#45;&gt;TakaCurrencyPipe </title>
<path fill="none" stroke="black" stroke-dasharray="5,2" d="M519.55,-177C433.53,-177 265.42,-177 265.42,-177 265.42,-177 265.42,-205.96 265.42,-205.96"/>
<polygon fill="black" stroke="black" points="261.92,-205.96 265.42,-215.96 268.92,-205.96 261.92,-205.96"/>
</g>
<!-- WelcomeScreenComponent  -->
<g id="node15" class="node">
<title>WelcomeScreenComponent </title>
<polygon fill="#fb8072" stroke="black" points="200.06,-252 23.94,-252 23.94,-216 200.06,-216 200.06,-252"/>
<text text-anchor="middle" x="112" y="-229.8" font-family="Times,serif" font-size="14.00">WelcomeScreenComponent </text>
</g>
<!-- SharedModule&#45;&gt;WelcomeScreenComponent  -->
<g id="edge14" class="edge">
<title>SharedModule&#45;&gt;WelcomeScreenComponent </title>
<path fill="none" stroke="black" stroke-dasharray="5,2" d="M519.43,-172C402.24,-172 117.88,-172 117.88,-172 117.88,-172 117.88,-205.73 117.88,-205.73"/>
<polygon fill="black" stroke="black" points="114.38,-205.73 117.88,-215.73 121.38,-205.73 114.38,-205.73"/>
</g>
</g>
</svg>
