<svg xmlns="http://www.w3.org/2000/svg" xmlns:xlink="http://www.w3.org/1999/xlink" width="1848" height="284pt" viewBox="0 0 1386 284"><g id="graph0" class="graph" transform="scale(1 1) rotate(0) translate(4 280)"><title>dependencies</title><polygon fill="#fff" stroke="transparent" points="-4 4 -4 -280 1382 -280 1382 4 -4 4"/><text x="668.01" y="-42.4" font-family="Times-12" font-size="14" font-weight="bold" text-anchor="start">Legend</text><polygon fill="#ffffb3" stroke="transparent" points="455 -10 455 -30 475 -30 475 -10 455 -10"/><text x="478.63" y="-15.4" font-family="Times-12" font-size="14" text-anchor="start">Declarations</text><polygon fill="#8dd3c7" stroke="transparent" points="568 -10 568 -30 588 -30 588 -10 568 -10"/><text x="591.73" y="-15.4" font-family="Times-12" font-size="14" text-anchor="start">Module</text><polygon fill="#80b1d3" stroke="transparent" points="654 -10 654 -30 674 -30 674 -10 654 -10"/><text x="677.78" y="-15.4" font-family="Times-12" font-size="14" text-anchor="start">Bootstrap</text><polygon fill="#fdb462" stroke="transparent" points="751 -10 751 -30 771 -30 771 -10 751 -10"/><text x="774.67" y="-15.4" font-family="Times-12" font-size="14" text-anchor="start">Providers</text><polygon fill="#fb8072" stroke="transparent" points="847 -10 847 -30 867 -30 867 -10 847 -10"/><text x="870.73" y="-15.4" font-family="Times-12" font-size="14" text-anchor="start">Exports</text><g id="clust1" class="cluster"><title>cluster_ShopModule</title><polygon fill="none" stroke="#000" stroke-dasharray="1 5" points="8 -70 8 -268 1370 -268 1370 -70 8 -70"/></g><g id="clust10" class="cluster"><title>cluster_ShopModule_exports</title><polygon fill="none" stroke="#000" points="137 -208 137 -260 1230 -260 1230 -208 137 -208"/></g><g id="clust9" class="cluster"><title>cluster_ShopModule_imports</title><polygon fill="none" stroke="#000" points="1096 -78 1096 -130 1362 -130 1362 -78 1096 -78"/></g><g id="clust2" class="cluster"><title>cluster_ShopModule_declarations</title><polygon fill="none" stroke="#000" points="16 -78 16 -130 1088 -130 1088 -78 16 -78"/></g><g id="node1" class="node"><title>ShopDashboardComponent</title><polygon fill="#ffffb3" stroke="#000" points="1080.26 -122 909.74 -122 909.74 -86 1080.26 -86 1080.26 -122"/><text x="995" y="-99.8" font-family="Times,serif" font-size="14" text-anchor="middle">ShopDashboardComponent</text></g><g id="node7" class="node"><title>ShopModule</title><polygon fill="#8dd3c7" stroke="#000" points="730.33 -187 727.33 -191 706.33 -191 703.33 -187 641.67 -187 641.67 -151 730.33 -151 730.33 -187"/><text x="686" y="-164.8" font-family="Times,serif" font-size="14" text-anchor="middle">ShopModule</text></g><g id="edge1" class="edge"><title>ShopDashboardComponent-&gt;ShopModule</title><path fill="none" stroke="#000" d="M969.82,-122.24C969.82,-137.57 969.82,-157 969.82,-157 969.82,-157 740.35,-157 740.35,-157"/><polygon fill="#000" stroke="#000" points="740.35 -153.5 730.35 -157 740.35 -160.5 740.35 -153.5"/></g><g id="node2" class="node"><title>ShopInventoryComponent</title><polygon fill="#ffffb3" stroke="#000" points="891.04 -122 726.96 -122 726.96 -86 891.04 -86 891.04 -122"/><text x="809" y="-99.8" font-family="Times,serif" font-size="14" text-anchor="middle">ShopInventoryComponent</text></g><g id="edge2" class="edge"><title>ShopInventoryComponent-&gt;ShopModule</title><path fill="none" stroke="#000" d="M726.84,-104C721.23,-104 717.75,-104 717.75,-104 717.75,-104 717.75,-140.89 717.75,-140.89"/><polygon fill="#000" stroke="#000" points="714.25 -140.89 717.75 -150.89 721.25 -140.89 714.25 -140.89"/></g><g id="node3" class="node"><title>ShopLoginComponent</title><polygon fill="#ffffb3" stroke="#000" points="708.56 -122 565.44 -122 565.44 -86 708.56 -86 708.56 -122"/><text x="637" y="-99.8" font-family="Times,serif" font-size="14" text-anchor="middle">ShopLoginComponent</text></g><g id="edge3" class="edge"><title>ShopLoginComponent-&gt;ShopModule</title><path fill="none" stroke="#000" d="M675.31,-122.11C675.31,-122.11 675.31,-140.99 675.31,-140.99"/><polygon fill="#000" stroke="#000" points="671.81 -140.99 675.31 -150.99 678.81 -140.99 671.81 -140.99"/></g><g id="node4" class="node"><title>ShopOrdersComponent</title><polygon fill="#ffffb3" stroke="#000" points="547.2 -122 398.8 -122 398.8 -86 547.2 -86 547.2 -122"/><text x="473" y="-99.8" font-family="Times,serif" font-size="14" text-anchor="middle">ShopOrdersComponent</text></g><g id="edge4" class="edge"><title>ShopOrdersComponent-&gt;ShopModule</title><path fill="none" stroke="#000" d="M537.12,-122.24C537.12,-137.57 537.12,-157 537.12,-157 537.12,-157 631.74,-157 631.74,-157"/><polygon fill="#000" stroke="#000" points="631.74 -160.5 641.74 -157 631.74 -153.5 631.74 -160.5"/></g><g id="node5" class="node"><title>ShopRegisterComponent</title><polygon fill="#ffffb3" stroke="#000" points="381.27 -122 224.73 -122 224.73 -86 381.27 -86 381.27 -122"/><text x="303" y="-99.8" font-family="Times,serif" font-size="14" text-anchor="middle">ShopRegisterComponent</text></g><g id="edge5" class="edge"><title>ShopRegisterComponent-&gt;ShopModule</title><path fill="none" stroke="#000" d="M365.12,-122.02C365.12,-139.37 365.12,-163 365.12,-163 365.12,-163 631.72,-163 631.72,-163"/><polygon fill="#000" stroke="#000" points="631.72 -166.5 641.72 -163 631.72 -159.5 631.72 -166.5"/></g><g id="node6" class="node"><title>ShopSelectScreenComponent</title><polygon fill="#ffffb3" stroke="#000" points="206.41 -122 23.59 -122 23.59 -86 206.41 -86 206.41 -122"/><text x="115" y="-99.8" font-family="Times,serif" font-size="14" text-anchor="middle">ShopSelectScreenComponent</text></g><g id="edge6" class="edge"><title>ShopSelectScreenComponent-&gt;ShopModule</title><path fill="none" stroke="#000" d="M175.62,-122.11C175.62,-141.34 175.62,-169 175.62,-169 175.62,-169 631.6,-169 631.6,-169"/><polygon fill="#000" stroke="#000" points="631.6 -172.5 641.6 -169 631.6 -165.5 631.6 -172.5"/></g><g id="node10" class="node"><title>ShopDashboardComponent</title><polygon fill="#fb8072" stroke="#000" points="1222.26 -252 1047.74 -252 1047.74 -216 1222.26 -216 1222.26 -252"/><text x="1135" y="-229.8" font-family="Times,serif" font-size="14" text-anchor="middle">ShopDashboardComponent</text></g><g id="edge9" class="edge"><title>ShopModule-&gt;ShopDashboardComponent</title><path fill="none" stroke="#000" stroke-dasharray="5 2" d="M730.49,-175C830.44,-175 1064.12,-175 1064.12,-175 1064.12,-175 1064.12,-205.98 1064.12,-205.98"/><polygon fill="#000" stroke="#000" points="1060.63 -205.98 1064.12 -215.98 1067.63 -205.98 1060.63 -205.98"/></g><g id="node11" class="node"><title>ShopInventoryComponent</title><polygon fill="#fb8072" stroke="#000" points="1030.04 -252 861.96 -252 861.96 -216 1030.04 -216 1030.04 -252"/><text x="946" y="-229.8" font-family="Times,serif" font-size="14" text-anchor="middle">ShopInventoryComponent</text></g><g id="edge10" class="edge"><title>ShopModule-&gt;ShopInventoryComponent</title><path fill="none" stroke="#000" stroke-dasharray="5 2" d="M730.21,-181C786.52,-181 876.62,-181 876.62,-181 876.62,-181 876.62,-205.76 876.62,-205.76"/><polygon fill="#000" stroke="#000" points="873.13 -205.76 876.62 -215.76 880.13 -205.76 873.13 -205.76"/></g><g id="node12" class="node"><title>ShopLoginComponent</title><polygon fill="#fb8072" stroke="#000" points="843.56 -252 696.44 -252 696.44 -216 843.56 -216 843.56 -252"/><text x="770" y="-229.8" font-family="Times,serif" font-size="14" text-anchor="middle">ShopLoginComponent</text></g><g id="edge11" class="edge"><title>ShopModule-&gt;ShopLoginComponent</title><path fill="none" stroke="#000" stroke-dasharray="5 2" d="M713.32,-187.11C713.32,-187.11 713.32,-205.99 713.32,-205.99"/><polygon fill="#000" stroke="#000" points="709.82 -205.99 713.32 -215.99 716.82 -205.99 709.82 -205.99"/></g><g id="node13" class="node"><title>ShopOrdersComponent</title><polygon fill="#fb8072" stroke="#000" points="678.7 -252 527.3 -252 527.3 -216 678.7 -216 678.7 -252"/><text x="603" y="-229.8" font-family="Times,serif" font-size="14" text-anchor="middle">ShopOrdersComponent</text></g><g id="edge12" class="edge"><title>ShopModule-&gt;ShopOrdersComponent</title><path fill="none" stroke="#000" stroke-dasharray="5 2" d="M660.34,-187.11C660.34,-187.11 660.34,-205.99 660.34,-205.99"/><polygon fill="#000" stroke="#000" points="656.84 -205.99 660.34 -215.99 663.84 -205.99 656.84 -205.99"/></g><g id="node14" class="node"><title>ShopRegisterComponent</title><polygon fill="#fb8072" stroke="#000" points="509.27 -252 348.73 -252 348.73 -216 509.27 -216 509.27 -252"/><text x="429" y="-229.8" font-family="Times,serif" font-size="14" text-anchor="middle">ShopRegisterComponent</text></g><g id="edge13" class="edge"><title>ShopModule-&gt;ShopRegisterComponent</title><path fill="none" stroke="#000" stroke-dasharray="5 2" d="M641.82,-181C574.51,-181 454.02,-181 454.02,-181 454.02,-181 454.02,-205.76 454.02,-205.76"/><polygon fill="#000" stroke="#000" points="450.52 -205.76 454.02 -215.76 457.52 -205.76 450.52 -205.76"/></g><g id="node15" class="node"><title>ShopSelectScreenComponent</title><polygon fill="#fb8072" stroke="#000" points="330.91 -252 145.09 -252 145.09 -216 330.91 -216 330.91 -252"/><text x="238" y="-229.8" font-family="Times,serif" font-size="14" text-anchor="middle">ShopSelectScreenComponent</text></g><g id="edge14" class="edge"><title>ShopModule-&gt;ShopSelectScreenComponent</title><path fill="none" stroke="#000" stroke-dasharray="5 2" d="M641.54,-175C535.74,-175 277.79,-175 277.79,-175 277.79,-175 277.79,-205.98 277.79,-205.98"/><polygon fill="#000" stroke="#000" points="274.29 -205.98 277.79 -215.98 281.29 -205.98 274.29 -205.98"/></g><g id="node8" class="node"><title>SharedModule</title><polygon fill="#8dd3c7" stroke="#000" points="1354.42 -122 1351.42 -126 1330.42 -126 1327.42 -122 1255.58 -122 1255.58 -86 1354.42 -86 1354.42 -122"/><text x="1305" y="-99.8" font-family="Times,serif" font-size="14" text-anchor="middle">SharedModule</text></g><g id="edge7" class="edge"><title>SharedModule-&gt;ShopModule</title><path fill="none" stroke="#000" d="M1305,-122.11C1305,-141.34 1305,-169 1305,-169 1305,-169 740.52,-169 740.52,-169"/><polygon fill="#000" stroke="#000" points="740.52 -165.5 730.52 -169 740.52 -172.5 740.52 -165.5"/></g><g id="node9" class="node"><title>ShopRoutingModule</title><polygon fill="#8dd3c7" stroke="#000" points="1237.95 -122 1234.95 -126 1213.95 -126 1210.95 -122 1104.05 -122 1104.05 -86 1237.95 -86 1237.95 -122"/><text x="1171" y="-99.8" font-family="Times,serif" font-size="14" text-anchor="middle">ShopRoutingModule</text></g><g id="edge8" class="edge"><title>ShopRoutingModule-&gt;ShopModule</title><path fill="none" stroke="#000" d="M1163.2,-122.02C1163.2,-139.37 1163.2,-163 1163.2,-163 1163.2,-163 740.47,-163 740.47,-163"/><polygon fill="#000" stroke="#000" points="740.47 -159.5 730.47 -163 740.47 -166.5 740.47 -159.5"/></g></g></svg>