<?xml version="1.0" encoding="UTF-8" standalone="no"?>
<!DOCTYPE svg PUBLIC "-//W3C//DTD SVG 1.1//EN"
 "http://www.w3.org/Graphics/SVG/1.1/DTD/svg11.dtd">
<!-- Generated by graphviz version 2.47.0 (20210316.0004)
 -->
<!-- Title: dependencies Pages: 1 -->
<svg width="5137pt" height="436pt"
 viewBox="0.00 0.00 5137.00 436.00" xmlns="http://www.w3.org/2000/svg" xmlns:xlink="http://www.w3.org/1999/xlink">
<g id="graph0" class="graph" transform="scale(1 1) rotate(0) translate(4 432)">
<title>dependencies</title>
<polygon fill="white" stroke="transparent" points="-4,4 -4,-432 5133,-432 5133,4 -4,4"/>
<text text-anchor="start" x="2543.51" y="-42.4" font-family="Times-12" font-weight="bold" font-size="14.00">Legend</text>
<polygon fill="#ffffb3" stroke="transparent" points="2330.5,-10 2330.5,-30 2350.5,-30 2350.5,-10 2330.5,-10"/>
<text text-anchor="start" x="2354.13" y="-15.4" font-family="Times-12" font-size="14.00"> &#160;Declarations</text>
<polygon fill="#8dd3c7" stroke="transparent" points="2443.5,-10 2443.5,-30 2463.5,-30 2463.5,-10 2443.5,-10"/>
<text text-anchor="start" x="2467.23" y="-15.4" font-family="Times-12" font-size="14.00"> &#160;Module</text>
<polygon fill="#80b1d3" stroke="transparent" points="2529.5,-10 2529.5,-30 2549.5,-30 2549.5,-10 2529.5,-10"/>
<text text-anchor="start" x="2553.28" y="-15.4" font-family="Times-12" font-size="14.00"> &#160;Bootstrap</text>
<polygon fill="#fdb462" stroke="transparent" points="2626.5,-10 2626.5,-30 2646.5,-30 2646.5,-10 2626.5,-10"/>
<text text-anchor="start" x="2650.17" y="-15.4" font-family="Times-12" font-size="14.00"> &#160;Providers</text>
<polygon fill="#fb8072" stroke="transparent" points="2722.5,-10 2722.5,-30 2742.5,-30 2742.5,-10 2722.5,-10"/>
<text text-anchor="start" x="2746.23" y="-15.4" font-family="Times-12" font-size="14.00"> &#160;Exports</text>
<g id="clust1" class="cluster">
<title>cluster_AppModule</title>
<polygon fill="none" stroke="black" stroke-dasharray="1,5" points="1533,-222 1533,-420 2169,-420 2169,-222 1533,-222"/>
</g>
<g id="clust2" class="cluster">
<title>cluster_AppModule_declarations</title>
<polygon fill="none" stroke="black" points="2039,-230 2039,-282 2161,-282 2161,-230 2039,-230"/>
</g>
<g id="clust4" class="cluster">
<title>cluster_AppModule_imports</title>
<polygon fill="none" stroke="black" points="1541,-230 1541,-282 2031,-282 2031,-230 1541,-230"/>
</g>
<g id="clust6" class="cluster">
<title>cluster_AppModule_bootstrap</title>
<polygon fill="none" stroke="black" points="1773,-360 1773,-412 1897,-412 1897,-360 1773,-360"/>
</g>
<g id="clust14" class="cluster">
<title>cluster_CartModule</title>
<polygon fill="none" stroke="black" stroke-dasharray="1,5" points="2836,-70 2836,-138 3387,-138 3387,-70 2836,-70"/>
</g>
<g id="clust15" class="cluster">
<title>cluster_CartModule_declarations</title>
<polygon fill="none" stroke="black" points="2844,-78 2844,-130 3110,-130 3110,-78 2844,-78"/>
</g>
<g id="clust18" class="cluster">
<title>cluster_CartModule_imports</title>
<polygon fill="none" stroke="black" points="3118,-78 3118,-130 3379,-130 3379,-78 3118,-78"/>
</g>
<g id="clust28" class="cluster">
<title>cluster_CustomerModule</title>
<polygon fill="none" stroke="black" stroke-dasharray="1,5" points="8,-146 8,-214 1297,-214 1297,-146 8,-146"/>
</g>
<g id="clust29" class="cluster">
<title>cluster_CustomerModule_declarations</title>
<polygon fill="none" stroke="black" points="685,-154 685,-206 1289,-206 1289,-154 685,-154"/>
</g>
<g id="clust34" class="cluster">
<title>cluster_CustomerModule_imports</title>
<polygon fill="none" stroke="black" points="501,-154 501,-206 677,-206 677,-154 501,-154"/>
</g>
<g id="clust35" class="cluster">
<title>cluster_CustomerModule_exports</title>
<polygon fill="none" stroke="black" points="16,-154 16,-206 493,-206 493,-154 16,-154"/>
</g>
<g id="clust44" class="cluster">
<title>cluster_HomeModule</title>
<polygon fill="none" stroke="black" stroke-dasharray="1,5" points="1305,-146 1305,-214 2607,-214 2607,-146 1305,-146"/>
</g>
<g id="clust45" class="cluster">
<title>cluster_HomeModule_declarations</title>
<polygon fill="none" stroke="black" points="1717,-154 1717,-206 2599,-206 2599,-154 1717,-154"/>
</g>
<g id="clust51" class="cluster">
<title>cluster_HomeModule_imports</title>
<polygon fill="none" stroke="black" points="1313,-154 1313,-206 1709,-206 1709,-154 1313,-154"/>
</g>
<g id="clust61" class="cluster">
<title>cluster_ProductsModule</title>
<polygon fill="none" stroke="black" stroke-dasharray="1,5" points="876,-70 876,-138 1442,-138 1442,-70 876,-70"/>
</g>
<g id="clust62" class="cluster">
<title>cluster_ProductsModule_declarations</title>
<polygon fill="none" stroke="black" points="1254,-78 1254,-130 1434,-130 1434,-78 1254,-78"/>
</g>
<g id="clust64" class="cluster">
<title>cluster_ProductsModule_imports</title>
<polygon fill="none" stroke="black" points="1076,-78 1076,-130 1246,-130 1246,-78 1076,-78"/>
</g>
<g id="clust65" class="cluster">
<title>cluster_ProductsModule_exports</title>
<polygon fill="none" stroke="black" points="884,-78 884,-130 1068,-130 1068,-78 884,-78"/>
</g>
<g id="clust74" class="cluster">
<title>cluster_SearchModule</title>
<polygon fill="none" stroke="black" stroke-dasharray="1,5" points="1450,-70 1450,-138 1914,-138 1914,-70 1450,-70"/>
</g>
<g id="clust75" class="cluster">
<title>cluster_SearchModule_declarations</title>
<polygon fill="none" stroke="black" points="1770,-78 1770,-130 1906,-130 1906,-78 1770,-78"/>
</g>
<g id="clust77" class="cluster">
<title>cluster_SearchModule_imports</title>
<polygon fill="none" stroke="black" points="1604,-78 1604,-130 1762,-130 1762,-78 1604,-78"/>
</g>
<g id="clust78" class="cluster">
<title>cluster_SearchModule_exports</title>
<polygon fill="none" stroke="black" points="1458,-78 1458,-130 1596,-130 1596,-78 1458,-78"/>
</g>
<g id="clust87" class="cluster">
<title>cluster_SharedModule</title>
<polygon fill="none" stroke="black" stroke-dasharray="1,5" points="2833,-146 2833,-214 5121,-214 5121,-146 2833,-146"/>
</g>
<g id="clust88" class="cluster">
<title>cluster_SharedModule_declarations</title>
<polygon fill="none" stroke="black" points="3992,-154 3992,-206 5113,-206 5113,-154 3992,-154"/>
</g>
<g id="clust97" class="cluster">
<title>cluster_SharedModule_exports</title>
<polygon fill="none" stroke="black" points="2841,-154 2841,-206 3984,-206 3984,-154 2841,-154"/>
</g>
<!-- AppComponent -->
<g id="node1" class="node">
<title>AppComponent</title>
<polygon fill="#ffffb3" stroke="black" points="2152.94,-274 2047.06,-274 2047.06,-238 2152.94,-238 2152.94,-274"/>
<text text-anchor="middle" x="2100" y="-251.8" font-family="Times,serif" font-size="14.00">AppComponent</text>
</g>
<!-- AppModule -->
<g id="node2" class="node">
<title>AppModule</title>
<polygon fill="#8dd3c7" stroke="black" points="1876.66,-339 1873.66,-343 1852.66,-343 1849.66,-339 1793.34,-339 1793.34,-303 1876.66,-303 1876.66,-339"/>
<text text-anchor="middle" x="1835" y="-316.8" font-family="Times,serif" font-size="14.00">AppModule</text>
</g>
<!-- AppComponent&#45;&gt;AppModule -->
<g id="edge1" class="edge">
<title>AppComponent&#45;&gt;AppModule</title>
<path fill="none" stroke="black" d="M2100,-274.28C2100,-295.32 2100,-327 2100,-327 2100,-327 1886.7,-327 1886.7,-327"/>
<polygon fill="black" stroke="black" points="1886.7,-323.5 1876.7,-327 1886.7,-330.5 1886.7,-323.5"/>
</g>
<!-- AppComponent  -->
<g id="node7" class="node">
<title>AppComponent </title>
<polygon fill="#80b1d3" stroke="black" points="1889.44,-404 1780.56,-404 1780.56,-368 1889.44,-368 1889.44,-404"/>
<text text-anchor="middle" x="1835" y="-381.8" font-family="Times,serif" font-size="14.00">AppComponent </text>
</g>
<!-- AppModule&#45;&gt;AppComponent  -->
<g id="edge6" class="edge">
<title>AppModule&#45;&gt;AppComponent </title>
<path fill="none" stroke="black" stroke-dasharray="1,5" d="M1835,-339.11C1835,-339.11 1835,-357.99 1835,-357.99"/>
<polygon fill="black" stroke="black" points="1831.5,-357.99 1835,-367.99 1838.5,-357.99 1831.5,-357.99"/>
</g>
<!-- AppRoutingModule -->
<g id="node3" class="node">
<title>AppRoutingModule</title>
<polygon fill="#8dd3c7" stroke="black" points="2023.27,-274 2020.27,-278 1999.27,-278 1996.27,-274 1894.73,-274 1894.73,-238 2023.27,-238 2023.27,-274"/>
<text text-anchor="middle" x="1959" y="-251.8" font-family="Times,serif" font-size="14.00">AppRoutingModule</text>
</g>
<!-- AppRoutingModule&#45;&gt;AppModule -->
<g id="edge2" class="edge">
<title>AppRoutingModule&#45;&gt;AppModule</title>
<path fill="none" stroke="black" d="M1959,-274.02C1959,-291.37 1959,-315 1959,-315 1959,-315 1886.98,-315 1886.98,-315"/>
<polygon fill="black" stroke="black" points="1886.98,-311.5 1876.98,-315 1886.98,-318.5 1886.98,-311.5"/>
</g>
<!-- CartModule -->
<g id="node4" class="node">
<title>CartModule</title>
<polygon fill="#8dd3c7" stroke="black" points="1876.65,-274 1873.65,-278 1852.65,-278 1849.65,-274 1793.35,-274 1793.35,-238 1876.65,-238 1876.65,-274"/>
<text text-anchor="middle" x="1835" y="-251.8" font-family="Times,serif" font-size="14.00">CartModule</text>
</g>
<!-- CartModule&#45;&gt;AppModule -->
<g id="edge3" class="edge">
<title>CartModule&#45;&gt;AppModule</title>
<path fill="none" stroke="black" d="M1835,-274.11C1835,-274.11 1835,-292.99 1835,-292.99"/>
<polygon fill="black" stroke="black" points="1831.5,-292.99 1835,-302.99 1838.5,-292.99 1831.5,-292.99"/>
</g>
<!-- CustomerModule -->
<g id="node5" class="node">
<title>CustomerModule</title>
<polygon fill="#8dd3c7" stroke="black" points="1662.99,-274 1659.99,-278 1638.99,-278 1635.99,-274 1549.01,-274 1549.01,-238 1662.99,-238 1662.99,-274"/>
<text text-anchor="middle" x="1606" y="-251.8" font-family="Times,serif" font-size="14.00">CustomerModule</text>
</g>
<!-- CustomerModule&#45;&gt;AppModule -->
<g id="edge4" class="edge">
<title>CustomerModule&#45;&gt;AppModule</title>
<path fill="none" stroke="black" d="M1606,-274.28C1606,-295.32 1606,-327 1606,-327 1606,-327 1783.26,-327 1783.26,-327"/>
<polygon fill="black" stroke="black" points="1783.26,-330.5 1793.26,-327 1783.26,-323.5 1783.26,-330.5"/>
</g>
<!-- LoginComponent  -->
<g id="node17" class="node">
<title>LoginComponent </title>
<polygon fill="#fb8072" stroke="black" points="485.28,-198 366.72,-198 366.72,-162 485.28,-162 485.28,-198"/>
<text text-anchor="middle" x="426" y="-175.8" font-family="Times,serif" font-size="14.00">LoginComponent </text>
</g>
<!-- CustomerModule&#45;&gt;LoginComponent  -->
<g id="edge17" class="edge">
<title>CustomerModule&#45;&gt;LoginComponent </title>
<path fill="none" stroke="black" stroke-dasharray="5,2" d="M1548.69,-262C1312.38,-262 426,-262 426,-262 426,-262 426,-208.2 426,-208.2"/>
<polygon fill="black" stroke="black" points="429.5,-208.2 426,-198.2 422.5,-208.2 429.5,-208.2"/>
</g>
<!-- RegisterComponent  -->
<g id="node18" class="node">
<title>RegisterComponent </title>
<polygon fill="#fb8072" stroke="black" points="348.99,-198 217.01,-198 217.01,-162 348.99,-162 348.99,-198"/>
<text text-anchor="middle" x="283" y="-175.8" font-family="Times,serif" font-size="14.00">RegisterComponent </text>
</g>
<!-- CustomerModule&#45;&gt;RegisterComponent  -->
<g id="edge18" class="edge">
<title>CustomerModule&#45;&gt;RegisterComponent </title>
<path fill="none" stroke="black" stroke-dasharray="5,2" d="M1548.73,-266C1294.79,-266 283,-266 283,-266 283,-266 283,-208.24 283,-208.24"/>
<polygon fill="black" stroke="black" points="286.5,-208.24 283,-198.24 279.5,-208.24 286.5,-208.24"/>
</g>
<!-- SelectionScreenComponent  -->
<g id="node19" class="node">
<title>SelectionScreenComponent </title>
<polygon fill="#fb8072" stroke="black" points="199.52,-198 24.48,-198 24.48,-162 199.52,-162 199.52,-198"/>
<text text-anchor="middle" x="112" y="-175.8" font-family="Times,serif" font-size="14.00">SelectionScreenComponent </text>
</g>
<!-- CustomerModule&#45;&gt;SelectionScreenComponent  -->
<g id="edge19" class="edge">
<title>CustomerModule&#45;&gt;SelectionScreenComponent </title>
<path fill="none" stroke="black" stroke-dasharray="5,2" d="M1548.8,-270C1275.07,-270 112,-270 112,-270 112,-270 112,-208.21 112,-208.21"/>
<polygon fill="black" stroke="black" points="115.5,-208.21 112,-198.21 108.5,-208.21 115.5,-208.21"/>
</g>
<!-- HomeModule -->
<g id="node6" class="node">
<title>HomeModule</title>
<polygon fill="#8dd3c7" stroke="black" points="1774.76,-274 1771.76,-278 1750.76,-278 1747.76,-274 1681.24,-274 1681.24,-238 1774.76,-238 1774.76,-274"/>
<text text-anchor="middle" x="1728" y="-251.8" font-family="Times,serif" font-size="14.00">HomeModule</text>
</g>
<!-- HomeModule&#45;&gt;AppModule -->
<g id="edge5" class="edge">
<title>HomeModule&#45;&gt;AppModule</title>
<path fill="none" stroke="black" d="M1728,-274.02C1728,-291.37 1728,-315 1728,-315 1728,-315 1783.32,-315 1783.32,-315"/>
<polygon fill="black" stroke="black" points="1783.32,-318.5 1793.32,-315 1783.32,-311.5 1783.32,-318.5"/>
</g>
<!-- CartComponent -->
<g id="node8" class="node">
<title>CartComponent</title>
<polygon fill="#ffffb3" stroke="black" points="2957.94,-122 2852.06,-122 2852.06,-86 2957.94,-86 2957.94,-122"/>
<text text-anchor="middle" x="2905" y="-99.8" font-family="Times,serif" font-size="14.00">CartComponent</text>
</g>
<!-- CartComponent&#45;&gt;CartModule -->
<g id="edge7" class="edge">
<title>CartComponent&#45;&gt;CartModule</title>
<path fill="none" stroke="black" d="M2851.98,-104C2797.3,-104 2719.97,-104 2719.97,-104 2719.97,-104 2719.97,-220 2719.97,-220 2719.97,-220 1809.9,-220 1809.9,-220 1809.9,-220 1809.9,-227.58 1809.9,-227.58"/>
<polygon fill="black" stroke="black" points="1806.4,-227.58 1809.9,-237.58 1813.4,-227.58 1806.4,-227.58"/>
</g>
<!-- SuccessComponent -->
<g id="node9" class="node">
<title>SuccessComponent</title>
<polygon fill="#ffffb3" stroke="black" points="3101.65,-122 2976.35,-122 2976.35,-86 3101.65,-86 3101.65,-122"/>
<text text-anchor="middle" x="3039" y="-99.8" font-family="Times,serif" font-size="14.00">SuccessComponent</text>
</g>
<!-- SuccessComponent&#45;&gt;CartModule -->
<g id="edge8" class="edge">
<title>SuccessComponent&#45;&gt;CartModule</title>
<path fill="none" stroke="black" d="M3034.53,-122.07C3034.53,-155.36 3034.53,-223 3034.53,-223 3034.53,-223 1826.63,-223 1826.63,-223 1826.63,-223 1826.63,-227.96 1826.63,-227.96"/>
<polygon fill="black" stroke="black" points="1823.13,-227.96 1826.63,-237.96 1830.13,-227.96 1823.13,-227.96"/>
</g>
<!-- CartRoutingModule -->
<g id="node10" class="node">
<title>CartRoutingModule</title>
<polygon fill="#8dd3c7" stroke="black" points="3254.27,-122 3251.27,-126 3230.27,-126 3227.27,-122 3125.73,-122 3125.73,-86 3254.27,-86 3254.27,-122"/>
<text text-anchor="middle" x="3190" y="-99.8" font-family="Times,serif" font-size="14.00">CartRoutingModule</text>
</g>
<!-- CartRoutingModule&#45;&gt;CartModule -->
<g id="edge9" class="edge">
<title>CartRoutingModule&#45;&gt;CartModule</title>
<path fill="none" stroke="black" d="M3177.22,-122C3177.22,-155.94 3177.22,-226 3177.22,-226 3177.22,-226 1843.37,-226 1843.37,-226 1843.37,-226 1843.37,-227.86 1843.37,-227.86"/>
<polygon fill="black" stroke="black" points="1839.87,-227.86 1843.37,-237.86 1846.87,-227.86 1839.87,-227.86"/>
</g>
<!-- SharedModule -->
<g id="node11" class="node">
<title>SharedModule</title>
<polygon fill="#8dd3c7" stroke="black" points="3371.42,-122 3368.42,-126 3347.42,-126 3344.42,-122 3272.58,-122 3272.58,-86 3371.42,-86 3371.42,-122"/>
<text text-anchor="middle" x="3322" y="-99.8" font-family="Times,serif" font-size="14.00">SharedModule</text>
</g>
<!-- SharedModule&#45;&gt;CartModule -->
<g id="edge10" class="edge">
<title>SharedModule&#45;&gt;CartModule</title>
<path fill="none" stroke="black" d="M3326.98,-122.18C3326.98,-156.84 3326.98,-229 3326.98,-229 3326.98,-229 1860.1,-229 1860.1,-229 1860.1,-229 1860.1,-229.88 1860.1,-229.88"/>
<polygon fill="black" stroke="black" points="1856.6,-227.84 1860.1,-237.84 1863.6,-227.84 1856.6,-227.84"/>
</g>
<!-- SharedModule&#45;&gt;CustomerModule -->
<g id="edge16" class="edge">
<title>SharedModule&#45;&gt;CustomerModule</title>
<path fill="none" stroke="black" d="M3318.19,-122.43C3318.19,-150.82 3318.19,-202 3318.19,-202 3318.19,-202 1612.78,-202 1612.78,-202 1612.78,-202 1612.78,-227.72 1612.78,-227.72"/>
<polygon fill="black" stroke="black" points="1609.28,-227.72 1612.78,-237.72 1616.28,-227.72 1609.28,-227.72"/>
</g>
<!-- SharedModule&#45;&gt;HomeModule -->
<g id="edge28" class="edge">
<title>SharedModule&#45;&gt;HomeModule</title>
<path fill="none" stroke="black" d="M3322.59,-122.16C3322.59,-154.1 3322.59,-217 3322.59,-217 3322.59,-217 1767.76,-217 1767.76,-217 1767.76,-217 1767.76,-227.87 1767.76,-227.87"/>
<polygon fill="black" stroke="black" points="1764.26,-227.87 1767.76,-237.87 1771.26,-227.87 1764.26,-227.87"/>
</g>
<!-- ProductsModule -->
<g id="node26" class="node">
<title>ProductsModule</title>
<polygon fill="#8dd3c7" stroke="black" points="1429.04,-198 1426.04,-202 1405.04,-202 1402.04,-198 1320.96,-198 1320.96,-162 1429.04,-162 1429.04,-198"/>
<text text-anchor="middle" x="1375" y="-175.8" font-family="Times,serif" font-size="14.00">ProductsModule</text>
</g>
<!-- SharedModule&#45;&gt;ProductsModule -->
<g id="edge31" class="edge">
<title>SharedModule&#45;&gt;ProductsModule</title>
<path fill="none" stroke="black" d="M3286.46,-122.16C3286.46,-127.04 3286.46,-131 3286.46,-131 3286.46,-131 1408.68,-131 1408.68,-131 1408.68,-131 1408.68,-151.75 1408.68,-151.75"/>
<polygon fill="black" stroke="black" points="1405.18,-151.75 1408.68,-161.75 1412.18,-151.75 1405.18,-151.75"/>
</g>
<!-- SharedModule&#45;&gt;ProductsModule -->
<g id="edge32" class="edge">
<title>SharedModule&#45;&gt;ProductsModule</title>
<path fill="none" stroke="black" d="M3279.62,-122.12C3279.62,-124.97 3279.62,-127 3279.62,-127 3279.62,-127 1391.09,-127 1391.09,-127 1391.09,-127 1391.09,-151.76 1391.09,-151.76"/>
<polygon fill="black" stroke="black" points="1387.59,-151.76 1391.09,-161.76 1394.59,-151.76 1387.59,-151.76"/>
</g>
<!-- AddToCartModalComponent  -->
<g id="node41" class="node">
<title>AddToCartModalComponent </title>
<polygon fill="#fb8072" stroke="black" points="3975.64,-198 3790.36,-198 3790.36,-162 3975.64,-162 3975.64,-198"/>
<text text-anchor="middle" x="3883" y="-175.8" font-family="Times,serif" font-size="14.00">AddToCartModalComponent </text>
</g>
<!-- SharedModule&#45;&gt;AddToCartModalComponent  -->
<g id="edge44" class="edge">
<title>SharedModule&#45;&gt;AddToCartModalComponent </title>
<path fill="none" stroke="black" stroke-dasharray="5,2" d="M3371.29,-113C3508.19,-113 3883,-113 3883,-113 3883,-113 3883,-151.69 3883,-151.69"/>
<polygon fill="black" stroke="black" points="3879.5,-151.69 3883,-161.69 3886.5,-151.69 3879.5,-151.69"/>
</g>
<!-- BottomMenuComponent  -->
<g id="node42" class="node">
<title>BottomMenuComponent </title>
<polygon fill="#fb8072" stroke="black" points="3772.5,-198 3613.5,-198 3613.5,-162 3772.5,-162 3772.5,-198"/>
<text text-anchor="middle" x="3693" y="-175.8" font-family="Times,serif" font-size="14.00">BottomMenuComponent </text>
</g>
<!-- SharedModule&#45;&gt;BottomMenuComponent  -->
<g id="edge45" class="edge">
<title>SharedModule&#45;&gt;BottomMenuComponent </title>
<path fill="none" stroke="black" stroke-dasharray="5,2" d="M3371.27,-116C3472.19,-116 3693,-116 3693,-116 3693,-116 3693,-151.83 3693,-151.83"/>
<polygon fill="black" stroke="black" points="3689.5,-151.83 3693,-161.83 3696.5,-151.83 3689.5,-151.83"/>
</g>
<!-- FooterComponent  -->
<g id="node43" class="node">
<title>FooterComponent </title>
<polygon fill="#fb8072" stroke="black" points="3595.88,-198 3474.12,-198 3474.12,-162 3595.88,-162 3595.88,-198"/>
<text text-anchor="middle" x="3535" y="-175.8" font-family="Times,serif" font-size="14.00">FooterComponent </text>
</g>
<!-- SharedModule&#45;&gt;FooterComponent  -->
<g id="edge46" class="edge">
<title>SharedModule&#45;&gt;FooterComponent </title>
<path fill="none" stroke="black" stroke-dasharray="5,2" d="M3371.4,-119C3434.32,-119 3535,-119 3535,-119 3535,-119 3535,-151.7 3535,-151.7"/>
<polygon fill="black" stroke="black" points="3531.5,-151.7 3535,-161.7 3538.5,-151.7 3531.5,-151.7"/>
</g>
<!-- HeaderComponent  -->
<g id="node44" class="node">
<title>HeaderComponent </title>
<polygon fill="#fb8072" stroke="black" points="3456.74,-198 3331.26,-198 3331.26,-162 3456.74,-162 3456.74,-198"/>
<text text-anchor="middle" x="3394" y="-175.8" font-family="Times,serif" font-size="14.00">HeaderComponent </text>
</g>
<!-- SharedModule&#45;&gt;HeaderComponent  -->
<g id="edge47" class="edge">
<title>SharedModule&#45;&gt;HeaderComponent </title>
<path fill="none" stroke="black" stroke-dasharray="5,2" d="M3351.29,-122.01C3351.29,-122.01 3351.29,-151.85 3351.29,-151.85"/>
<polygon fill="black" stroke="black" points="3347.79,-151.85 3351.29,-161.85 3354.79,-151.85 3347.79,-151.85"/>
</g>
<!-- SidebarComponent  -->
<g id="node45" class="node">
<title>SidebarComponent </title>
<polygon fill="#fb8072" stroke="black" points="3313.6,-198 3186.4,-198 3186.4,-162 3313.6,-162 3313.6,-198"/>
<text text-anchor="middle" x="3250" y="-175.8" font-family="Times,serif" font-size="14.00">SidebarComponent </text>
</g>
<!-- SharedModule&#45;&gt;SidebarComponent  -->
<g id="edge48" class="edge">
<title>SharedModule&#45;&gt;SidebarComponent </title>
<path fill="none" stroke="black" stroke-dasharray="5,2" d="M3306.96,-122.01C3306.96,-122.01 3306.96,-151.85 3306.96,-151.85"/>
<polygon fill="black" stroke="black" points="3303.46,-151.85 3306.96,-161.85 3310.46,-151.85 3303.46,-151.85"/>
</g>
<!-- TakaCurrencyPipe  -->
<g id="node46" class="node">
<title>TakaCurrencyPipe </title>
<polygon fill="#fb8072" stroke="black" points="3168.46,-198 3043.54,-198 3043.54,-162 3168.46,-162 3168.46,-198"/>
<text text-anchor="middle" x="3106" y="-175.8" font-family="Times,serif" font-size="14.00">TakaCurrencyPipe </text>
</g>
<!-- SharedModule&#45;&gt;TakaCurrencyPipe  -->
<g id="edge49" class="edge">
<title>SharedModule&#45;&gt;TakaCurrencyPipe </title>
<path fill="none" stroke="black" stroke-dasharray="5,2" d="M3300.13,-122.42C3300.13,-131.28 3300.13,-140 3300.13,-140 3300.13,-140 3146.92,-140 3146.92,-140 3146.92,-140 3146.92,-151.87 3146.92,-151.87"/>
<polygon fill="black" stroke="black" points="3143.42,-151.87 3146.92,-161.87 3150.42,-151.87 3143.42,-151.87"/>
</g>
<!-- WelcomeScreenComponent  -->
<g id="node47" class="node">
<title>WelcomeScreenComponent </title>
<polygon fill="#fb8072" stroke="black" points="3025.06,-198 2848.94,-198 2848.94,-162 3025.06,-162 3025.06,-198"/>
<text text-anchor="middle" x="2937" y="-175.8" font-family="Times,serif" font-size="14.00">WelcomeScreenComponent </text>
</g>
<!-- SharedModule&#45;&gt;WelcomeScreenComponent  -->
<g id="edge50" class="edge">
<title>SharedModule&#45;&gt;WelcomeScreenComponent </title>
<path fill="none" stroke="black" stroke-dasharray="5,2" d="M3293.29,-122.24C3293.29,-129.43 3293.29,-136 3293.29,-136 3293.29,-136 3000.73,-136 3000.73,-136 3000.73,-136 3000.73,-151.85 3000.73,-151.85"/>
<polygon fill="black" stroke="black" points="2997.23,-151.85 3000.73,-161.85 3004.23,-151.85 2997.23,-151.85"/>
</g>
<!-- LoginComponent -->
<g id="node12" class="node">
<title>LoginComponent</title>
<polygon fill="#ffffb3" stroke="black" points="1281.28,-198 1166.72,-198 1166.72,-162 1281.28,-162 1281.28,-198"/>
<text text-anchor="middle" x="1224" y="-175.8" font-family="Times,serif" font-size="14.00">LoginComponent</text>
</g>
<!-- LoginComponent&#45;&gt;CustomerModule -->
<g id="edge11" class="edge">
<title>LoginComponent&#45;&gt;CustomerModule</title>
<path fill="none" stroke="black" d="M1224,-198.27C1224,-216.56 1224,-242 1224,-242 1224,-242 1538.81,-242 1538.81,-242"/>
<polygon fill="black" stroke="black" points="1538.81,-245.5 1548.81,-242 1538.81,-238.5 1538.81,-245.5"/>
</g>
<!-- ProfileComponent -->
<g id="node13" class="node">
<title>ProfileComponent</title>
<polygon fill="#ffffb3" stroke="black" points="1148.93,-198 1029.07,-198 1029.07,-162 1148.93,-162 1148.93,-198"/>
<text text-anchor="middle" x="1089" y="-175.8" font-family="Times,serif" font-size="14.00">ProfileComponent</text>
</g>
<!-- ProfileComponent&#45;&gt;CustomerModule -->
<g id="edge12" class="edge">
<title>ProfileComponent&#45;&gt;CustomerModule</title>
<path fill="none" stroke="black" d="M1089,-198.03C1089,-217.58 1089,-246 1089,-246 1089,-246 1538.7,-246 1538.7,-246"/>
<polygon fill="black" stroke="black" points="1538.7,-249.5 1548.7,-246 1538.7,-242.5 1538.7,-249.5"/>
</g>
<!-- RegisterComponent -->
<g id="node14" class="node">
<title>RegisterComponent</title>
<polygon fill="#ffffb3" stroke="black" points="1010.98,-198 883.02,-198 883.02,-162 1010.98,-162 1010.98,-198"/>
<text text-anchor="middle" x="947" y="-175.8" font-family="Times,serif" font-size="14.00">RegisterComponent</text>
</g>
<!-- RegisterComponent&#45;&gt;CustomerModule -->
<g id="edge13" class="edge">
<title>RegisterComponent&#45;&gt;CustomerModule</title>
<path fill="none" stroke="black" d="M947,-198.03C947,-218.77 947,-250 947,-250 947,-250 1538.96,-250 1538.96,-250"/>
<polygon fill="black" stroke="black" points="1538.96,-253.5 1548.96,-250 1538.96,-246.5 1538.96,-253.5"/>
</g>
<!-- SelectionScreenComponent -->
<g id="node15" class="node">
<title>SelectionScreenComponent</title>
<polygon fill="#ffffb3" stroke="black" points="864.52,-198 693.48,-198 693.48,-162 864.52,-162 864.52,-198"/>
<text text-anchor="middle" x="779" y="-175.8" font-family="Times,serif" font-size="14.00">SelectionScreenComponent</text>
</g>
<!-- SelectionScreenComponent&#45;&gt;CustomerModule -->
<g id="edge14" class="edge">
<title>SelectionScreenComponent&#45;&gt;CustomerModule</title>
<path fill="none" stroke="black" d="M779,-198.29C779,-220.21 779,-254 779,-254 779,-254 1538.83,-254 1538.83,-254"/>
<polygon fill="black" stroke="black" points="1538.83,-257.5 1548.83,-254 1538.83,-250.5 1538.83,-257.5"/>
</g>
<!-- CustomerRoutingModule -->
<g id="node16" class="node">
<title>CustomerRoutingModule</title>
<polygon fill="#8dd3c7" stroke="black" points="668.61,-198 665.61,-202 644.61,-202 641.61,-198 509.39,-198 509.39,-162 668.61,-162 668.61,-198"/>
<text text-anchor="middle" x="589" y="-175.8" font-family="Times,serif" font-size="14.00">CustomerRoutingModule</text>
</g>
<!-- CustomerRoutingModule&#45;&gt;CustomerModule -->
<g id="edge15" class="edge">
<title>CustomerRoutingModule&#45;&gt;CustomerModule</title>
<path fill="none" stroke="black" d="M589,-198.09C589,-221.13 589,-258 589,-258 589,-258 1538.78,-258 1538.78,-258"/>
<polygon fill="black" stroke="black" points="1538.78,-261.5 1548.78,-258 1538.78,-254.5 1538.78,-261.5"/>
</g>
<!-- CategoryListComponent -->
<g id="node20" class="node">
<title>CategoryListComponent</title>
<polygon fill="#ffffb3" stroke="black" points="2591.43,-198 2436.57,-198 2436.57,-162 2591.43,-162 2591.43,-198"/>
<text text-anchor="middle" x="2514" y="-175.8" font-family="Times,serif" font-size="14.00">CategoryListComponent</text>
</g>
<!-- CategoryListComponent&#45;&gt;HomeModule -->
<g id="edge20" class="edge">
<title>CategoryListComponent&#45;&gt;HomeModule</title>
<path fill="none" stroke="black" d="M2514,-198.19C2514,-206.28 2514,-214 2514,-214 2514,-214 1760.63,-214 1760.63,-214 1760.63,-214 1760.63,-227.94 1760.63,-227.94"/>
<polygon fill="black" stroke="black" points="1757.13,-227.94 1760.63,-237.94 1764.13,-227.94 1757.13,-227.94"/>
</g>
<!-- CategoryProductGridComponent -->
<g id="node21" class="node">
<title>CategoryProductGridComponent</title>
<polygon fill="#ffffb3" stroke="black" points="2418.86,-198 2217.14,-198 2217.14,-162 2418.86,-162 2418.86,-198"/>
<text text-anchor="middle" x="2318" y="-175.8" font-family="Times,serif" font-size="14.00">CategoryProductGridComponent</text>
</g>
<!-- CategoryProductGridComponent&#45;&gt;HomeModule -->
<g id="edge21" class="edge">
<title>CategoryProductGridComponent&#45;&gt;HomeModule</title>
<path fill="none" stroke="black" d="M2318,-198.03C2318,-204.85 2318,-211 2318,-211 2318,-211 1753.51,-211 1753.51,-211 1753.51,-211 1753.51,-227.96 1753.51,-227.96"/>
<polygon fill="black" stroke="black" points="1750.01,-227.96 1753.51,-237.96 1757.01,-227.96 1750.01,-227.96"/>
</g>
<!-- HomeComponent -->
<g id="node22" class="node">
<title>HomeComponent</title>
<polygon fill="#ffffb3" stroke="black" points="2198.55,-198 2083.45,-198 2083.45,-162 2198.55,-162 2198.55,-198"/>
<text text-anchor="middle" x="2141" y="-175.8" font-family="Times,serif" font-size="14.00">HomeComponent</text>
</g>
<!-- HomeComponent&#45;&gt;HomeModule -->
<g id="edge22" class="edge">
<title>HomeComponent&#45;&gt;HomeModule</title>
<path fill="none" stroke="black" d="M2117.97,-198.21C2117.97,-203.55 2117.97,-208 2117.97,-208 2117.97,-208 1746.38,-208 1746.38,-208 1746.38,-208 1746.38,-227.85 1746.38,-227.85"/>
<polygon fill="black" stroke="black" points="1742.88,-227.85 1746.38,-237.85 1749.88,-227.85 1742.88,-227.85"/>
</g>
<!-- ProductComponent -->
<g id="node23" class="node">
<title>ProductComponent</title>
<polygon fill="#ffffb3" stroke="black" points="2065.38,-198 1940.62,-198 1940.62,-162 2065.38,-162 2065.38,-198"/>
<text text-anchor="middle" x="2003" y="-175.8" font-family="Times,serif" font-size="14.00">ProductComponent</text>
</g>
<!-- ProductComponent&#45;&gt;HomeModule -->
<g id="edge23" class="edge">
<title>ProductComponent&#45;&gt;HomeModule</title>
<path fill="none" stroke="black" d="M1981.97,-198.17C1981.97,-202.05 1981.97,-205 1981.97,-205 1981.97,-205 1739.26,-205 1739.26,-205 1739.26,-205 1739.26,-227.88 1739.26,-227.88"/>
<polygon fill="black" stroke="black" points="1735.76,-227.88 1739.26,-237.88 1742.76,-227.88 1735.76,-227.88"/>
</g>
<!-- ProductsByCategoryComponent -->
<g id="node24" class="node">
<title>ProductsByCategoryComponent</title>
<polygon fill="#ffffb3" stroke="black" points="1922.98,-198 1725.02,-198 1725.02,-162 1922.98,-162 1922.98,-198"/>
<text text-anchor="middle" x="1824" y="-175.8" font-family="Times,serif" font-size="14.00">ProductsByCategoryComponent</text>
</g>
<!-- ProductsByCategoryComponent&#45;&gt;HomeModule -->
<g id="edge24" class="edge">
<title>ProductsByCategoryComponent&#45;&gt;HomeModule</title>
<path fill="none" stroke="black" d="M1732.13,-198.01C1732.13,-198.01 1732.13,-227.85 1732.13,-227.85"/>
<polygon fill="black" stroke="black" points="1728.63,-227.85 1732.13,-237.85 1735.63,-227.85 1728.63,-227.85"/>
</g>
<!-- HomeRoutingModule -->
<g id="node25" class="node">
<title>HomeRoutingModule</title>
<polygon fill="#8dd3c7" stroke="black" points="1701.38,-198 1698.38,-202 1677.38,-202 1674.38,-198 1562.62,-198 1562.62,-162 1701.38,-162 1701.38,-198"/>
<text text-anchor="middle" x="1632" y="-175.8" font-family="Times,serif" font-size="14.00">HomeRoutingModule</text>
</g>
<!-- HomeRoutingModule&#45;&gt;HomeModule -->
<g id="edge25" class="edge">
<title>HomeRoutingModule&#45;&gt;HomeModule</title>
<path fill="none" stroke="black" d="M1696.36,-198.01C1696.36,-198.01 1696.36,-227.85 1696.36,-227.85"/>
<polygon fill="black" stroke="black" points="1692.86,-227.85 1696.36,-237.85 1699.86,-227.85 1692.86,-227.85"/>
</g>
<!-- ProductsModule&#45;&gt;HomeModule -->
<g id="edge26" class="edge">
<title>ProductsModule&#45;&gt;HomeModule</title>
<path fill="none" stroke="black" d="M1375,-198.01C1375,-214.05 1375,-235 1375,-235 1375,-235 1686.2,-235 1686.2,-235 1686.2,-235 1686.2,-235.29 1686.2,-235.29"/>
<polygon fill="black" stroke="black" points="1682.7,-227.92 1686.2,-237.92 1689.7,-227.92 1682.7,-227.92"/>
</g>
<!-- ProductDetailsComponent  -->
<g id="node30" class="node">
<title>ProductDetailsComponent </title>
<polygon fill="#fb8072" stroke="black" points="1060.03,-122 891.97,-122 891.97,-86 1060.03,-86 1060.03,-122"/>
<text text-anchor="middle" x="976" y="-99.8" font-family="Times,serif" font-size="14.00">ProductDetailsComponent </text>
</g>
<!-- ProductsModule&#45;&gt;ProductDetailsComponent  -->
<g id="edge33" class="edge">
<title>ProductsModule&#45;&gt;ProductDetailsComponent </title>
<path fill="none" stroke="black" stroke-dasharray="5,2" d="M1338.32,-161.97C1338.32,-155.15 1338.32,-149 1338.32,-149 1338.32,-149 1044.65,-149 1044.65,-149 1044.65,-149 1044.65,-132.04 1044.65,-132.04"/>
<polygon fill="black" stroke="black" points="1048.15,-132.04 1044.65,-122.04 1041.15,-132.04 1048.15,-132.04"/>
</g>
<!-- SearchModule -->
<g id="node27" class="node">
<title>SearchModule</title>
<polygon fill="#8dd3c7" stroke="black" points="1544.64,-198 1541.64,-202 1520.64,-202 1517.64,-198 1447.36,-198 1447.36,-162 1544.64,-162 1544.64,-198"/>
<text text-anchor="middle" x="1496" y="-175.8" font-family="Times,serif" font-size="14.00">SearchModule</text>
</g>
<!-- SearchModule&#45;&gt;HomeModule -->
<g id="edge27" class="edge">
<title>SearchModule&#45;&gt;HomeModule</title>
<path fill="none" stroke="black" d="M1496,-198.19C1496,-213.18 1496,-232 1496,-232 1496,-232 1691.28,-232 1691.28,-232 1691.28,-232 1691.28,-232.58 1691.28,-232.58"/>
<polygon fill="black" stroke="black" points="1687.78,-227.81 1691.28,-237.81 1694.78,-227.81 1687.78,-227.81"/>
</g>
<!-- SearchComponent  -->
<g id="node33" class="node">
<title>SearchComponent </title>
<polygon fill="#fb8072" stroke="black" points="1588.42,-122 1465.58,-122 1465.58,-86 1588.42,-86 1588.42,-122"/>
<text text-anchor="middle" x="1527" y="-99.8" font-family="Times,serif" font-size="14.00">SearchComponent </text>
</g>
<!-- SearchModule&#45;&gt;SearchComponent  -->
<g id="edge36" class="edge">
<title>SearchModule&#45;&gt;SearchComponent </title>
<path fill="none" stroke="black" stroke-dasharray="5,2" d="M1485.36,-161.99C1485.36,-161.99 1485.36,-132.15 1485.36,-132.15"/>
<polygon fill="black" stroke="black" points="1488.86,-132.15 1485.36,-122.15 1481.86,-132.15 1488.86,-132.15"/>
</g>
<!-- ProductDetailsComponent -->
<g id="node28" class="node">
<title>ProductDetailsComponent</title>
<polygon fill="#ffffb3" stroke="black" points="1426.03,-122 1261.97,-122 1261.97,-86 1426.03,-86 1426.03,-122"/>
<text text-anchor="middle" x="1344" y="-99.8" font-family="Times,serif" font-size="14.00">ProductDetailsComponent</text>
</g>
<!-- ProductDetailsComponent&#45;&gt;ProductsModule -->
<g id="edge29" class="edge">
<title>ProductDetailsComponent&#45;&gt;ProductsModule</title>
<path fill="none" stroke="black" d="M1373.5,-122.01C1373.5,-122.01 1373.5,-151.85 1373.5,-151.85"/>
<polygon fill="black" stroke="black" points="1370,-151.85 1373.5,-161.85 1377,-151.85 1370,-151.85"/>
</g>
<!-- ProductsRoutingModule -->
<g id="node29" class="node">
<title>ProductsRoutingModule</title>
<polygon fill="#8dd3c7" stroke="black" points="1237.66,-122 1234.66,-126 1213.66,-126 1210.66,-122 1084.34,-122 1084.34,-86 1237.66,-86 1237.66,-122"/>
<text text-anchor="middle" x="1161" y="-99.8" font-family="Times,serif" font-size="14.00">ProductsRoutingModule</text>
</g>
<!-- ProductsRoutingModule&#45;&gt;ProductsModule -->
<g id="edge30" class="edge">
<title>ProductsRoutingModule&#45;&gt;ProductsModule</title>
<path fill="none" stroke="black" d="M1202.22,-122.1C1202.22,-133.09 1202.22,-145 1202.22,-145 1202.22,-145 1355.91,-145 1355.91,-145 1355.91,-145 1355.91,-151.68 1355.91,-151.68"/>
<polygon fill="black" stroke="black" points="1352.41,-151.68 1355.91,-161.68 1359.41,-151.68 1352.41,-151.68"/>
</g>
<!-- SearchComponent -->
<g id="node31" class="node">
<title>SearchComponent</title>
<polygon fill="#ffffb3" stroke="black" points="1897.92,-122 1778.08,-122 1778.08,-86 1897.92,-86 1897.92,-122"/>
<text text-anchor="middle" x="1838" y="-99.8" font-family="Times,serif" font-size="14.00">SearchComponent</text>
</g>
<!-- SearchComponent&#45;&gt;SearchModule -->
<g id="edge34" class="edge">
<title>SearchComponent&#45;&gt;SearchModule</title>
<path fill="none" stroke="black" d="M1838,-122.28C1838,-137.95 1838,-158 1838,-158 1838,-158 1525,-158 1525,-158 1525,-158 1525,-158.38 1525,-158.38"/>
<polygon fill="black" stroke="black" points="1521.5,-151.83 1525,-161.83 1528.5,-151.83 1521.5,-151.83"/>
</g>
<!-- SearchRoutingModule -->
<g id="node32" class="node">
<title>SearchRoutingModule</title>
<polygon fill="#8dd3c7" stroke="black" points="1754.25,-122 1751.25,-126 1730.25,-126 1727.25,-122 1611.75,-122 1611.75,-86 1754.25,-86 1754.25,-122"/>
<text text-anchor="middle" x="1683" y="-99.8" font-family="Times,serif" font-size="14.00">SearchRoutingModule</text>
</g>
<!-- SearchRoutingModule&#45;&gt;SearchModule -->
<g id="edge35" class="edge">
<title>SearchRoutingModule&#45;&gt;SearchModule</title>
<path fill="none" stroke="black" d="M1656.53,-122.05C1656.53,-136.37 1656.53,-154 1656.53,-154 1656.53,-154 1505.18,-154 1505.18,-154 1505.18,-154 1505.18,-154.79 1505.18,-154.79"/>
<polygon fill="black" stroke="black" points="1501.68,-151.94 1505.18,-161.94 1508.68,-151.94 1501.68,-151.94"/>
</g>
<!-- AddToCartModalComponent -->
<g id="node34" class="node">
<title>AddToCartModalComponent</title>
<polygon fill="#ffffb3" stroke="black" points="5104.64,-198 4923.36,-198 4923.36,-162 5104.64,-162 5104.64,-198"/>
<text text-anchor="middle" x="5014" y="-175.8" font-family="Times,serif" font-size="14.00">AddToCartModalComponent</text>
</g>
<!-- AddToCartModalComponent&#45;&gt;SharedModule -->
<g id="edge37" class="edge">
<title>AddToCartModalComponent&#45;&gt;SharedModule</title>
<path fill="none" stroke="black" d="M5014,-161.79C5014,-135.49 5014,-90 5014,-90 5014,-90 3381.27,-90 3381.27,-90"/>
<polygon fill="black" stroke="black" points="3381.27,-86.5 3371.27,-90 3381.27,-93.5 3381.27,-86.5"/>
</g>
<!-- BottomMenuComponent -->
<g id="node35" class="node">
<title>BottomMenuComponent</title>
<polygon fill="#ffffb3" stroke="black" points="4905,-198 4749,-198 4749,-162 4905,-162 4905,-198"/>
<text text-anchor="middle" x="4827" y="-175.8" font-family="Times,serif" font-size="14.00">BottomMenuComponent</text>
</g>
<!-- BottomMenuComponent&#45;&gt;SharedModule -->
<g id="edge38" class="edge">
<title>BottomMenuComponent&#45;&gt;SharedModule</title>
<path fill="none" stroke="black" d="M4827,-161.97C4827,-136.49 4827,-93 4827,-93 4827,-93 3381.22,-93 3381.22,-93"/>
<polygon fill="black" stroke="black" points="3381.22,-89.5 3371.22,-93 3381.22,-96.5 3381.22,-89.5"/>
</g>
<!-- FooterComponent -->
<g id="node36" class="node">
<title>FooterComponent</title>
<polygon fill="#ffffb3" stroke="black" points="4730.88,-198 4613.12,-198 4613.12,-162 4730.88,-162 4730.88,-198"/>
<text text-anchor="middle" x="4672" y="-175.8" font-family="Times,serif" font-size="14.00">FooterComponent</text>
</g>
<!-- FooterComponent&#45;&gt;SharedModule -->
<g id="edge39" class="edge">
<title>FooterComponent&#45;&gt;SharedModule</title>
<path fill="none" stroke="black" d="M4672,-161.77C4672,-137.07 4672,-96 4672,-96 4672,-96 3381.25,-96 3381.25,-96"/>
<polygon fill="black" stroke="black" points="3381.25,-92.5 3371.25,-96 3381.25,-99.5 3381.25,-92.5"/>
</g>
<!-- HeaderComponent -->
<g id="node37" class="node">
<title>HeaderComponent</title>
<polygon fill="#ffffb3" stroke="black" points="4594.74,-198 4473.26,-198 4473.26,-162 4594.74,-162 4594.74,-198"/>
<text text-anchor="middle" x="4534" y="-175.8" font-family="Times,serif" font-size="14.00">HeaderComponent</text>
</g>
<!-- HeaderComponent&#45;&gt;SharedModule -->
<g id="edge40" class="edge">
<title>HeaderComponent&#45;&gt;SharedModule</title>
<path fill="none" stroke="black" d="M4534,-161.85C4534,-138.24 4534,-100 4534,-100 4534,-100 3381.39,-100 3381.39,-100"/>
<polygon fill="black" stroke="black" points="3381.39,-96.5 3371.39,-100 3381.39,-103.5 3381.39,-96.5"/>
</g>
<!-- SidebarComponent -->
<g id="node38" class="node">
<title>SidebarComponent</title>
<polygon fill="#ffffb3" stroke="black" points="4455.1,-198 4330.9,-198 4330.9,-162 4455.1,-162 4455.1,-198"/>
<text text-anchor="middle" x="4393" y="-175.8" font-family="Times,serif" font-size="14.00">SidebarComponent</text>
</g>
<!-- SidebarComponent&#45;&gt;SharedModule -->
<g id="edge41" class="edge">
<title>SidebarComponent&#45;&gt;SharedModule</title>
<path fill="none" stroke="black" d="M4393,-161.75C4393,-138.98 4393,-103 4393,-103 4393,-103 3381.51,-103 3381.51,-103"/>
<polygon fill="black" stroke="black" points="3381.51,-99.5 3371.51,-103 3381.51,-106.5 3381.51,-99.5"/>
</g>
<!-- TakaCurrencyPipe -->
<g id="node39" class="node">
<title>TakaCurrencyPipe</title>
<polygon fill="#ffffb3" stroke="black" points="4312.46,-198 4191.54,-198 4191.54,-162 4312.46,-162 4312.46,-198"/>
<text text-anchor="middle" x="4252" y="-175.8" font-family="Times,serif" font-size="14.00">TakaCurrencyPipe</text>
</g>
<!-- TakaCurrencyPipe&#45;&gt;SharedModule -->
<g id="edge42" class="edge">
<title>TakaCurrencyPipe&#45;&gt;SharedModule</title>
<path fill="none" stroke="black" d="M4252,-161.71C4252,-139.79 4252,-106 4252,-106 4252,-106 3381.34,-106 3381.34,-106"/>
<polygon fill="black" stroke="black" points="3381.34,-102.5 3371.34,-106 3381.34,-109.5 3381.34,-102.5"/>
</g>
<!-- WelcomeScreenComponent -->
<g id="node40" class="node">
<title>WelcomeScreenComponent</title>
<polygon fill="#ffffb3" stroke="black" points="4173.56,-198 4000.44,-198 4000.44,-162 4173.56,-162 4173.56,-198"/>
<text text-anchor="middle" x="4087" y="-175.8" font-family="Times,serif" font-size="14.00">WelcomeScreenComponent</text>
</g>
<!-- WelcomeScreenComponent&#45;&gt;SharedModule -->
<g id="edge43" class="edge">
<title>WelcomeScreenComponent&#45;&gt;SharedModule</title>
<path fill="none" stroke="black" d="M4087,-161.72C4087,-140.68 4087,-109 4087,-109 4087,-109 3381.31,-109 3381.31,-109"/>
<polygon fill="black" stroke="black" points="3381.31,-105.5 3371.31,-109 3381.31,-112.5 3381.31,-105.5"/>
</g>
</g>
</svg>
