<?xml version="1.0" encoding="UTF-8" standalone="no"?>
<!DOCTYPE svg PUBLIC "-//W3C//DTD SVG 1.1//EN"
 "http://www.w3.org/Graphics/SVG/1.1/DTD/svg11.dtd">
<!-- Generated by graphviz version 2.47.0 (20210316.0004)
 -->
<!-- Title: dependencies Pages: 1 -->
<svg width="514pt" height="284pt"
 viewBox="0.00 0.00 514.00 284.00" xmlns="http://www.w3.org/2000/svg" xmlns:xlink="http://www.w3.org/1999/xlink">
<g id="graph0" class="graph" transform="scale(1 1) rotate(0) translate(4 280)">
<title>dependencies</title>
<polygon fill="white" stroke="transparent" points="-4,4 -4,-280 510,-280 510,4 -4,4"/>
<text text-anchor="start" x="232.01" y="-42.4" font-family="Times-12" font-weight="bold" font-size="14.00">Legend</text>
<polygon fill="#ffffb3" stroke="transparent" points="19,-10 19,-30 39,-30 39,-10 19,-10"/>
<text text-anchor="start" x="42.63" y="-15.4" font-family="Times-12" font-size="14.00"> &#160;Declarations</text>
<polygon fill="#8dd3c7" stroke="transparent" points="132,-10 132,-30 152,-30 152,-10 132,-10"/>
<text text-anchor="start" x="155.73" y="-15.4" font-family="Times-12" font-size="14.00"> &#160;Module</text>
<polygon fill="#80b1d3" stroke="transparent" points="218,-10 218,-30 238,-30 238,-10 218,-10"/>
<text text-anchor="start" x="241.78" y="-15.4" font-family="Times-12" font-size="14.00"> &#160;Bootstrap</text>
<polygon fill="#fdb462" stroke="transparent" points="315,-10 315,-30 335,-30 335,-10 315,-10"/>
<text text-anchor="start" x="338.67" y="-15.4" font-family="Times-12" font-size="14.00"> &#160;Providers</text>
<polygon fill="#fb8072" stroke="transparent" points="411,-10 411,-30 431,-30 431,-10 411,-10"/>
<text text-anchor="start" x="434.73" y="-15.4" font-family="Times-12" font-size="14.00"> &#160;Exports</text>
<g id="clust1" class="cluster">
<title>cluster_ProductsModule</title>
<polygon fill="none" stroke="black" stroke-dasharray="1,5" points="8,-70 8,-268 498,-268 498,-70 8,-70"/>
</g>
<g id="clust2" class="cluster">
<title>cluster_ProductsModule_declarations</title>
<polygon fill="none" stroke="black" points="310,-78 310,-130 490,-130 490,-78 310,-78"/>
</g>
<g id="clust4" class="cluster">
<title>cluster_ProductsModule_imports</title>
<polygon fill="none" stroke="black" points="16,-78 16,-130 302,-130 302,-78 16,-78"/>
</g>
<g id="clust5" class="cluster">
<title>cluster_ProductsModule_exports</title>
<polygon fill="none" stroke="black" points="70,-208 70,-260 254,-260 254,-208 70,-208"/>
</g>
<!-- ProductDetailsComponent -->
<g id="node1" class="node">
<title>ProductDetailsComponent</title>
<polygon fill="#ffffb3" stroke="black" points="482.03,-122 317.97,-122 317.97,-86 482.03,-86 482.03,-122"/>
<text text-anchor="middle" x="400" y="-99.8" font-family="Times,serif" font-size="14.00">ProductDetailsComponent</text>
</g>
<!-- ProductsModule -->
<g id="node2" class="node">
<title>ProductsModule</title>
<polygon fill="#8dd3c7" stroke="black" points="216.04,-187 213.04,-191 192.04,-191 189.04,-187 107.96,-187 107.96,-151 216.04,-151 216.04,-187"/>
<text text-anchor="middle" x="162" y="-164.8" font-family="Times,serif" font-size="14.00">ProductsModule</text>
</g>
<!-- ProductDetailsComponent&#45;&gt;ProductsModule -->
<g id="edge1" class="edge">
<title>ProductDetailsComponent&#45;&gt;ProductsModule</title>
<path fill="none" stroke="black" d="M400,-122.11C400,-141.34 400,-169 400,-169 400,-169 226.3,-169 226.3,-169"/>
<polygon fill="black" stroke="black" points="226.3,-165.5 216.3,-169 226.3,-172.5 226.3,-165.5"/>
</g>
<!-- ProductDetailsComponent  -->
<g id="node5" class="node">
<title>ProductDetailsComponent </title>
<polygon fill="#fb8072" stroke="black" points="246.03,-252 77.97,-252 77.97,-216 246.03,-216 246.03,-252"/>
<text text-anchor="middle" x="162" y="-229.8" font-family="Times,serif" font-size="14.00">ProductDetailsComponent </text>
</g>
<!-- ProductsModule&#45;&gt;ProductDetailsComponent  -->
<g id="edge5" class="edge">
<title>ProductsModule&#45;&gt;ProductDetailsComponent </title>
<path fill="none" stroke="black" stroke-dasharray="5,2" d="M162,-187.11C162,-187.11 162,-205.99 162,-205.99"/>
<polygon fill="black" stroke="black" points="158.5,-205.99 162,-215.99 165.5,-205.99 158.5,-205.99"/>
</g>
<!-- ProductsRoutingModule -->
<g id="node3" class="node">
<title>ProductsRoutingModule</title>
<polygon fill="#8dd3c7" stroke="black" points="293.66,-122 290.66,-126 269.66,-126 266.66,-122 140.34,-122 140.34,-86 293.66,-86 293.66,-122"/>
<text text-anchor="middle" x="217" y="-99.8" font-family="Times,serif" font-size="14.00">ProductsRoutingModule</text>
</g>
<!-- ProductsRoutingModule&#45;&gt;ProductsModule -->
<g id="edge2" class="edge">
<title>ProductsRoutingModule&#45;&gt;ProductsModule</title>
<path fill="none" stroke="black" d="M178.22,-122.11C178.22,-122.11 178.22,-140.99 178.22,-140.99"/>
<polygon fill="black" stroke="black" points="174.72,-140.99 178.22,-150.99 181.72,-140.99 174.72,-140.99"/>
</g>
<!-- SharedModule -->
<g id="node4" class="node">
<title>SharedModule</title>
<polygon fill="#8dd3c7" stroke="black" points="122.42,-122 119.42,-126 98.42,-126 95.42,-122 23.58,-122 23.58,-86 122.42,-86 122.42,-122"/>
<text text-anchor="middle" x="73" y="-99.8" font-family="Times,serif" font-size="14.00">SharedModule</text>
</g>
<!-- SharedModule&#45;&gt;ProductsModule -->
<g id="edge3" class="edge">
<title>SharedModule&#45;&gt;ProductsModule</title>
<path fill="none" stroke="black" d="M117.38,-122.11C117.38,-122.11 117.38,-140.99 117.38,-140.99"/>
<polygon fill="black" stroke="black" points="113.88,-140.99 117.38,-150.99 120.88,-140.99 113.88,-140.99"/>
</g>
<!-- SharedModule&#45;&gt;ProductsModule -->
<g id="edge4" class="edge">
<title>SharedModule&#45;&gt;ProductsModule</title>
<path fill="none" stroke="black" d="M112.56,-122.11C112.56,-122.11 112.56,-140.99 112.56,-140.99"/>
<polygon fill="black" stroke="black" points="109.06,-140.99 112.56,-150.99 116.06,-140.99 109.06,-140.99"/>
</g>
</g>
</svg>
