<?xml version="1.0" encoding="UTF-8" standalone="no"?>
<!DOCTYPE svg PUBLIC "-//W3C//DTD SVG 1.1//EN"
 "http://www.w3.org/Graphics/SVG/1.1/DTD/svg11.dtd">
<!-- Generated by graphviz version 2.47.0 (20210316.0004)
 -->
<!-- Title: dependencies Pages: 1 -->
<svg width="766pt" height="284pt"
 viewBox="0.00 0.00 766.00 284.00" xmlns="http://www.w3.org/2000/svg" xmlns:xlink="http://www.w3.org/1999/xlink">
<g id="graph0" class="graph" transform="scale(1 1) rotate(0) translate(4 280)">
<title>dependencies</title>
<polygon fill="white" stroke="transparent" points="-4,4 -4,-280 762,-280 762,4 -4,4"/>
<text text-anchor="start" x="358.01" y="-42.4" font-family="Times-12" font-weight="bold" font-size="14.00">Legend</text>
<polygon fill="#ffffb3" stroke="transparent" points="145,-10 145,-30 165,-30 165,-10 145,-10"/>
<text text-anchor="start" x="168.63" y="-15.4" font-family="Times-12" font-size="14.00"> &#160;Declarations</text>
<polygon fill="#8dd3c7" stroke="transparent" points="258,-10 258,-30 278,-30 278,-10 258,-10"/>
<text text-anchor="start" x="281.73" y="-15.4" font-family="Times-12" font-size="14.00"> &#160;Module</text>
<polygon fill="#80b1d3" stroke="transparent" points="344,-10 344,-30 364,-30 364,-10 344,-10"/>
<text text-anchor="start" x="367.78" y="-15.4" font-family="Times-12" font-size="14.00"> &#160;Bootstrap</text>
<polygon fill="#fdb462" stroke="transparent" points="441,-10 441,-30 461,-30 461,-10 441,-10"/>
<text text-anchor="start" x="464.67" y="-15.4" font-family="Times-12" font-size="14.00"> &#160;Providers</text>
<polygon fill="#fb8072" stroke="transparent" points="537,-10 537,-30 557,-30 557,-10 537,-10"/>
<text text-anchor="start" x="560.73" y="-15.4" font-family="Times-12" font-size="14.00"> &#160;Exports</text>
<g id="clust1" class="cluster">
<title>cluster_AppModule</title>
<polygon fill="none" stroke="black" stroke-dasharray="1,5" points="8,-70 8,-268 750,-268 750,-70 8,-70"/>
</g>
<g id="clust2" class="cluster">
<title>cluster_AppModule_declarations</title>
<polygon fill="none" stroke="black" points="620,-78 620,-130 742,-130 742,-78 620,-78"/>
</g>
<g id="clust4" class="cluster">
<title>cluster_AppModule_imports</title>
<polygon fill="none" stroke="black" points="16,-78 16,-130 612,-130 612,-78 16,-78"/>
</g>
<g id="clust6" class="cluster">
<title>cluster_AppModule_bootstrap</title>
<polygon fill="none" stroke="black" points="295,-208 295,-260 419,-260 419,-208 295,-208"/>
</g>
<!-- AppComponent -->
<g id="node1" class="node">
<title>AppComponent</title>
<polygon fill="#ffffb3" stroke="black" points="733.94,-122 628.06,-122 628.06,-86 733.94,-86 733.94,-122"/>
<text text-anchor="middle" x="681" y="-99.8" font-family="Times,serif" font-size="14.00">AppComponent</text>
</g>
<!-- AppModule -->
<g id="node2" class="node">
<title>AppModule</title>
<polygon fill="#8dd3c7" stroke="black" points="398.66,-187 395.66,-191 374.66,-191 371.66,-187 315.34,-187 315.34,-151 398.66,-151 398.66,-187"/>
<text text-anchor="middle" x="357" y="-164.8" font-family="Times,serif" font-size="14.00">AppModule</text>
</g>
<!-- AppComponent&#45;&gt;AppModule -->
<g id="edge1" class="edge">
<title>AppComponent&#45;&gt;AppModule</title>
<path fill="none" stroke="black" d="M681,-122.28C681,-143.32 681,-175 681,-175 681,-175 408.69,-175 408.69,-175"/>
<polygon fill="black" stroke="black" points="408.69,-171.5 398.69,-175 408.69,-178.5 408.69,-171.5"/>
</g>
<!-- AppComponent  -->
<g id="node8" class="node">
<title>AppComponent </title>
<polygon fill="#80b1d3" stroke="black" points="411.44,-252 302.56,-252 302.56,-216 411.44,-216 411.44,-252"/>
<text text-anchor="middle" x="357" y="-229.8" font-family="Times,serif" font-size="14.00">AppComponent </text>
</g>
<!-- AppModule&#45;&gt;AppComponent  -->
<g id="edge7" class="edge">
<title>AppModule&#45;&gt;AppComponent </title>
<path fill="none" stroke="black" stroke-dasharray="1,5" d="M357,-187.11C357,-187.11 357,-205.99 357,-205.99"/>
<polygon fill="black" stroke="black" points="353.5,-205.99 357,-215.99 360.5,-205.99 353.5,-205.99"/>
</g>
<!-- AppRoutingModule -->
<g id="node3" class="node">
<title>AppRoutingModule</title>
<polygon fill="#8dd3c7" stroke="black" points="604.27,-122 601.27,-126 580.27,-126 577.27,-122 475.73,-122 475.73,-86 604.27,-86 604.27,-122"/>
<text text-anchor="middle" x="540" y="-99.8" font-family="Times,serif" font-size="14.00">AppRoutingModule</text>
</g>
<!-- AppRoutingModule&#45;&gt;AppModule -->
<g id="edge2" class="edge">
<title>AppRoutingModule&#45;&gt;AppModule</title>
<path fill="none" stroke="black" d="M540,-122.02C540,-139.37 540,-163 540,-163 540,-163 408.98,-163 408.98,-163"/>
<polygon fill="black" stroke="black" points="408.98,-159.5 398.98,-163 408.98,-166.5 408.98,-159.5"/>
</g>
<!-- CartModule -->
<g id="node4" class="node">
<title>CartModule</title>
<polygon fill="#8dd3c7" stroke="black" points="457.65,-122 454.65,-126 433.65,-126 430.65,-122 374.35,-122 374.35,-86 457.65,-86 457.65,-122"/>
<text text-anchor="middle" x="416" y="-99.8" font-family="Times,serif" font-size="14.00">CartModule</text>
</g>
<!-- CartModule&#45;&gt;AppModule -->
<g id="edge3" class="edge">
<title>CartModule&#45;&gt;AppModule</title>
<path fill="none" stroke="black" d="M386.5,-122.11C386.5,-122.11 386.5,-140.99 386.5,-140.99"/>
<polygon fill="black" stroke="black" points="383,-140.99 386.5,-150.99 390,-140.99 383,-140.99"/>
</g>
<!-- CustomerModule -->
<g id="node5" class="node">
<title>CustomerModule</title>
<polygon fill="#8dd3c7" stroke="black" points="355.99,-122 352.99,-126 331.99,-126 328.99,-122 242.01,-122 242.01,-86 355.99,-86 355.99,-122"/>
<text text-anchor="middle" x="299" y="-99.8" font-family="Times,serif" font-size="14.00">CustomerModule</text>
</g>
<!-- CustomerModule&#45;&gt;AppModule -->
<g id="edge4" class="edge">
<title>CustomerModule&#45;&gt;AppModule</title>
<path fill="none" stroke="black" d="M335.58,-122.11C335.58,-122.11 335.58,-140.99 335.58,-140.99"/>
<polygon fill="black" stroke="black" points="332.08,-140.99 335.58,-150.99 339.08,-140.99 332.08,-140.99"/>
</g>
<!-- HomeModule -->
<g id="node6" class="node">
<title>HomeModule</title>
<polygon fill="#8dd3c7" stroke="black" points="223.76,-122 220.76,-126 199.76,-126 196.76,-122 130.24,-122 130.24,-86 223.76,-86 223.76,-122"/>
<text text-anchor="middle" x="177" y="-99.8" font-family="Times,serif" font-size="14.00">HomeModule</text>
</g>
<!-- HomeModule&#45;&gt;AppModule -->
<g id="edge5" class="edge">
<title>HomeModule&#45;&gt;AppModule</title>
<path fill="none" stroke="black" d="M177,-122.02C177,-139.37 177,-163 177,-163 177,-163 305.25,-163 305.25,-163"/>
<polygon fill="black" stroke="black" points="305.25,-166.5 315.25,-163 305.25,-159.5 305.25,-166.5"/>
</g>
<!-- ShopModule -->
<g id="node7" class="node">
<title>ShopModule</title>
<polygon fill="#8dd3c7" stroke="black" points="112.33,-122 109.33,-126 88.33,-126 85.33,-122 23.67,-122 23.67,-86 112.33,-86 112.33,-122"/>
<text text-anchor="middle" x="68" y="-99.8" font-family="Times,serif" font-size="14.00">ShopModule</text>
</g>
<!-- ShopModule&#45;&gt;AppModule -->
<g id="edge6" class="edge">
<title>ShopModule&#45;&gt;AppModule</title>
<path fill="none" stroke="black" d="M68,-122.28C68,-143.32 68,-175 68,-175 68,-175 305.29,-175 305.29,-175"/>
<polygon fill="black" stroke="black" points="305.29,-178.5 315.29,-175 305.29,-171.5 305.29,-178.5"/>
</g>
</g>
</svg>
