<svg xmlns="http://www.w3.org/2000/svg" xmlns:xlink="http://www.w3.org/1999/xlink" width="1924" height="211pt" viewBox="0 0 1443 211"><g id="graph0" class="graph" transform="scale(1 1) rotate(0) translate(4 207)"><title>dependencies</title><polygon fill="#fff" stroke="transparent" points="-4 4 -4 -207 1439 -207 1439 4 -4 4"/><text x="696.51" y="-42.4" font-family="Times-12" font-size="14" font-weight="bold" text-anchor="start">Legend</text><polygon fill="#ffffb3" stroke="transparent" points="483.5 -10 483.5 -30 503.5 -30 503.5 -10 483.5 -10"/><text x="507.13" y="-15.4" font-family="Times-12" font-size="14" text-anchor="start">Declarations</text><polygon fill="#8dd3c7" stroke="transparent" points="596.5 -10 596.5 -30 616.5 -30 616.5 -10 596.5 -10"/><text x="620.23" y="-15.4" font-family="Times-12" font-size="14" text-anchor="start">Module</text><polygon fill="#80b1d3" stroke="transparent" points="682.5 -10 682.5 -30 702.5 -30 702.5 -10 682.5 -10"/><text x="706.28" y="-15.4" font-family="Times-12" font-size="14" text-anchor="start">Bootstrap</text><polygon fill="#fdb462" stroke="transparent" points="779.5 -10 779.5 -30 799.5 -30 799.5 -10 779.5 -10"/><text x="803.17" y="-15.4" font-family="Times-12" font-size="14" text-anchor="start">Providers</text><polygon fill="#fb8072" stroke="transparent" points="875.5 -10 875.5 -30 895.5 -30 895.5 -10 875.5 -10"/><text x="899.23" y="-15.4" font-family="Times-12" font-size="14" text-anchor="start">Exports</text><g id="clust1" class="cluster"><title>cluster_HomeModule</title><polygon fill="none" stroke="#000" stroke-dasharray="1 5" points="8 -70 8 -195 1427 -195 1427 -70 8 -70"/></g><g id="clust2" class="cluster"><title>cluster_HomeModule_declarations</title><polygon fill="none" stroke="#000" points="537 -78 537 -130 1419 -130 1419 -78 537 -78"/></g><g id="clust8" class="cluster"><title>cluster_HomeModule_imports</title><polygon fill="none" stroke="#000" points="16 -78 16 -130 529 -130 529 -78 16 -78"/></g><g id="node1" class="node"><title>CategoryListComponent</title><polygon fill="#ffffb3" stroke="#000" points="1411.43 -122 1256.57 -122 1256.57 -86 1411.43 -86 1411.43 -122"/><text x="1334" y="-99.8" font-family="Times,serif" font-size="14" text-anchor="middle">CategoryListComponent</text></g><g id="node6" class="node"><title>HomeModule</title><polygon fill="#8dd3c7" stroke="#000" points="690.76 -187 687.76 -191 666.76 -191 663.76 -187 597.24 -187 597.24 -151 690.76 -151 690.76 -187"/><text x="644" y="-164.8" font-family="Times,serif" font-size="14" text-anchor="middle">HomeModule</text></g><g id="edge1" class="edge"><title>CategoryListComponent-&gt;HomeModule</title><path fill="none" stroke="#000" d="M1334,-122.01C1334,-144.49 1334,-180 1334,-180 1334,-180 700.88,-180 700.88,-180"/><polygon fill="#000" stroke="#000" points="700.88 -176.5 690.88 -180 700.88 -183.5 700.88 -176.5"/></g><g id="node2" class="node"><title>CategoryProductGridComponent</title><polygon fill="#ffffb3" stroke="#000" points="1238.86 -122 1037.14 -122 1037.14 -86 1238.86 -86 1238.86 -122"/><text x="1138" y="-99.8" font-family="Times,serif" font-size="14" text-anchor="middle">CategoryProductGridComponent</text></g><g id="edge2" class="edge"><title>CategoryProductGridComponent-&gt;HomeModule</title><path fill="none" stroke="#000" d="M1138,-122.13C1138,-142.57 1138,-173 1138,-173 1138,-173 700.92,-173 700.92,-173"/><polygon fill="#000" stroke="#000" points="700.92 -169.5 690.92 -173 700.92 -176.5 700.92 -169.5"/></g><g id="node3" class="node"><title>HomeComponent</title><polygon fill="#ffffb3" stroke="#000" points="1018.55 -122 903.45 -122 903.45 -86 1018.55 -86 1018.55 -122"/><text x="961" y="-99.8" font-family="Times,serif" font-size="14" text-anchor="middle">HomeComponent</text></g><g id="edge3" class="edge"><title>HomeComponent-&gt;HomeModule</title><path fill="none" stroke="#000" d="M961,-122.27C961,-140.56 961,-166 961,-166 961,-166 700.77,-166 700.77,-166"/><polygon fill="#000" stroke="#000" points="700.77 -162.5 690.77 -166 700.77 -169.5 700.77 -162.5"/></g><g id="node4" class="node"><title>ProductComponent</title><polygon fill="#ffffb3" stroke="#000" points="885.38 -122 760.62 -122 760.62 -86 885.38 -86 885.38 -122"/><text x="823" y="-99.8" font-family="Times,serif" font-size="14" text-anchor="middle">ProductComponent</text></g><g id="edge4" class="edge"><title>ProductComponent-&gt;HomeModule</title><path fill="none" stroke="#000" d="M823,-122.01C823,-138.05 823,-159 823,-159 823,-159 701.03,-159 701.03,-159"/><polygon fill="#000" stroke="#000" points="701.03 -155.5 691.03 -159 701.03 -162.5 701.03 -155.5"/></g><g id="node5" class="node"><title>ProductsByCategoryComponent</title><polygon fill="#ffffb3" stroke="#000" points="742.98 -122 545.02 -122 545.02 -86 742.98 -86 742.98 -122"/><text x="644" y="-99.8" font-family="Times,serif" font-size="14" text-anchor="middle">ProductsByCategoryComponent</text></g><g id="edge5" class="edge"><title>ProductsByCategoryComponent-&gt;HomeModule</title><path fill="none" stroke="#000" d="M644,-122.11C644,-122.11 644,-140.99 644,-140.99"/><polygon fill="#000" stroke="#000" points="640.5 -140.99 644 -150.99 647.5 -140.99 640.5 -140.99"/></g><g id="node7" class="node"><title>HomeRoutingModule</title><polygon fill="#8dd3c7" stroke="#000" points="521.38 -122 518.38 -126 497.38 -126 494.38 -122 382.62 -122 382.62 -86 521.38 -86 521.38 -122"/><text x="452" y="-99.8" font-family="Times,serif" font-size="14" text-anchor="middle">HomeRoutingModule</text></g><g id="edge6" class="edge"><title>HomeRoutingModule-&gt;HomeModule</title><path fill="none" stroke="#000" d="M452,-122.01C452,-138.05 452,-159 452,-159 452,-159 587.03,-159 587.03,-159"/><polygon fill="#000" stroke="#000" points="587.03 -162.5 597.03 -159 587.03 -155.5 587.03 -162.5"/></g><g id="node8" class="node"><title>ProductsModule</title><polygon fill="#8dd3c7" stroke="#000" points="364.04 -122 361.04 -126 340.04 -126 337.04 -122 255.96 -122 255.96 -86 364.04 -86 364.04 -122"/><text x="310" y="-99.8" font-family="Times,serif" font-size="14" text-anchor="middle">ProductsModule</text></g><g id="edge7" class="edge"><title>ProductsModule-&gt;HomeModule</title><path fill="none" stroke="#000" d="M310,-122.27C310,-140.56 310,-166 310,-166 310,-166 587.21,-166 587.21,-166"/><polygon fill="#000" stroke="#000" points="587.21 -169.5 597.21 -166 587.21 -162.5 587.21 -169.5"/></g><g id="node9" class="node"><title>SearchModule</title><polygon fill="#8dd3c7" stroke="#000" points="237.64 -122 234.64 -126 213.64 -126 210.64 -122 140.36 -122 140.36 -86 237.64 -86 237.64 -122"/><text x="189" y="-99.8" font-family="Times,serif" font-size="14" text-anchor="middle">SearchModule</text></g><g id="edge8" class="edge"><title>SearchModule-&gt;HomeModule</title><path fill="none" stroke="#000" d="M189,-122.13C189,-142.57 189,-173 189,-173 189,-173 587.02,-173 587.02,-173"/><polygon fill="#000" stroke="#000" points="587.02 -176.5 597.02 -173 587.02 -169.5 587.02 -176.5"/></g><g id="node10" class="node"><title>SharedModule</title><polygon fill="#8dd3c7" stroke="#000" points="122.42 -122 119.42 -126 98.42 -126 95.42 -122 23.58 -122 23.58 -86 122.42 -86 122.42 -122"/><text x="73" y="-99.8" font-family="Times,serif" font-size="14" text-anchor="middle">SharedModule</text></g><g id="edge9" class="edge"><title>SharedModule-&gt;HomeModule</title><path fill="none" stroke="#000" d="M73,-122.01C73,-144.49 73,-180 73,-180 73,-180 586.79,-180 586.79,-180"/><polygon fill="#000" stroke="#000" points="586.79 -183.5 596.79 -180 586.79 -176.5 586.79 -183.5"/></g></g></svg>