<svg xmlns="http://www.w3.org/2000/svg" xmlns:xlink="http://www.w3.org/1999/xlink" width="672" height="284pt" viewBox="0 0 504 284"><g id="graph0" class="graph" transform="scale(1 1) rotate(0) translate(4 280)"><title>dependencies</title><polygon fill="#fff" stroke="transparent" points="-4 4 -4 -280 500 -280 500 4 -4 4"/><text x="227.01" y="-42.4" font-family="Times-12" font-size="14" font-weight="bold" text-anchor="start">Legend</text><polygon fill="#ffffb3" stroke="transparent" points="14 -10 14 -30 34 -30 34 -10 14 -10"/><text x="37.63" y="-15.4" font-family="Times-12" font-size="14" text-anchor="start">Declarations</text><polygon fill="#8dd3c7" stroke="transparent" points="127 -10 127 -30 147 -30 147 -10 127 -10"/><text x="150.73" y="-15.4" font-family="Times-12" font-size="14" text-anchor="start">Module</text><polygon fill="#80b1d3" stroke="transparent" points="213 -10 213 -30 233 -30 233 -10 213 -10"/><text x="236.78" y="-15.4" font-family="Times-12" font-size="14" text-anchor="start">Bootstrap</text><polygon fill="#fdb462" stroke="transparent" points="310 -10 310 -30 330 -30 330 -10 310 -10"/><text x="333.67" y="-15.4" font-family="Times-12" font-size="14" text-anchor="start">Providers</text><polygon fill="#fb8072" stroke="transparent" points="406 -10 406 -30 426 -30 426 -10 406 -10"/><text x="429.73" y="-15.4" font-family="Times-12" font-size="14" text-anchor="start">Exports</text><g id="clust1" class="cluster"><title>cluster_SearchModule</title><polygon fill="none" stroke="#000" stroke-dasharray="1 5" points="89 -70 89 -268 407 -268 407 -70 89 -70"/></g><g id="clust2" class="cluster"><title>cluster_SearchModule_declarations</title><polygon fill="none" stroke="#000" points="263 -78 263 -130 399 -130 399 -78 263 -78"/></g><g id="clust5" class="cluster"><title>cluster_SearchModule_exports</title><polygon fill="none" stroke="#000" points="184 -208 184 -260 322 -260 322 -208 184 -208"/></g><g id="clust4" class="cluster"><title>cluster_SearchModule_imports</title><polygon fill="none" stroke="#000" points="97 -78 97 -130 255 -130 255 -78 97 -78"/></g><g id="node1" class="node"><title>SearchComponent</title><polygon fill="#ffffb3" stroke="#000" points="390.92 -122 271.08 -122 271.08 -86 390.92 -86 390.92 -122"/><text x="331" y="-99.8" font-family="Times,serif" font-size="14" text-anchor="middle">SearchComponent</text></g><g id="node2" class="node"><title>SearchModule</title><polygon fill="#8dd3c7" stroke="#000" points="301.64 -187 298.64 -191 277.64 -191 274.64 -187 204.36 -187 204.36 -151 301.64 -151 301.64 -187"/><text x="253" y="-164.8" font-family="Times,serif" font-size="14" text-anchor="middle">SearchModule</text></g><g id="edge1" class="edge"><title>SearchComponent-&gt;SearchModule</title><path fill="none" stroke="#000" d="M286.55,-122.11C286.55,-122.11 286.55,-140.99 286.55,-140.99"/><polygon fill="#000" stroke="#000" points="283.05 -140.99 286.55 -150.99 290.05 -140.99 283.05 -140.99"/></g><g id="node4" class="node"><title>SearchComponent</title><polygon fill="#fb8072" stroke="#000" points="314.42 -252 191.58 -252 191.58 -216 314.42 -216 314.42 -252"/><text x="253" y="-229.8" font-family="Times,serif" font-size="14" text-anchor="middle">SearchComponent</text></g><g id="edge3" class="edge"><title>SearchModule-&gt;SearchComponent</title><path fill="none" stroke="#000" stroke-dasharray="5 2" d="M253,-187.11C253,-187.11 253,-205.99 253,-205.99"/><polygon fill="#000" stroke="#000" points="249.5 -205.99 253 -215.99 256.5 -205.99 249.5 -205.99"/></g><g id="node3" class="node"><title>SearchRoutingModule</title><polygon fill="#8dd3c7" stroke="#000" points="247.25 -122 244.25 -126 223.25 -126 220.25 -122 104.75 -122 104.75 -86 247.25 -86 247.25 -122"/><text x="176" y="-99.8" font-family="Times,serif" font-size="14" text-anchor="middle">SearchRoutingModule</text></g><g id="edge2" class="edge"><title>SearchRoutingModule-&gt;SearchModule</title><path fill="none" stroke="#000" d="M225.78,-122.11C225.78,-122.11 225.78,-140.99 225.78,-140.99"/><polygon fill="#000" stroke="#000" points="222.28 -140.99 225.78 -150.99 229.28 -140.99 222.28 -140.99"/></g></g></svg>